<svg width="1334" height="917" viewBox="0 0 1334 917" fill="none" xmlns="http://www.w3.org/2000/svg">
<path d="M220.74 -416L207.186 -416L132.162 -204.021L1.51641e-05 -354.639L1.49324e-05 -335.21L285.689 -9.63763L190.346 110.418C131.095 40.0566 57.3087 -48.4973 1.23527e-05 -118.88L1.21116e-05 -98.6607C12.3582 -83.5605 26.1678 -66.7327 41.5995 -48.0281C104.073 27.6863 167.166 102.74 182.214 120.634L88.3215 238.834L9.83153e-06 92.5448L9.33914e-06 133.836L71.972 253.059L7.46953e-06 290.618L7.29735e-06 305.057L78.61 264.043L204.753 473.015C194.273 478.518 183.665 483.807 172.908 488.84L4.13954e-06 569.865L3.8585e-06 593.433L181.979 508.164C193.398 502.81 204.668 497.18 215.809 491.314L348.419 710.972C314.504 729.932 279.158 746.376 242.788 760.069L7.81568e-07 851.459L5.09685e-07 874.259L178.692 806.99L218.968 917L232.586 917L190.687 802.49L250.322 780.032C287.909 765.891 324.407 748.871 359.454 729.25L472.812 917L497.721 917L442.504 825.524L676.455 774.145L779.056 905.888L763.923 917L803.943 917L802.492 915.144L1032.35 746.312L1025 917L1037.83 917L1045.58 736.586L1046.07 736.224L1222.11 917L1239.98 917L1056.49 728.567L1159.68 652.767L1212.96 733.494C1220.41 744.798 1231.83 752.476 1245.1 755.142C1258.38 757.786 1271.89 755.078 1283.12 747.506L1275.94 736.906C1267.58 742.537 1257.52 744.563 1247.62 742.58C1237.72 740.617 1229.2 734.88 1223.63 726.456L1170.04 645.175L1334 524.714L1334 498.246L1046.75 709.244L1059.64 409.116C1086.9 407.026 1108.39 384.461 1108.78 356.799L1334 332.741L1334 319.859L1107.41 344.087C1102.61 323.207 1085.53 307.019 1064.17 303.543L1077.17 1.15431L1334 149.832L1334 125.177L1147.54 17.2357L1334 -231.385L1334 -252.734L1266.06 -162.154L1214.96 -195.255C1182.76 -216.135 1139.13 -208.713 1115.63 -178.385L1099.41 -157.441L1109.55 -149.613L1125.75 -170.557C1145.21 -195.661 1181.33 -201.803 1207.98 -184.527L1258.38 -151.874L1136.38 10.7733L977.32 -81.2997L999.241 -132.018C1010.49 -157.995 1023.27 -183.631 1037.28 -208.223L1155.63 -416L1131.06 -416L1018.73 -218.759C1004.34 -193.506 991.194 -167.166 979.647 -140.464L958.73 -92.049L751.992 -211.72L774.232 -260.924L851.22 -416L827.379 -416L755.023 -270.244L733.444 -222.47L503.42 -355.62L518.595 -416L505.405 -416L491.894 -362.296L399.111 -416L356.509 -416L483.954 -342.226L386.198 -177.596L343.041 -221.339C322.828 -241.814 315.165 -271.716 323.02 -299.4L329.21 -321.176L316.873 -324.652L310.705 -302.876C301.591 -270.799 310.491 -236.098 333.927 -212.339L379.432 -166.207L293.032 -20.7069L141.831 -192.995L220.74 -416ZM95.3863 250.543L294.27 0.130558L378.877 96.5544L316.083 190.931C292.05 227.039 291.282 274.217 314.12 311.093L352.517 373.051C312.562 407.175 269.361 437.269 223.557 462.863L95.3863 250.543ZM394.971 95.4881L482.481 -35.999C507.945 -74.2615 557.527 -89.9163 600.364 -73.2164L656.157 -51.4405L644.461 -25.5697C624.931 17.6409 601.389 59.3371 574.495 98.41L496.675 211.384L394.971 95.4881ZM489.162 222.219C452.749 274.537 410.104 322.375 362.314 364.562L325.005 304.353C304.792 271.721 305.475 229.982 326.755 198.012L387.628 106.515L489.162 222.219ZM435.524 813.964L377.938 718.564C390.851 710.865 403.551 702.824 415.995 694.421L489.418 644.833C508.307 632.058 526.578 618.557 544.208 604.331L667.747 762.948L435.524 813.964ZM554.09 596.184C603.459 555 647.641 508.078 685.953 455.931L723.434 404.915L857.346 542.416L799.653 668.188L763.603 629.499C738.801 602.903 698.525 597.784 667.832 617.32L674.705 628.112C700.19 611.882 733.636 616.147 754.233 638.222L793.89 680.771L729.41 821.301L554.09 596.184ZM1031.04 720.782L789.386 898.317L738.289 832.69L866.929 552.27L1031.04 720.782ZM1046.86 408.583L1034.1 705.576L733.508 396.895L1003.62 368.039C1008.42 388.919 1025.49 405.085 1046.86 408.583ZM1064.66 -6.09722L1051.38 303.01C1024.15 305.1 1002.63 327.643 1002.27 355.306L739.228 383.416L776.11 333.231C804.797 294.18 829.94 252.462 851.071 208.846L900.162 232.179C915.167 239.324 932.007 240.071 947.567 234.291C963.148 228.532 975.421 216.994 982.144 201.808L993.862 175.361L982.144 170.179L970.448 196.647C965.133 208.633 955.421 217.74 943.127 222.304C930.812 226.869 917.515 226.271 905.669 220.641L856.577 197.287C859.63 190.696 862.618 184.085 865.499 177.409L968.804 -61.5713L1064.66 -6.09722ZM950.214 -72.342L845.905 168.942C822.747 222.539 793.463 273.556 758.907 320.605L710.499 386.487L708.343 389.409L668.75 443.326C615.86 515.308 551.508 577.138 477.465 627.152L404.042 676.74C391.897 684.951 379.496 692.8 366.903 700.308L234.592 481.12C282.808 454.118 328.228 422.318 370.105 386.103C422.782 340.589 469.483 288.443 508.969 231.134L592.083 110.503C619.702 70.385 643.863 27.5797 663.905 -16.7825L743.177 -192.184L950.214 -72.342ZM495.053 -335.828L724.607 -202.933L661.429 -63.1282L605.017 -85.1388C556.609 -103.993 500.581 -86.3118 471.809 -43.08L386.241 85.5279L301.868 -10.6187L495.053 -335.828Z" fill="#292929" fill-opacity="0.3"/>
</svg>
