<svg width="1334" height="353" viewBox="0 0 1334 353" fill="none" xmlns="http://www.w3.org/2000/svg">
<g clip-path="url(#clip0_2094_2)">
<mask id="mask0_2094_2" style="mask-type:luminance" maskUnits="userSpaceOnUse" x="0" y="223" width="1334" height="130">
<path d="M1334 223H0V353H1334V223Z" fill="white"/>
</mask>
<g mask="url(#mask0_2094_2)">
<path d="M1334 223H0V352.609H1334V223Z" fill="url(#paint0_linear_2094_2)"/>
<path d="M1334 235.728H0V238.506H1334V235.728Z" fill="white"/>
<path d="M1334 331.888H0V334.666H1334V331.888Z" fill="white"/>
<path d="M23.0335 269.596H0V272.374H23.0335V269.596Z" fill="white"/>
<path d="M489.008 269.596H442.408V272.374H489.008V269.596Z" fill="white"/>
<path d="M582.201 269.596H535.604V272.374H582.201V269.596Z" fill="white"/>
<path d="M209.425 269.596H162.825V272.374H209.425V269.596Z" fill="white"/>
<path d="M302.617 269.596H256.021V272.374H302.617V269.596Z" fill="white"/>
<path d="M116.228 269.596H69.6309V272.374H116.228V269.596Z" fill="white"/>
<path d="M675.396 269.596H628.799V272.374H675.396V269.596Z" fill="white"/>
<path d="M395.814 269.596H349.217V272.374H395.814V269.596Z" fill="white"/>
<path d="M1234.56 269.596H1187.97V272.374H1234.56V269.596Z" fill="white"/>
<path d="M1141.37 269.596H1094.77V272.374H1141.37V269.596Z" fill="white"/>
<path d="M1327.76 269.596H1281.16V272.374H1327.76V269.596Z" fill="white"/>
<path d="M861.785 269.596H815.188V272.374H861.785V269.596Z" fill="white"/>
<path d="M1048.17 269.596H1001.58V272.374H1048.17V269.596Z" fill="white"/>
<path d="M768.59 269.596H721.993V272.374H768.59V269.596Z" fill="white"/>
<path d="M954.979 269.596H908.382V272.374H954.979V269.596Z" fill="white"/>
</g>
<mask id="mask1_2094_2" style="mask-type:luminance" maskUnits="userSpaceOnUse" x="225" y="0" width="916" height="288">
<path d="M1141 0H225V288H1141V0Z" fill="white"/>
</mask>
<g mask="url(#mask1_2094_2)">
<path fill-rule="evenodd" clip-rule="evenodd" d="M246.019 252.39H375.464C375.465 247.637 379.353 243.746 384.107 243.746H513.562C518.314 243.746 522.204 247.635 522.204 252.39H612.483V215.705H417.733H406.513H371.495L368.975 205.376L366.047 186.881L337.73 157.237V164.409H279.166V215.703H246.019V217.698H232.368C228.317 217.698 225.002 221.012 225.002 225.063V245.022C225.002 249.073 228.317 252.388 232.368 252.388H246.019V252.39Z" fill="#484848"/>
<path d="M371.497 215.705H612.483V222.954H371.497V215.705Z" fill="#3D3C3C"/>
<path fill-rule="evenodd" clip-rule="evenodd" d="M267.903 76.3096C267.903 76.3096 244.784 96.1817 238.288 159.805C238.288 159.805 234.945 158.947 234.371 167.735C233.8 176.524 234.084 217.699 234.084 217.699H248.796L253.954 239.482L280.702 239.099C280.702 239.099 290.637 190.569 313.947 189.614C337.259 188.659 359.04 187.321 363.625 194.199C368.21 201.078 366.872 205.472 366.872 205.472L371.075 205.281C371.075 205.281 363.625 165.731 363.433 145.669C363.242 125.606 362.668 88.5409 362.668 88.5409C362.668 88.5409 360.185 75.7387 342.033 75.5484C323.884 75.3545 267.903 76.3096 267.903 76.3096Z" fill="#622996"/>
<path fill-rule="evenodd" clip-rule="evenodd" d="M255.592 94.083C249.248 106.481 242.138 126.251 238.698 156.055H241.983C248.929 124.189 253.708 107.26 261.073 94.083H255.592Z" fill="#86BCC6"/>
<path fill-rule="evenodd" clip-rule="evenodd" d="M270.766 87.5889C270.766 87.5889 250.129 106.122 248.411 160.194C246.691 214.267 246.309 210.062 256.244 210.446C262.341 210.681 278.724 210.698 290.476 210.679C295.856 199.882 303.58 190.039 313.95 189.614C319.249 189.397 324.467 189.161 329.424 189.004V87.7792L270.766 87.5889Z" fill="#9C5CD7"/>
<path fill-rule="evenodd" clip-rule="evenodd" d="M271.687 94.0828C265.07 101.59 251.566 122.025 254.481 161.528H273.768L282.803 140.13L322.543 139.938V94.0811H271.687V94.0828Z" fill="#86BCC6"/>
<path fill-rule="evenodd" clip-rule="evenodd" d="M233.998 177.488H239.129C240.083 177.488 240.863 178.267 240.863 179.222V211.104C240.863 212.055 240.085 212.838 239.129 212.838H233.998C233.046 212.838 232.264 212.057 232.264 211.104V208.918C231.187 208.918 230.306 208.037 230.306 206.961V203.808C230.306 202.731 231.187 201.85 232.264 201.85V198.698C231.187 198.698 230.306 197.817 230.306 196.74V193.588C230.306 192.509 231.187 191.628 232.264 191.628V188.477C231.187 188.477 230.306 187.596 230.306 186.518V183.365C230.306 182.288 231.187 181.407 232.264 181.407V179.224C232.264 178.267 233.045 177.488 233.998 177.488Z" fill="#4C4849"/>
<path fill-rule="evenodd" clip-rule="evenodd" d="M320.016 166.505H308.545C307.153 166.505 306.014 167.643 306.014 169.037C306.014 170.429 307.153 171.567 308.545 171.567H320.016C321.409 171.567 322.547 170.429 322.547 169.037C322.547 167.645 321.409 166.505 320.016 166.505Z" fill="#4C4849"/>
<path fill-rule="evenodd" clip-rule="evenodd" d="M340.023 98.5811H353.111C353.847 98.5811 354.448 99.182 354.448 99.9186C354.448 100.654 353.847 101.257 353.111 101.257H340.023C339.288 101.257 338.686 100.654 338.686 99.9186C338.686 99.182 339.286 98.5811 340.023 98.5811ZM340.023 133.619H353.111C353.847 133.619 354.448 134.22 354.448 134.956C354.448 135.693 353.847 136.294 353.111 136.294H340.023C339.288 136.294 338.686 135.693 338.686 134.956C338.686 134.22 339.286 133.619 340.023 133.619ZM340.023 126.611H353.111C353.847 126.611 354.448 127.212 354.448 127.948C354.448 128.683 353.847 129.286 353.111 129.286H340.023C339.288 129.286 338.686 128.685 338.686 127.948C338.686 127.213 339.286 126.611 340.023 126.611ZM340.023 119.604H353.111C353.847 119.604 354.448 120.207 354.448 120.942C354.448 121.678 353.847 122.279 353.111 122.279H340.023C339.288 122.279 338.686 121.678 338.686 120.942C338.686 120.205 339.286 119.604 340.023 119.604ZM340.023 112.596H353.111C353.847 112.596 354.448 113.197 354.448 113.934C354.448 114.668 353.847 115.271 353.111 115.271H340.023C339.288 115.271 338.686 114.67 338.686 113.934C338.686 113.199 339.286 112.596 340.023 112.596ZM340.023 105.588H353.111C353.847 105.588 354.448 106.191 354.448 106.925C354.448 107.66 353.847 108.263 353.111 108.263H340.023C339.288 108.263 338.686 107.66 338.686 106.925C338.686 106.191 339.286 105.588 340.023 105.588Z" fill="#A2411C"/>
<path fill-rule="evenodd" clip-rule="evenodd" d="M332.664 287.355C313.405 287.355 297.699 271.647 297.699 252.39C297.699 233.132 313.407 217.424 332.664 217.424C351.922 217.424 367.627 233.132 367.627 252.39C367.627 271.647 351.921 287.355 332.664 287.355Z" fill="#363636"/>
<path fill-rule="evenodd" clip-rule="evenodd" d="M564.725 287.355C545.466 287.355 529.76 271.647 529.76 252.39C529.76 233.132 545.466 217.424 564.725 217.424C583.982 217.424 599.688 233.132 599.688 252.39C599.688 271.647 583.984 287.355 564.725 287.355Z" fill="#363636"/>
<path d="M312.145 257.213C309.454 245.873 316.465 234.498 327.806 231.807C339.147 229.115 350.522 236.127 353.213 247.468C355.904 258.808 348.893 270.183 337.552 272.875C326.211 275.566 314.836 268.554 312.145 257.213Z" fill="#BCBDBF"/>
<path d="M562.126 273.317C550.562 271.858 542.37 261.303 543.828 249.739C545.287 238.176 555.842 229.984 567.406 231.442C578.969 232.9 587.161 243.456 585.703 255.019C584.245 266.583 573.689 274.775 562.126 273.317Z" fill="#BCBDBF"/>
<path fill-rule="evenodd" clip-rule="evenodd" d="M332.664 267.953C324.091 267.953 317.1 260.961 317.1 252.39C317.1 243.817 324.092 236.826 332.664 236.826C341.237 236.826 348.226 243.818 348.226 252.39C348.226 260.961 341.235 267.953 332.664 267.953Z" fill="#98999B"/>
<path fill-rule="evenodd" clip-rule="evenodd" d="M564.725 267.953C556.152 267.953 549.162 260.961 549.162 252.39C549.162 243.817 556.152 236.826 564.725 236.826C573.297 236.826 580.287 243.818 580.287 252.39C580.289 260.961 573.297 267.953 564.725 267.953Z" fill="#98999B"/>
<path fill-rule="evenodd" clip-rule="evenodd" d="M332.664 258.182C329.473 258.182 326.87 255.579 326.87 252.39C326.87 249.198 329.473 246.596 332.664 246.596C335.855 246.596 338.458 249.198 338.458 252.39C338.456 255.579 335.855 258.182 332.664 258.182Z" fill="#CCCDCF"/>
<path fill-rule="evenodd" clip-rule="evenodd" d="M564.726 258.182C561.534 258.182 558.931 255.579 558.931 252.39C558.931 249.198 561.534 246.596 564.726 246.596C567.915 246.596 570.52 249.198 570.52 252.39C570.52 255.579 567.917 258.182 564.726 258.182Z" fill="#CCCDCF"/>
<path fill-rule="evenodd" clip-rule="evenodd" d="M330.132 244.254C328.751 244.254 327.624 243.128 327.624 241.746C327.624 240.364 328.751 239.238 330.132 239.238C331.514 239.238 332.64 240.364 332.64 241.746C332.64 243.128 331.514 244.254 330.132 244.254Z" fill="#3C3D3F"/>
<path fill-rule="evenodd" clip-rule="evenodd" d="M567.257 244.254C565.876 244.254 564.75 243.128 564.75 241.746C564.75 240.364 565.876 239.238 567.257 239.238C568.639 239.238 569.765 240.364 569.765 241.746C569.765 243.128 568.637 244.254 567.257 244.254Z" fill="#3C3D3F"/>
<path fill-rule="evenodd" clip-rule="evenodd" d="M322.009 252.756C320.627 252.756 319.501 251.63 319.501 250.249C319.501 248.867 320.627 247.741 322.009 247.741C323.391 247.741 324.518 248.867 324.518 250.249C324.518 251.63 323.391 252.756 322.009 252.756Z" fill="#3C3D3F"/>
<path fill-rule="evenodd" clip-rule="evenodd" d="M575.377 252.756C573.996 252.756 572.87 251.63 572.87 250.249C572.87 248.867 573.996 247.741 575.377 247.741C576.759 247.741 577.887 248.867 577.887 250.249C577.885 251.63 576.757 252.756 575.377 252.756Z" fill="#3C3D3F"/>
<path fill-rule="evenodd" clip-rule="evenodd" d="M341.406 249.126C340.024 249.126 338.898 248 338.898 246.617C338.898 245.235 340.024 244.109 341.406 244.109C342.787 244.109 343.913 245.235 343.913 246.617C343.913 247.998 342.787 249.126 341.406 249.126Z" fill="#3C3D3F"/>
<path fill-rule="evenodd" clip-rule="evenodd" d="M555.985 249.126C554.603 249.126 553.475 248 553.475 246.617C553.475 245.235 554.601 244.109 555.985 244.109C557.366 244.109 558.492 245.235 558.492 246.617C558.492 247.998 557.366 249.126 555.985 249.126Z" fill="#3C3D3F"/>
<path fill-rule="evenodd" clip-rule="evenodd" d="M340.832 262.309C339.451 262.309 338.325 261.183 338.325 259.799C338.325 258.418 339.451 257.292 340.832 257.292C342.214 257.292 343.34 258.418 343.34 259.799C343.338 261.183 342.212 262.309 340.832 262.309Z" fill="#3C3D3F"/>
<path fill-rule="evenodd" clip-rule="evenodd" d="M556.558 262.309C555.178 262.309 554.05 261.183 554.05 259.799C554.05 258.418 555.178 257.292 556.558 257.292C557.94 257.292 559.067 258.418 559.067 259.799C559.066 261.183 557.94 262.309 556.558 262.309Z" fill="#3C3D3F"/>
<path fill-rule="evenodd" clip-rule="evenodd" d="M327.265 264.124C325.884 264.124 324.757 262.998 324.757 261.616C324.757 260.235 325.884 259.109 327.265 259.109C328.647 259.109 329.774 260.235 329.774 261.616C329.774 262.998 328.647 264.124 327.265 264.124Z" fill="#3C3D3F"/>
<path fill-rule="evenodd" clip-rule="evenodd" d="M570.123 264.124C568.742 264.124 567.616 262.998 567.616 261.616C567.616 260.235 568.742 259.109 570.123 259.109C571.505 259.109 572.633 260.235 572.633 261.616C572.633 262.998 571.505 264.124 570.123 264.124Z" fill="#3C3D3F"/>
<path fill-rule="evenodd" clip-rule="evenodd" d="M622.797 196.361H383.106V209.354H614.975L648.937 252.388C779.925 252.388 986.738 252.388 1117.73 252.388V239.395H656.76L622.797 196.361Z" fill="#8A7F94"/>
<path fill-rule="evenodd" clip-rule="evenodd" d="M622.797 196.361H383.106V202.858H621.474L655.436 245.892C786.424 245.892 986.738 245.892 1117.73 245.892V239.395H656.76L622.797 196.361Z" fill="#622996"/>
<path fill-rule="evenodd" clip-rule="evenodd" d="M656.333 213.764H1124.33H1130.7H1135.03V244.904H1124.33V224.464H1091.97V232.606H674.297V224.464H656.333V213.764Z" fill="#484848"/>
<path fill-rule="evenodd" clip-rule="evenodd" d="M926.123 224.464H915.039H801.546H790.464H674.298V227.832H790.464V239.395H801.546V227.832H915.039V239.395H926.123V227.832H1091.97V224.464H926.123Z" fill="#363636"/>
<path d="M383.107 85.1025H837.347V95.8042H383.107V85.1025Z" fill="#484848"/>
<path d="M1059.17 287.351C1039.86 287.266 1024.27 271.543 1024.36 252.232C1024.44 232.921 1040.17 217.336 1059.48 217.421C1078.79 217.506 1094.37 233.229 1094.29 252.54C1094.2 271.85 1078.48 287.436 1059.17 287.351Z" fill="#363636"/>
<path d="M1059.35 273.492C1047.7 273.492 1038.25 264.043 1038.25 252.388C1038.25 240.732 1047.7 231.284 1059.35 231.284C1071.01 231.284 1080.46 240.732 1080.46 252.388C1080.46 264.043 1071.01 273.492 1059.35 273.492Z" fill="#BCBDBF"/>
<path d="M1059.35 267.951C1050.76 267.951 1043.79 260.983 1043.79 252.388C1043.79 243.792 1050.76 236.824 1059.35 236.824C1067.95 236.824 1074.92 243.792 1074.92 252.388C1074.92 260.983 1067.95 267.951 1059.35 267.951Z" fill="#98999B"/>
<path fill-rule="evenodd" clip-rule="evenodd" d="M1059.35 258.182C1056.16 258.182 1053.56 255.579 1053.56 252.39C1053.56 249.198 1056.16 246.596 1059.35 246.596C1062.54 246.596 1065.15 249.198 1065.15 252.39C1065.15 255.579 1062.54 258.182 1059.35 258.182Z" fill="#CCCDCF"/>
<path fill-rule="evenodd" clip-rule="evenodd" d="M1061.88 244.254C1060.5 244.254 1059.37 243.128 1059.37 241.746C1059.37 240.364 1060.5 239.238 1061.88 239.238C1063.26 239.238 1064.39 240.364 1064.39 241.746C1064.39 243.128 1063.26 244.254 1061.88 244.254Z" fill="#3C3D3F"/>
<path fill-rule="evenodd" clip-rule="evenodd" d="M1070.01 252.756C1068.62 252.756 1067.5 251.63 1067.5 250.249C1067.5 248.867 1068.62 247.741 1070.01 247.741C1071.39 247.741 1072.51 248.867 1072.51 250.249C1072.51 251.63 1071.39 252.756 1070.01 252.756Z" fill="#3C3D3F"/>
<path fill-rule="evenodd" clip-rule="evenodd" d="M1050.61 249.126C1049.23 249.126 1048.1 248 1048.1 246.617C1048.1 245.235 1049.23 244.109 1050.61 244.109C1051.99 244.109 1053.12 245.235 1053.12 246.617C1053.12 247.998 1051.99 249.126 1050.61 249.126Z" fill="#3C3D3F"/>
<path fill-rule="evenodd" clip-rule="evenodd" d="M1051.19 262.309C1049.8 262.309 1048.68 261.183 1048.68 259.799C1048.68 258.418 1049.8 257.292 1051.19 257.292C1052.57 257.292 1053.69 258.418 1053.69 259.799C1053.69 261.183 1052.57 262.309 1051.19 262.309Z" fill="#3C3D3F"/>
<path fill-rule="evenodd" clip-rule="evenodd" d="M1064.75 264.124C1063.37 264.124 1062.24 262.998 1062.24 261.616C1062.24 260.235 1063.37 259.109 1064.75 259.109C1066.13 259.109 1067.26 260.235 1067.26 261.616C1067.26 262.998 1066.13 264.124 1064.75 264.124Z" fill="#3C3D3F"/>
<path fill-rule="evenodd" clip-rule="evenodd" d="M976.179 287.355C956.92 287.355 941.214 271.647 941.214 252.39C941.214 233.132 956.92 217.424 976.179 217.424C995.436 217.424 1011.14 233.132 1011.14 252.39C1011.14 271.647 995.436 287.355 976.179 287.355Z" fill="#363636"/>
<path fill-rule="evenodd" clip-rule="evenodd" d="M976.178 273.493C964.553 273.493 955.073 264.013 955.073 252.389C955.073 240.766 964.553 231.286 976.178 231.286C987.802 231.286 997.282 240.766 997.282 252.389C997.284 264.013 987.802 273.493 976.178 273.493Z" fill="#BCBDBF"/>
<path fill-rule="evenodd" clip-rule="evenodd" d="M976.179 267.953C967.608 267.953 960.616 260.961 960.616 252.39C960.616 243.817 967.608 236.826 976.179 236.826C984.751 236.826 991.741 243.818 991.741 252.39C991.743 260.961 984.752 267.953 976.179 267.953Z" fill="#98999B"/>
<path fill-rule="evenodd" clip-rule="evenodd" d="M976.18 258.182C972.988 258.182 970.386 255.579 970.386 252.39C970.386 249.198 972.988 246.596 976.18 246.596C979.369 246.596 981.974 249.198 981.974 252.39C981.974 255.579 979.369 258.182 976.18 258.182Z" fill="#CCCDCF"/>
<path fill-rule="evenodd" clip-rule="evenodd" d="M978.711 244.254C977.33 244.254 976.202 243.128 976.202 241.746C976.202 240.364 977.33 239.238 978.711 239.238C980.093 239.238 981.219 240.364 981.219 241.746C981.219 243.128 980.091 244.254 978.711 244.254Z" fill="#3C3D3F"/>
<path fill-rule="evenodd" clip-rule="evenodd" d="M986.831 252.756C985.45 252.756 984.324 251.63 984.324 250.248C984.324 248.867 985.45 247.741 986.831 247.741C988.213 247.741 989.339 248.867 989.339 250.248C989.339 251.63 988.211 252.756 986.831 252.756Z" fill="#3C3D3F"/>
<path fill-rule="evenodd" clip-rule="evenodd" d="M967.437 249.126C966.055 249.126 964.929 248 964.929 246.617C964.929 245.235 966.055 244.109 967.437 244.109C968.819 244.109 969.946 245.235 969.946 246.617C969.946 247.998 968.819 249.126 967.437 249.126Z" fill="#3C3D3F"/>
<path fill-rule="evenodd" clip-rule="evenodd" d="M968.012 262.309C966.63 262.309 965.503 261.183 965.503 259.799C965.503 258.418 966.629 257.292 968.012 257.292C969.393 257.292 970.52 258.418 970.52 259.799C970.52 261.183 969.393 262.309 968.012 262.309Z" fill="#3C3D3F"/>
<path fill-rule="evenodd" clip-rule="evenodd" d="M981.576 264.124C980.197 264.124 979.069 262.998 979.069 261.616C979.069 260.235 980.197 259.109 981.576 259.109C982.958 259.109 984.084 260.235 984.084 261.616C984.084 262.998 982.958 264.124 981.576 264.124Z" fill="#3C3D3F"/>
<path fill-rule="evenodd" clip-rule="evenodd" d="M775.561 100.277H985.231V108.166L775.561 116.055V100.277Z" fill="#484848"/>
<path fill-rule="evenodd" clip-rule="evenodd" d="M783.25 86.8066C785.641 86.8066 787.596 88.7626 787.596 91.1539V108.254C787.596 110.645 785.64 112.601 783.25 112.601C780.859 112.601 778.903 110.645 778.903 108.254V91.1539C778.905 88.7626 780.859 86.8066 783.25 86.8066Z" fill="#363636"/>
<path fill-rule="evenodd" clip-rule="evenodd" d="M783.251 93.1772C782.093 93.1772 781.151 92.2327 781.151 91.0749C781.151 89.9172 782.093 88.9727 783.251 88.9727C784.411 88.9727 785.354 89.9172 785.354 91.0749C785.354 92.2327 784.409 93.1772 783.251 93.1772Z" fill="#484848"/>
<path fill-rule="evenodd" clip-rule="evenodd" d="M783.251 110.434C782.093 110.434 781.151 109.489 781.151 108.332C781.151 107.174 782.093 106.229 783.251 106.229C784.411 106.229 785.354 107.174 785.354 108.332C785.354 109.491 784.409 110.434 783.251 110.434Z" fill="#484848"/>
<path d="M819.598 95.8047H828.101V100.278H819.598V95.8047Z" fill="#363636"/>
<path fill-rule="evenodd" clip-rule="evenodd" d="M602.055 181.76C602.055 181.76 594.857 183.686 583.561 184.533C584.01 182.969 584.254 181.317 584.254 179.608C584.254 169.784 576.289 161.819 566.464 161.819C556.64 161.819 548.677 169.784 548.677 179.608C548.677 180.673 548.772 181.716 548.95 182.729C548.607 182.666 548.265 182.6 547.917 182.532H454.335L453.246 182.461C453.527 181.21 453.673 179.909 453.673 178.574C453.673 168.748 445.709 160.785 435.885 160.785C426.061 160.785 418.098 168.75 418.098 178.574C418.098 179.12 418.124 179.661 418.172 180.197L397.297 178.664L395.556 159.715C395.556 159.715 400.39 149.08 412.186 145.6C423.982 142.12 443.896 138.445 443.896 138.445C443.896 138.445 476.96 114.857 509.636 112.922C542.314 110.989 579.436 118.723 579.436 118.723L601.287 143.279C601.287 143.279 604.379 155.267 601.093 166.676L603.897 168.995C603.893 168.998 605.053 177.506 602.055 181.76Z" fill="#FA6E52"/>
<path fill-rule="evenodd" clip-rule="evenodd" d="M453.672 178.576C453.672 168.75 445.708 160.786 435.884 160.786C426.06 160.786 418.097 168.751 418.097 178.576C418.097 179.122 418.123 179.663 418.171 180.198L397.296 178.665L395.555 159.717C395.555 159.717 397.608 155.202 402.299 151.093C521.158 156.411 580.332 152.485 602.378 150.212C602.783 154.687 602.796 160.76 601.09 166.679L603.894 168.998C603.894 168.998 605.053 177.506 602.056 181.76C602.056 181.76 594.857 183.686 583.562 184.533C584.011 182.969 584.254 181.317 584.254 179.608C584.254 169.784 576.289 161.819 566.465 161.819C556.641 161.819 548.678 169.784 548.678 179.608C548.678 180.673 548.773 181.716 548.951 182.729L547.918 182.532H454.336L453.247 182.461C453.524 181.212 453.672 179.911 453.672 178.576Z" fill="#E7563F"/>
<path fill-rule="evenodd" clip-rule="evenodd" d="M522.489 116.889C522.489 116.889 480.726 113.408 451.334 143.765C451.334 143.765 488.557 144.151 518.526 141.446L522.489 116.889Z" fill="#49A9C9"/>
<path fill-rule="evenodd" clip-rule="evenodd" d="M527.902 117.276L524.713 140.964C524.713 140.964 533.897 142.994 557.389 140.384C557.389 140.384 567.83 134.874 567.058 124.433C567.058 124.433 557.68 118.05 527.902 117.276Z" fill="#49A9C9"/>
<path fill-rule="evenodd" clip-rule="evenodd" d="M582.199 151.836L581.753 144.733C593.162 135.839 601.282 143.283 601.282 143.283C601.282 143.283 601.997 146.06 602.376 150.211C597.526 150.712 590.88 151.293 582.199 151.836Z" fill="#F4FDFA"/>
<path fill-rule="evenodd" clip-rule="evenodd" d="M548.787 151.748C544.714 151.748 541.391 150.804 541.391 149.646C541.391 148.488 544.714 147.544 548.787 147.544C552.859 147.544 556.183 148.488 556.183 149.646C556.183 150.804 552.859 151.748 548.787 151.748Z" fill="#FB9480"/>
<path fill-rule="evenodd" clip-rule="evenodd" d="M502.284 152.009C498.211 152.009 494.89 151.064 494.89 149.905C494.89 148.747 498.211 147.803 502.284 147.803C506.356 147.803 509.678 148.747 509.678 149.905C509.678 151.064 506.356 152.009 502.284 152.009Z" fill="#FB9480"/>
<path fill-rule="evenodd" clip-rule="evenodd" d="M548.787 151.748C544.702 151.748 541.391 150.807 541.391 149.646H556.183C556.183 150.807 552.87 151.748 548.787 151.748Z" fill="#E7563F"/>
<path fill-rule="evenodd" clip-rule="evenodd" d="M502.284 152.009C498.199 152.009 494.89 151.068 494.89 149.905H509.68C509.678 151.066 506.369 152.009 502.284 152.009Z" fill="#E7563F"/>
<path d="M551.088 188.024C547.704 179.802 551.626 170.394 559.848 167.01C568.07 163.627 577.478 167.549 580.862 175.771C584.245 183.992 580.323 193.401 572.101 196.784C563.879 200.168 554.471 196.246 551.088 188.024Z" fill="#1A1A1A"/>
<path d="M436.06 197.376C427.169 197.376 419.962 190.169 419.962 181.279C419.962 172.388 427.169 165.181 436.06 165.181C444.95 165.181 452.157 172.388 452.157 181.279C452.157 190.169 444.95 197.376 436.06 197.376Z" fill="#1A1A1A"/>
<path fill-rule="evenodd" clip-rule="evenodd" d="M566.022 191.602C560.683 191.602 556.327 187.245 556.327 181.906C556.327 176.565 560.683 172.211 566.022 172.211C571.363 172.211 575.718 176.565 575.718 181.906C575.72 187.247 571.363 191.602 566.022 191.602Z" fill="#BBB9BC"/>
<path fill-rule="evenodd" clip-rule="evenodd" d="M436.06 190.976C430.719 190.976 426.365 186.62 426.365 181.28C426.365 175.939 430.719 171.585 436.06 171.585C441.401 171.585 445.756 175.939 445.756 181.28C445.756 186.618 441.401 190.976 436.06 190.976Z" fill="#BBB9BC"/>
<path fill-rule="evenodd" clip-rule="evenodd" d="M561.549 179.139C560.895 179.139 560.363 179.67 560.363 180.324C560.363 180.977 560.893 181.508 561.549 181.508C562.202 181.508 562.733 180.979 562.733 180.324C562.733 179.672 562.202 179.139 561.549 179.139ZM566.023 179.06C564.511 179.06 563.288 180.285 563.288 181.797C563.288 183.309 564.512 184.533 566.023 184.533C567.535 184.533 568.759 183.309 568.759 181.797C568.759 180.285 567.535 179.06 566.023 179.06ZM566.023 175.888C565.369 175.888 564.838 176.419 564.838 177.074C564.838 177.728 565.367 178.258 566.023 178.258C566.678 178.258 567.207 177.728 567.207 177.074C567.207 176.419 566.678 175.888 566.023 175.888ZM570.5 179.139C569.847 179.139 569.314 179.67 569.314 180.324C569.314 180.977 569.845 181.508 570.5 181.508C571.154 181.508 571.685 180.979 571.685 180.324C571.683 179.672 571.152 179.139 570.5 179.139ZM568.789 184.401C569.443 184.401 569.973 184.932 569.973 185.587C569.973 186.241 569.443 186.771 568.789 186.771C568.136 186.771 567.605 186.241 567.605 185.587C567.607 184.932 568.136 184.401 568.789 184.401ZM563.258 184.401C563.912 184.401 564.442 184.932 564.442 185.587C564.442 186.241 563.912 186.771 563.258 186.771C562.604 186.771 562.072 186.241 562.072 185.587C562.072 184.932 562.604 184.401 563.258 184.401Z" fill="#394241"/>
<path fill-rule="evenodd" clip-rule="evenodd" d="M431.583 178.514C430.929 178.514 430.399 179.042 430.399 179.698C430.399 180.352 430.929 180.882 431.583 180.882C432.238 180.882 432.769 180.354 432.769 179.698C432.769 179.042 432.238 178.514 431.583 178.514ZM436.061 178.433C434.55 178.433 433.326 179.657 433.326 181.169C433.326 182.68 434.55 183.904 436.061 183.904C437.571 183.904 438.797 182.68 438.797 181.169C438.797 179.659 437.571 178.433 436.061 178.433ZM436.061 175.261C435.407 175.261 434.876 175.791 434.876 176.445C434.876 177.101 435.407 177.631 436.061 177.631C436.714 177.631 437.247 177.101 437.247 176.445C437.245 175.791 436.714 175.261 436.061 175.261ZM440.537 178.514C439.883 178.514 439.352 179.042 439.352 179.698C439.352 180.352 439.881 180.882 440.537 180.882C441.19 180.882 441.721 180.354 441.721 179.698C441.721 179.042 441.19 178.514 440.537 178.514ZM438.827 183.774C439.481 183.774 440.011 184.304 440.011 184.958C440.011 185.614 439.481 186.144 438.827 186.144C438.173 186.144 437.641 185.614 437.641 184.958C437.641 184.306 438.173 183.774 438.827 183.774ZM433.294 183.774C433.949 183.774 434.478 184.304 434.478 184.958C434.478 185.614 433.949 186.144 433.294 186.144C432.64 186.144 432.11 185.614 432.11 184.958C432.11 184.306 432.64 183.774 433.294 183.774Z" fill="#394241"/>
<path fill-rule="evenodd" clip-rule="evenodd" d="M580.582 188.78C581.567 186.696 582.121 184.366 582.121 181.906C582.121 173.016 574.913 165.81 566.023 165.81C557.133 165.81 549.927 173.016 549.927 181.906C549.927 184.868 550.726 187.642 552.121 190.026C546.66 190.153 541.164 190.202 535.929 190.127C520.758 189.912 481.779 189.147 450.444 188.518C451.542 186.341 452.158 183.883 452.158 181.28C452.158 172.39 444.951 165.183 436.061 165.183C427.171 165.183 419.963 172.39 419.963 181.28C419.963 183.651 420.476 185.903 421.398 187.931C411.961 187.737 405.995 187.614 405.995 187.614L400.223 178.882L418.171 180.198C418.124 179.664 418.097 179.122 418.097 178.575C418.097 168.75 426.062 160.786 435.885 160.786C445.711 160.786 453.672 168.751 453.672 178.575C453.672 179.911 453.524 181.212 453.246 182.463L454.335 182.533H547.917L548.949 182.731C548.771 181.717 548.676 180.674 548.676 179.61C548.676 169.786 556.641 161.821 566.464 161.821C576.29 161.821 584.253 169.786 584.253 179.61C584.253 181.317 584.011 182.97 583.56 184.535C590.576 184.008 596.008 183.067 599.122 182.428L597.027 187.614C597.027 187.614 590.361 188.179 580.582 188.78Z" fill="#394241"/>
<path fill-rule="evenodd" clip-rule="evenodd" d="M395.553 159.717C395.553 159.717 397.605 155.202 402.296 151.093C409.319 151.408 416.131 151.69 422.741 151.942C420.343 155.62 413.595 161.669 395.553 159.717Z" fill="#F7F9F8"/>
<path fill-rule="evenodd" clip-rule="evenodd" d="M406.185 166.603L396.229 165.765C395.328 165.689 394.585 166.506 394.585 167.409V174.561C394.585 175.465 395.325 176.205 396.229 176.205H406.185C407.089 176.205 407.829 175.465 407.829 174.561V168.247C407.829 167.342 407.085 166.679 406.185 166.603Z" fill="#394241"/>
<path fill-rule="evenodd" clip-rule="evenodd" d="M560.329 136.583L542.903 119.157C547.543 119.664 551.333 120.329 554.387 121.021L564.324 130.958C563.341 133.312 561.794 135.194 560.329 136.583ZM527.516 132.184L536.036 140.705C540.438 140.738 546.487 140.518 554.456 139.698L533.172 118.417C531.953 118.36 530.691 118.314 529.387 118.281L527.516 132.184ZM556.387 139.492C556.407 139.49 556.428 139.487 556.447 139.485C556.447 139.485 557.661 138.844 559.195 137.586L540.528 118.919C538.921 118.771 537.224 118.642 535.43 118.536L556.387 139.492Z" fill="#61B6D4"/>
<path fill-rule="evenodd" clip-rule="evenodd" d="M515.68 140.257L495.663 120.24C498.475 119.565 501.161 119.056 503.66 118.679L518.418 133.437L517.341 140.111C516.79 140.162 516.235 140.209 515.68 140.257ZM488.954 141.769C494.895 141.566 501.173 141.281 507.366 140.879L488.692 122.205C484.286 123.638 479.703 125.506 475.125 127.939L488.954 141.769ZM509.357 140.745C510.819 140.645 512.275 140.535 513.716 140.419L493.963 120.665C492.764 120.977 491.545 121.319 490.308 121.696L509.357 140.745Z" fill="#61B6D4"/>
<path fill-rule="evenodd" clip-rule="evenodd" d="M469.339 137.534C464.6 137.534 460.759 139.46 460.759 141.838C460.759 144.213 464.6 146.139 469.339 146.139C474.077 146.139 476.419 145.577 476.322 141.896C476.227 138.215 474.077 137.534 469.339 137.534Z" fill="#FA6E52"/>
<path fill-rule="evenodd" clip-rule="evenodd" d="M469.339 146.139C464.639 146.139 460.822 144.245 460.759 141.896H476.322C476.421 145.577 474.077 146.139 469.339 146.139Z" fill="#E7563F"/>
<path fill-rule="evenodd" clip-rule="evenodd" d="M422.741 151.942C503.407 155.017 553.742 153.62 582.199 151.836C590.879 151.292 597.526 150.71 602.376 150.212C602.411 150.615 602.445 151.033 602.475 151.461C594.473 153.412 569.638 158.018 509.867 159.31C474.072 160.083 443.486 157.25 421.067 154.014C421.779 153.287 422.326 152.578 422.741 151.942Z" fill="#D54D37"/>
<path fill-rule="evenodd" clip-rule="evenodd" d="M500.79 178.665C517.98 178.665 534.278 178.012 548.888 176.836C548.747 177.74 548.675 178.665 548.675 179.608C548.675 180.673 548.77 181.716 548.948 182.729L547.916 182.532H454.333L453.244 182.461C453.525 181.21 453.671 179.91 453.671 178.574C453.671 178.012 453.646 177.457 453.595 176.909C467.973 178.038 483.954 178.665 500.79 178.665Z" fill="#D54D37"/>
<path fill-rule="evenodd" clip-rule="evenodd" d="M412.885 151.549C416.221 151.686 419.504 151.817 422.741 151.942C422.325 152.58 421.779 153.286 421.067 154.012C418.822 156.298 414.921 158.756 408.237 159.697C409.729 156.079 411.373 153.447 412.885 151.549Z" fill="#FFBB63"/>
<path fill-rule="evenodd" clip-rule="evenodd" d="M408.139 154.502C409.02 154.502 409.869 154.598 410.671 154.777C409.846 156.169 409.02 157.798 408.236 159.697C405.726 160.05 402.822 160.189 399.467 160.027C400.11 156.899 403.747 154.502 408.139 154.502Z" fill="#9E9FA3"/>
<path fill-rule="evenodd" clip-rule="evenodd" d="M566.358 158.924C574.508 158.924 581.522 163.784 584.66 170.762L582.558 172.02C579.71 165.992 573.573 161.819 566.464 161.819C558.71 161.819 552.116 166.781 549.681 173.701L547.362 172.537C550.042 164.621 557.535 158.924 566.358 158.924Z" fill="#D54D37"/>
<path fill-rule="evenodd" clip-rule="evenodd" d="M435.778 157.889C443.926 157.889 450.942 162.749 454.08 169.729L451.976 170.986C449.128 164.957 442.992 160.785 435.882 160.785C428.129 160.785 421.533 165.747 419.097 172.667L416.778 171.504C419.462 163.585 426.955 157.889 435.778 157.889Z" fill="#D54D37"/>
<path fill-rule="evenodd" clip-rule="evenodd" d="M524.407 117.146L520.789 141.455C520.718 141.852 516.285 166.741 514.355 178.803L515.668 178.611C517.577 166.679 522.017 141.735 522.031 141.663L525.79 117.243L524.407 117.146Z" fill="#D54D37"/>
<path fill-rule="evenodd" clip-rule="evenodd" d="M569.106 125.679L564.329 152.751C556.202 154.406 550.887 157.042 547.236 161.334C543.526 165.696 541.584 171.47 540.603 177.594L541.935 177.485C542.881 171.571 544.656 166.307 548.194 162.145C551.729 157.99 556.919 155.611 564.974 154.043L565.4 153.958L570.237 126.507L569.106 125.679Z" fill="#D54D37"/>
<path fill-rule="evenodd" clip-rule="evenodd" d="M451.337 143.765L452.161 153.295L452.399 153.45C457.936 157.05 461.926 161.463 464.585 166.177C467.58 171.49 468.886 177.187 468.81 182.526L470.063 182.54C470.141 176.997 468.786 171.079 465.675 165.562C462.962 160.749 459.245 156.636 453.652 152.95L452.753 143.776L451.337 143.765Z" fill="#D54D37"/>
<path fill-rule="evenodd" clip-rule="evenodd" d="M582.12 181.906C582.12 184.366 581.569 186.696 580.582 188.78C578.004 194.231 572.453 198.004 566.023 198.004C561.577 198.004 557.554 196.203 554.641 193.29L559.166 188.763C560.921 190.52 563.344 191.605 566.023 191.605C571.378 191.605 575.718 187.263 575.718 181.908C575.718 179.229 574.633 176.806 572.878 175.051L577.405 170.526C580.317 173.437 582.12 177.462 582.12 181.906Z" fill="black"/>
<path fill-rule="evenodd" clip-rule="evenodd" d="M452.157 181.279C452.157 183.881 451.539 186.34 450.443 188.516C447.792 193.771 442.347 197.376 436.06 197.376C431.616 197.376 427.591 195.573 424.678 192.662L429.203 188.135C430.958 189.89 433.381 190.976 436.06 190.976C441.415 190.976 445.755 186.636 445.755 181.28C445.755 178.602 444.67 176.179 442.915 174.424L447.442 169.899C450.355 172.811 452.157 176.834 452.157 181.279Z" fill="black"/>
<path fill-rule="evenodd" clip-rule="evenodd" d="M480.666 136.99C481.545 137.445 482.271 138.038 482.864 138.745L486.524 137.973L485.214 133.485C485.08 133.032 485.343 132.555 485.798 132.422L486.33 132.267C486.783 132.135 487.26 132.398 487.391 132.851L490.4 143.156C489.616 143.186 488.836 143.214 488.062 143.24L486.984 139.543L483.829 140.209C484.314 141.15 484.647 142.21 484.853 143.346C481.84 143.44 478.923 143.514 476.15 143.572C476.284 143.101 476.344 142.548 476.326 141.896C476.229 138.215 474.081 137.534 469.342 137.534C464.602 137.534 460.761 139.461 460.761 141.836C460.761 141.855 460.762 141.875 460.762 141.896C460.782 142.569 461.106 143.203 461.673 143.769C457.552 143.794 454.441 143.785 452.755 143.776C451.833 143.771 451.338 143.766 451.338 143.766C454.427 140.574 457.652 137.758 460.953 135.272C466.6 134.414 474.796 133.961 480.666 136.99Z" fill="#375561"/>
<path fill-rule="evenodd" clip-rule="evenodd" d="M510.722 134.525L510.059 142.12C507.277 142.315 504.466 142.486 501.666 142.638L502.438 133.8C502.506 133.014 503.204 132.429 503.988 132.498L505.788 132.655L506.019 130.019L505.372 129.936C504.669 129.846 504.107 129.243 504.203 128.544L504.935 123.152C505.03 122.452 505.624 121.922 506.327 121.983L508.944 122.211C509.647 122.272 510.131 122.898 510.112 123.603L509.966 129.03C509.946 129.737 509.28 130.22 508.574 130.2L507.855 130.181L507.624 132.817L509.423 132.974C510.205 133.043 510.792 133.739 510.722 134.525Z" fill="#375561"/>
<path fill-rule="evenodd" clip-rule="evenodd" d="M602.735 69.9182C602.735 69.9182 595.537 71.8442 584.243 72.6918C584.693 71.127 584.936 69.4759 584.936 67.7683C584.936 57.9424 576.971 49.9791 567.147 49.9791C557.322 49.9791 549.359 57.9442 549.359 67.7683C549.359 68.8327 549.453 69.8759 549.632 70.8891C549.289 70.8257 548.945 70.7605 548.6 70.6935H455.016L453.929 70.623C454.207 69.3719 454.355 68.0696 454.355 66.7339C454.355 56.9098 446.39 48.9447 436.568 48.9447C426.742 48.9447 418.78 56.9098 418.78 66.7339C418.78 67.2819 418.805 67.8229 418.854 68.3569L397.978 66.8255L396.238 47.8769C396.238 47.8769 401.072 37.2421 412.866 33.7618C424.662 30.2815 444.577 26.6074 444.577 26.6074C444.577 26.6074 477.64 3.01896 510.316 1.08409C542.994 -0.850773 580.116 6.88516 580.116 6.88516L601.965 31.441C601.965 31.441 605.06 43.4291 601.773 54.8375L604.577 57.1565C604.572 57.1565 605.733 65.6643 602.735 69.9182Z" fill="#307BBD"/>
<path fill-rule="evenodd" clip-rule="evenodd" d="M454.351 66.7334C454.351 56.9092 446.386 48.9442 436.563 48.9442C426.737 48.9442 418.776 56.9092 418.776 66.7334C418.776 67.2814 418.801 67.8224 418.85 68.3563L397.973 66.825L396.234 47.8763C396.234 47.8763 398.285 43.3616 402.978 39.254C521.835 44.5705 581.011 40.6461 603.055 38.3711C603.463 42.8471 603.475 48.9195 601.769 54.8369L604.573 57.1559C604.573 57.1559 605.734 65.6637 602.735 69.9176C602.735 69.9176 595.536 71.8437 584.243 72.6913C584.692 71.1265 584.935 69.4753 584.935 67.7678C584.935 57.9419 576.97 49.9786 567.146 49.9786C557.322 49.9786 549.358 57.9436 549.358 67.7678C549.358 68.8321 549.452 69.8753 549.632 70.8886L548.599 70.693H455.015L453.928 70.6225C454.203 69.3696 454.351 68.0691 454.351 66.7334Z" fill="#28679D"/>
<path fill-rule="evenodd" clip-rule="evenodd" d="M523.171 5.04882C523.171 5.04882 481.406 1.56852 452.016 31.9255C452.016 31.9255 489.237 32.3132 519.206 29.6047L523.171 5.04882Z" fill="#49A9C9"/>
<path fill-rule="evenodd" clip-rule="evenodd" d="M528.585 5.43457L525.395 29.1199C525.395 29.1199 534.58 31.15 558.071 28.5402C558.071 28.5402 568.512 23.0299 567.74 12.589C567.74 12.589 558.36 6.20817 528.585 5.43457Z" fill="#49A9C9"/>
<path fill-rule="evenodd" clip-rule="evenodd" d="M582.879 39.9949L582.435 32.8915C593.841 23.996 601.963 31.4412 601.963 31.4412C601.963 31.4412 602.681 34.2184 603.058 38.3701C598.206 38.8706 591.561 39.4521 582.879 39.9949Z" fill="#F4FDFA"/>
<path fill-rule="evenodd" clip-rule="evenodd" d="M549.466 39.9067C545.394 39.9067 542.071 38.9623 542.071 37.8045C542.071 36.6468 545.394 35.7021 549.466 35.7021C553.539 35.7021 556.862 36.6468 556.862 37.8045C556.862 38.9623 553.541 39.9067 549.466 39.9067Z" fill="#3786CB"/>
<path fill-rule="evenodd" clip-rule="evenodd" d="M502.964 40.1672C498.891 40.1672 495.569 39.2227 495.569 38.0632C495.569 36.9037 498.891 35.9609 502.964 35.9609C507.038 35.9609 510.359 36.9055 510.359 38.0632C510.359 39.221 507.038 40.1672 502.964 40.1672Z" fill="#3786CB"/>
<path fill-rule="evenodd" clip-rule="evenodd" d="M549.466 39.9059C545.382 39.9059 542.071 38.965 542.071 37.8037H556.862C556.862 38.965 553.551 39.9059 549.466 39.9059Z" fill="#28679D"/>
<path fill-rule="evenodd" clip-rule="evenodd" d="M502.964 40.1675C498.881 40.1675 495.57 39.2247 495.57 38.0635H510.361C510.36 39.2265 507.048 40.1675 502.964 40.1675Z" fill="#28679D"/>
<path fill-rule="evenodd" clip-rule="evenodd" d="M566.704 86.1619C557.839 86.1619 550.607 78.9299 550.607 70.0644C550.607 61.1989 557.839 53.9688 566.704 53.9688C575.57 53.9688 582.8 61.2007 582.8 70.0644C582.8 78.9317 575.57 86.1619 566.704 86.1619Z" fill="#1A1A1A"/>
<path fill-rule="evenodd" clip-rule="evenodd" d="M436.74 85.534C427.875 85.534 420.643 78.3038 420.643 69.4365C420.643 60.571 427.875 53.3408 436.74 53.3408C445.606 53.3408 452.836 60.5727 452.836 69.4365C452.836 78.3038 445.607 85.534 436.74 85.534Z" fill="#1A1A1A"/>
<path fill-rule="evenodd" clip-rule="evenodd" d="M566.704 79.7619C561.363 79.7619 557.007 75.4058 557.007 70.0646C557.007 64.7252 561.363 60.3691 566.704 60.3691C572.043 60.3691 576.399 64.7252 576.399 70.0646C576.399 75.4058 572.043 79.7619 566.704 79.7619Z" fill="#BBB9BC"/>
<path fill-rule="evenodd" clip-rule="evenodd" d="M436.74 79.1339C431.399 79.1339 427.045 74.7778 427.045 69.4367C427.045 64.0973 431.399 59.7412 436.74 59.7412C442.079 59.7412 446.436 64.0973 446.436 69.4367C446.437 74.7796 442.079 79.1339 436.74 79.1339Z" fill="#BBB9BC"/>
<path fill-rule="evenodd" clip-rule="evenodd" d="M562.228 67.2999C561.574 67.2999 561.044 67.8303 561.044 68.4841C561.044 69.1379 561.574 69.6683 562.228 69.6683C562.882 69.6683 563.414 69.1379 563.414 68.4841C563.414 67.8303 562.882 67.2999 562.228 67.2999ZM566.704 67.2206C565.192 67.2206 563.967 68.4453 563.967 69.9555C563.967 71.4657 565.192 72.6922 566.704 72.6922C568.216 72.6922 569.439 71.4675 569.439 69.9555C569.439 68.4453 568.214 67.2206 566.704 67.2206ZM566.704 64.0469C566.05 64.0469 565.52 64.5774 565.52 65.2311C565.52 65.8849 566.05 66.4153 566.704 66.4153C567.358 66.4153 567.888 65.8849 567.888 65.2311C567.888 64.5774 567.358 64.0469 566.704 64.0469ZM571.178 67.2999C570.524 67.2999 569.994 67.8303 569.994 68.4841C569.994 69.1379 570.524 69.6683 571.178 69.6683C571.832 69.6683 572.362 69.1379 572.362 68.4841C572.362 67.8303 571.834 67.2999 571.178 67.2999ZM569.471 72.56C570.124 72.56 570.655 73.0904 570.655 73.7442C570.655 74.398 570.124 74.9284 569.471 74.9284C568.817 74.9284 568.285 74.398 568.285 73.7442C568.285 73.0904 568.817 72.56 569.471 72.56ZM563.937 72.56C564.591 72.56 565.123 73.0904 565.123 73.7442C565.123 74.398 564.593 74.9284 563.937 74.9284C563.284 74.9284 562.753 74.398 562.753 73.7442C562.753 73.0904 563.284 72.56 563.937 72.56Z" fill="#394241"/>
<path fill-rule="evenodd" clip-rule="evenodd" d="M432.264 66.6721C431.611 66.6721 431.08 67.2025 431.08 67.8563C431.08 68.5101 431.609 69.0405 432.264 69.0405C432.918 69.0405 433.449 68.5101 433.449 67.8563C433.449 67.2025 432.918 66.6721 432.264 66.6721ZM436.74 66.5928C435.228 66.5928 434.004 67.8175 434.004 69.3277C434.004 70.8397 435.228 72.0644 436.74 72.0644C438.25 72.0644 439.477 70.8397 439.477 69.3277C439.477 67.8175 438.252 66.5928 436.74 66.5928ZM436.74 63.4209C436.087 63.4209 435.554 63.9513 435.554 64.6051C435.554 65.2589 436.085 65.7893 436.74 65.7893C437.394 65.7893 437.924 65.2589 437.924 64.6051C437.924 63.9496 437.394 63.4209 436.74 63.4209ZM441.216 66.6721C440.562 66.6721 440.03 67.2025 440.03 67.8563C440.03 68.5101 440.561 69.0405 441.216 69.0405C441.87 69.0405 442.4 68.5101 442.4 67.8563C442.4 67.2025 441.87 66.6721 441.216 66.6721ZM439.505 71.934C440.159 71.934 440.691 72.4644 440.691 73.1181C440.691 73.7719 440.161 74.3023 439.505 74.3023C438.853 74.3023 438.321 73.7719 438.321 73.1181C438.323 72.4644 438.853 71.934 439.505 71.934ZM433.975 71.934C434.629 71.934 435.16 72.4644 435.16 73.1181C435.16 73.7719 434.629 74.3023 433.975 74.3023C433.32 74.3023 432.789 73.7719 432.789 73.1181C432.789 72.4644 433.32 71.934 433.975 71.934Z" fill="#394241"/>
<path fill-rule="evenodd" clip-rule="evenodd" d="M581.262 76.9382C582.247 74.8535 582.8 72.5239 582.8 70.0639C582.8 61.1755 575.593 53.9682 566.703 53.9682C557.812 53.9682 550.605 61.1755 550.605 70.0639C550.605 73.0262 551.405 75.8016 552.801 78.1841C547.34 78.3092 541.844 78.3585 536.606 78.2827C521.434 78.066 482.456 77.303 451.121 76.6739C452.219 74.4976 452.838 72.0393 452.838 69.4366C452.838 60.5464 445.631 53.3409 436.74 53.3409C427.85 53.3409 420.643 60.5482 420.643 69.4366C420.643 71.8085 421.156 74.0588 422.077 76.0853C412.641 75.8932 406.672 75.7699 406.672 75.7699L400.901 67.0383L418.849 68.3564C418.8 67.8225 418.775 67.2797 418.775 66.7334C418.775 56.9093 426.738 48.9443 436.562 48.9443C446.387 48.9443 454.35 56.9093 454.35 66.7334C454.35 68.0692 454.2 69.3696 453.923 70.6226L455.011 70.6931H548.594L549.627 70.8886C549.447 69.8754 549.354 68.8322 549.354 67.7678C549.354 57.9419 557.319 49.9787 567.141 49.9787C576.965 49.9787 584.931 57.9437 584.931 67.7678C584.931 69.4754 584.689 71.1265 584.238 72.6913C591.251 72.1662 596.686 71.2235 599.8 70.5856L597.703 75.7716C597.703 75.7716 591.04 76.3391 581.262 76.9382Z" fill="#394241"/>
<path fill-rule="evenodd" clip-rule="evenodd" d="M396.232 47.8752C396.232 47.8752 398.285 43.3605 402.976 39.2529C409.997 39.5666 416.811 39.8485 423.421 40.1005C421.023 43.7799 414.275 49.8295 396.232 47.8752Z" fill="#F7F9F8"/>
<path fill-rule="evenodd" clip-rule="evenodd" d="M406.867 54.7617L396.911 53.9229C396.011 53.8472 395.267 54.6631 395.267 55.567V62.7197C395.267 63.6237 396.007 64.3638 396.911 64.3638H406.867C407.77 64.3638 408.51 63.6237 408.51 62.7197V56.4058C408.51 55.5018 407.768 54.8375 406.867 54.7617Z" fill="#394241"/>
<path fill-rule="evenodd" clip-rule="evenodd" d="M561.011 24.7415L543.585 7.31526C548.225 7.82277 552.015 8.48535 555.069 9.17964L565.006 19.1166C564.019 21.4726 562.474 23.3529 561.011 24.7415ZM528.196 20.3431L536.716 28.8632C541.12 28.8967 547.169 28.6764 555.136 27.857L533.854 6.57515C532.635 6.51876 531.373 6.47293 530.069 6.43945L528.196 20.3431ZM557.067 27.6526C557.087 27.6491 557.108 27.6473 557.127 27.6455C557.127 27.6455 558.343 27.0041 559.876 25.7459L541.209 7.07738C539.604 6.93112 537.907 6.8007 536.111 6.69497L557.067 27.6526Z" fill="#61B6D4"/>
<path fill-rule="evenodd" clip-rule="evenodd" d="M516.359 28.4167L496.343 8.40016C499.155 7.72525 501.841 7.21774 504.338 6.83887L519.098 21.5989L518.019 28.2705C517.471 28.3198 516.916 28.3691 516.359 28.4167ZM489.634 29.9269C495.574 29.7243 501.853 29.4388 508.045 29.037L489.373 10.3632C484.968 11.7959 480.383 13.6656 475.804 16.0991L489.634 29.9269ZM510.037 28.9031C511.499 28.8026 512.955 28.6934 514.396 28.5789L494.642 8.82484C493.442 9.13675 492.224 9.47862 490.987 9.85573L510.037 28.9031Z" fill="#61B6D4"/>
<path fill-rule="evenodd" clip-rule="evenodd" d="M470.02 25.6943C465.28 25.6943 461.439 27.6204 461.439 29.9958C461.439 32.3712 465.28 34.2972 470.02 34.2972C474.759 34.2972 477.101 33.7351 477.004 30.0539C476.907 26.3727 474.759 25.6943 470.02 25.6943Z" fill="#307BBD"/>
<path fill-rule="evenodd" clip-rule="evenodd" d="M470.02 34.297C465.321 34.297 461.504 32.4027 461.44 30.0537H477.004C477.101 33.7349 474.759 34.297 470.02 34.297Z" fill="#28679D"/>
<path fill-rule="evenodd" clip-rule="evenodd" d="M423.421 40.1015C504.087 43.1748 554.42 41.7791 582.877 39.9958C591.559 39.4513 598.204 38.8715 603.054 38.3711C603.091 38.7746 603.124 39.1905 603.154 39.6204C595.152 41.5729 570.318 46.1775 510.547 47.4692C474.752 48.2428 444.165 45.4074 421.745 42.1721C422.461 41.4461 423.005 40.7377 423.421 40.1015Z" fill="#215784"/>
<path fill-rule="evenodd" clip-rule="evenodd" d="M501.471 66.8233C518.66 66.8233 534.96 66.1678 549.57 64.9941C549.429 65.8964 549.355 66.8233 549.355 67.7643C549.355 68.8287 549.45 69.8719 549.63 70.8851L548.597 70.6895H455.013L453.926 70.619C454.205 69.3679 454.353 68.0656 454.353 66.7299C454.353 66.1695 454.328 65.6127 454.275 65.0646C468.654 66.196 484.636 66.8233 501.471 66.8233Z" fill="#215784"/>
<path fill-rule="evenodd" clip-rule="evenodd" d="M413.565 39.709C416.899 39.8464 420.184 39.9768 423.421 40.1002C423.005 40.7363 422.459 41.4447 421.747 42.1708C419.502 44.4581 415.602 46.9145 408.918 47.8555C410.411 44.2378 412.055 41.6051 413.565 39.709Z" fill="#FFBB63"/>
<path fill-rule="evenodd" clip-rule="evenodd" d="M408.819 42.6602C409.701 42.6602 410.551 42.7571 411.353 42.9368C410.528 44.329 409.701 45.9572 408.917 47.8569C406.408 48.2093 403.504 48.3503 400.149 48.1864C400.79 45.0585 404.427 42.6602 408.819 42.6602Z" fill="#9E9FA3"/>
<path fill-rule="evenodd" clip-rule="evenodd" d="M567.039 47.082C575.187 47.082 582.201 51.942 585.341 58.922L583.239 60.1802C580.391 54.1518 574.255 49.9807 567.145 49.9807C559.391 49.9807 552.795 54.9413 550.362 61.8631L548.043 60.6983C550.723 52.7791 558.216 47.082 567.039 47.082Z" fill="#215784"/>
<path fill-rule="evenodd" clip-rule="evenodd" d="M436.458 46.0479C444.608 46.0479 451.621 50.908 454.76 57.888L452.658 59.146C449.81 53.1176 443.674 48.9467 436.564 48.9467C428.81 48.9467 422.214 53.9071 419.779 60.8289L417.46 59.6642C420.142 51.745 427.635 46.0479 436.458 46.0479Z" fill="#215784"/>
<path fill-rule="evenodd" clip-rule="evenodd" d="M525.087 5.30566L521.47 29.6149C521.399 30.0114 516.965 54.9004 515.036 66.9624L516.347 66.7704C518.257 54.8387 522.698 29.8951 522.71 29.8228L526.469 5.40257L525.087 5.30566Z" fill="#215784"/>
<path fill-rule="evenodd" clip-rule="evenodd" d="M569.788 13.8389L565.01 40.9095C556.883 42.5642 551.569 45.2022 547.917 49.4948C544.208 53.8562 542.264 59.6308 541.284 65.7544L542.617 65.6452C543.563 59.7331 545.337 54.4677 548.876 50.3054C552.409 46.1502 557.6 43.7713 565.655 42.2029L566.082 42.1201L570.919 14.6707L569.788 13.8389Z" fill="#215784"/>
<path fill-rule="evenodd" clip-rule="evenodd" d="M452.015 31.9258L452.841 41.4556L453.079 41.6107C458.616 45.209 462.605 49.6233 465.263 54.3354C468.26 59.6483 469.564 65.3472 469.488 70.6848L470.743 70.6989C470.82 65.1551 469.465 59.2377 466.355 53.7204C463.64 48.9079 459.925 44.7949 454.332 41.1085L453.433 31.9346L452.015 31.9258Z" fill="#215784"/>
<path fill-rule="evenodd" clip-rule="evenodd" d="M582.8 70.0644C582.8 72.5244 582.248 74.854 581.263 76.9387C578.683 82.3909 573.134 86.1619 566.704 86.1619C562.258 86.1619 558.235 84.361 555.32 81.4463L559.847 76.9211C561.601 78.6762 564.026 79.7617 566.704 79.7617C572.059 79.7617 576.4 75.4197 576.4 70.0644C576.4 67.3877 575.314 64.963 573.559 63.2078L578.084 58.6826C580.999 61.5954 582.8 65.6202 582.8 70.0644Z" fill="black"/>
<path fill-rule="evenodd" clip-rule="evenodd" d="M452.836 69.4385C452.836 72.0412 452.219 74.4994 451.121 76.6757C448.471 81.9305 443.026 85.5359 436.74 85.5359C432.294 85.5359 428.271 83.735 425.357 80.8221L429.884 76.2968C431.639 78.052 434.062 79.1357 436.74 79.1357C442.094 79.1357 446.436 74.7937 446.436 69.4402C446.436 66.7617 445.35 64.3387 443.595 62.5836L448.12 58.0566C451.035 60.9694 452.836 64.9925 452.836 69.4385Z" fill="black"/>
<path fill-rule="evenodd" clip-rule="evenodd" d="M481.346 25.1495C482.225 25.6041 482.951 26.198 483.541 26.9046L487.201 26.1328L485.892 21.6445C485.76 21.1916 486.022 20.7141 486.475 20.5819L487.009 20.4268C487.462 20.2947 487.94 20.5572 488.07 21.0101L491.078 31.3153C490.294 31.3453 489.515 31.3735 488.741 31.3999L487.661 27.7028L484.507 28.3672C484.993 29.3082 485.325 30.3673 485.531 31.5056C482.517 31.599 479.599 31.673 476.826 31.7312C476.961 31.2607 477.021 30.7074 477.004 30.0554C476.907 26.3742 474.759 25.694 470.018 25.694C465.28 25.694 461.438 27.62 461.438 29.9954C461.438 30.0148 461.438 30.036 461.44 30.0554C461.458 30.7285 461.784 31.3629 462.349 31.9286C458.229 31.9532 455.117 31.9444 453.433 31.9356C452.511 31.9303 452.014 31.925 452.014 31.925C455.105 28.7337 458.33 25.9178 461.629 23.4313C467.282 22.5732 475.476 22.1185 481.346 25.1495Z" fill="#375561"/>
<path fill-rule="evenodd" clip-rule="evenodd" d="M511.404 22.685L510.741 30.28C507.957 30.4756 505.148 30.6465 502.348 30.7998L503.12 21.9625C503.187 21.1783 503.886 20.5915 504.67 20.6603L506.47 20.8171L506.7 18.1809L506.052 18.0981C505.351 18.0082 504.788 17.4055 504.882 16.7042L505.615 11.3119C505.71 10.6123 506.302 10.0819 507.007 10.1436L509.624 10.3727C510.327 10.4326 510.813 11.0582 510.794 11.7648L510.648 17.1923C510.628 17.8989 509.96 18.38 509.256 18.3606L508.537 18.3395L508.308 20.9757L510.105 21.1325C510.887 21.2013 511.472 21.8991 511.404 22.685Z" fill="#375561"/>
<path fill-rule="evenodd" clip-rule="evenodd" d="M866.816 154.682H838.191C832.443 145.884 818.571 126.655 807.131 126.403C792.293 126.084 731.646 126.191 731.646 126.191C731.646 126.191 715.362 127.71 701.233 154.682H641.652V170.958C644.413 172.822 646.237 175.983 646.237 179.548V197.161C647.548 197.907 649.065 198.333 650.674 198.333H657.176C657.212 194.793 657.24 190.546 657.24 185.973C657.24 173.615 670.682 172.748 684.014 175.541C694.339 177.71 700.928 192 703.37 198.333H788.742L790.27 198.234C792.089 195.033 794.693 190.636 796.917 187.614C800.789 182.347 825.408 183.527 832.827 186.433C838 188.458 839.671 192.622 840.21 194.962L866.816 193.216C871.76 192.891 875.838 189.156 875.838 184.193V163.701C875.838 158.742 871.778 154.682 866.816 154.682Z" fill="#77B72C"/>
<path fill-rule="evenodd" clip-rule="evenodd" d="M808.85 137.697C808.85 137.697 801.356 131.458 796.73 131.458V154.68H813.795C813.795 154.68 825.408 153.502 808.85 137.697ZM792.103 131.458H760.679V154.68H792.103V131.458ZM756.054 131.458L736.272 131.351C736.272 131.351 724.639 134.204 718.317 145.327C713.636 153.554 720.666 154.682 723.908 154.682H756.054V131.458Z" fill="#1A5575"/>
<path fill-rule="evenodd" clip-rule="evenodd" d="M866.815 154.682C870.399 154.682 873.515 156.797 874.967 159.847H641.653V154.682H701.234C719.522 154.682 737.755 154.682 756.055 154.682H760.681H792.104H796.73H813.795H838.19H866.815Z" fill="#A2EA73"/>
<path fill-rule="evenodd" clip-rule="evenodd" d="M832.826 186.433C838 188.458 839.671 192.622 840.21 194.962L790.272 198.236C792.09 195.034 794.695 190.638 796.919 187.615C800.788 182.347 825.408 183.527 832.826 186.433Z" fill="#10110C"/>
<path fill-rule="evenodd" clip-rule="evenodd" d="M814.239 214.875C804.822 214.875 797.142 207.195 797.142 197.778C797.142 188.361 804.822 180.681 814.239 180.681C823.656 180.681 831.332 188.361 831.332 197.778C831.332 207.195 823.656 214.875 814.239 214.875Z" fill="#2D2A33"/>
<path fill-rule="evenodd" clip-rule="evenodd" d="M814.239 209.229C807.929 209.229 802.783 204.081 802.783 197.776C802.783 191.466 807.93 186.32 814.239 186.32C820.548 186.32 825.691 191.468 825.691 197.776C825.691 204.083 820.548 209.229 814.239 209.229Z" fill="#605C5D"/>
<path fill-rule="evenodd" clip-rule="evenodd" d="M814.238 205.748C809.845 205.748 806.266 202.169 806.266 197.776C806.266 193.383 809.845 189.804 814.238 189.804C818.626 189.804 822.21 193.383 822.21 197.776C822.21 202.169 818.626 205.748 814.238 205.748Z" fill="#E3E2DD"/>
<path fill-rule="evenodd" clip-rule="evenodd" d="M831.86 179.095C842.297 180.421 844.722 189.644 845.265 194.629L840.207 194.962C839.668 192.622 837.997 188.46 832.824 186.433C825.405 183.527 800.786 182.347 796.914 187.614C794.69 190.636 792.086 195.033 790.267 198.234L788.739 198.333H786.413C786.396 187.712 792.683 182.11 796.051 180.382C799.816 178.449 817.454 177.266 831.86 179.095Z" fill="#A2EA73"/>
<path fill-rule="evenodd" clip-rule="evenodd" d="M845.265 194.629L840.207 194.962C839.668 192.622 837.997 188.46 832.824 186.433C826.334 183.89 806.682 182.669 799.267 185.931C800.453 184.881 802.375 184.098 804.745 183.555C809.6 182.442 816.34 182.306 822.485 182.801C828.009 183.251 833.053 184.207 835.811 185.425C840.778 187.616 842.637 191.956 843.328 194.758L845.265 194.629Z" fill="#8ACC5E"/>
<path fill-rule="evenodd" clip-rule="evenodd" d="M693.261 174.041C701.906 178.69 707.52 192.113 709.725 198.333H703.37C700.926 192 694.339 177.71 684.014 175.541C670.68 172.748 657.24 173.615 657.24 185.973C657.24 190.544 657.214 194.793 657.177 198.333H651.321C651.025 195.944 650.819 193.261 650.79 190.384C650.683 179.309 652.833 174.9 658.748 171.351C664.657 167.805 681.863 167.913 693.261 174.041Z" fill="#A2EA73"/>
<path fill-rule="evenodd" clip-rule="evenodd" d="M652.785 198.335H645.663C643.247 198.335 641.275 196.363 641.275 193.947V188.001C641.275 185.585 643.247 183.614 645.663 183.614H652.785C655.201 183.614 657.177 185.585 657.177 188.001V193.947C657.177 196.363 655.201 198.335 652.785 198.335Z" fill="#E2DDD9"/>
<path fill-rule="evenodd" clip-rule="evenodd" d="M875.077 187.753C873.676 190.856 870.483 192.972 866.814 193.214L845.266 194.629C845.06 192.729 844.579 190.215 843.483 187.753H875.077ZM788.923 187.753C787.455 190.497 786.408 193.995 786.417 198.333H709.725C708.791 195.697 707.242 191.762 705.108 187.753H788.923Z" fill="#5BB229"/>
<path fill-rule="evenodd" clip-rule="evenodd" d="M796.728 159.845V177.472L760.679 169.587V159.845H796.728ZM756.053 159.845V177.472L716.727 169.587V159.845H756.053Z" fill="#48A024"/>
<path fill-rule="evenodd" clip-rule="evenodd" d="M788.182 165.549C784.836 165.549 782.106 164.485 782.106 163.183C782.106 161.881 784.836 160.82 788.182 160.82C791.529 160.82 794.255 161.881 794.255 163.183C794.255 164.485 791.529 165.549 788.182 165.549Z" fill="#4B8E20"/>
<path fill-rule="evenodd" clip-rule="evenodd" d="M746.582 165.779C743.232 165.779 740.506 164.714 740.506 163.412C740.506 162.11 743.232 161.045 746.582 161.045C749.928 161.045 752.654 162.11 752.654 163.412C752.654 164.714 749.928 165.779 746.582 165.779Z" fill="#4B8E20"/>
<path fill-rule="evenodd" clip-rule="evenodd" d="M795.135 162.136H785.663C785.124 162.136 784.683 162.577 784.683 163.116V163.259C784.683 163.793 785.124 164.233 785.663 164.233H795.135C795.669 164.233 796.109 163.793 796.109 163.259V163.116C796.109 162.577 795.669 162.136 795.135 162.136Z" fill="#E3BFBF"/>
<path fill-rule="evenodd" clip-rule="evenodd" d="M753.535 162.365H744.058C743.524 162.365 743.083 162.801 743.083 163.34V163.488C743.083 164.022 743.524 164.462 744.058 164.462H753.535C754.074 164.462 754.515 164.022 754.515 163.488V163.34C754.513 162.801 754.072 162.365 753.535 162.365Z" fill="#E3BFBF"/>
<path fill-rule="evenodd" clip-rule="evenodd" d="M657.176 193.947C657.176 196.363 655.201 198.335 652.785 198.335H651.32H645.662C643.25 198.335 641.274 196.363 641.274 193.947V193.602C642.074 194.432 643.192 194.948 644.432 194.948H646.238H650.986H654.022C655.257 194.948 656.38 194.432 657.18 193.602V193.947H657.176Z" fill="#B2AEAB"/>
<path fill-rule="evenodd" clip-rule="evenodd" d="M881.015 192.594H873.892C871.476 192.594 869.504 190.618 869.504 188.206V182.255C869.504 179.844 871.476 177.867 873.892 177.867H881.015C883.43 177.867 885.402 179.843 885.402 182.255V188.206C885.402 190.618 883.43 192.594 881.015 192.594Z" fill="#E2DDD9"/>
<path fill-rule="evenodd" clip-rule="evenodd" d="M885.402 188.202C885.402 190.618 883.43 192.595 881.015 192.595H879.55H873.892C871.476 192.595 869.504 190.62 869.504 188.202V187.86C870.299 188.687 871.421 189.203 872.657 189.203H874.466H879.214H882.25C883.485 189.203 884.604 188.687 885.402 187.86V188.202Z" fill="#B2AEAB"/>
<path fill-rule="evenodd" clip-rule="evenodd" d="M738.081 131.36L751.545 154.68H742.23L730.212 133.86C733.649 131.992 736.271 131.349 736.271 131.349L738.081 131.36ZM807.089 136.336L816.843 153.232C815.77 154.39 814.09 154.642 813.829 154.677L801.135 132.685C803.38 133.737 805.611 135.249 807.089 136.336ZM797.348 131.49C797.136 131.473 796.93 131.458 796.728 131.458V146.548L801.424 154.682H810.733L797.348 131.49ZM780.78 131.458L792.102 151.07V154.68H790.336L776.931 131.458H780.78ZM773.833 131.458H764.524L777.929 154.68H787.244L773.833 131.458ZM745.046 131.4L741.189 131.377L754.64 154.68H756.055V150.464L745.046 131.4Z" fill="#2F6580"/>
<path fill-rule="evenodd" clip-rule="evenodd" d="M684.014 175.543C694.339 177.712 700.928 192.002 703.37 198.335H657.176C657.212 194.795 657.24 190.548 657.24 185.975C657.24 173.617 670.682 172.75 684.014 175.543Z" fill="#10110C"/>
<path fill-rule="evenodd" clip-rule="evenodd" d="M677.543 214.875C668.126 214.875 660.446 207.195 660.446 197.778C660.446 188.361 668.126 180.681 677.543 180.681C686.96 180.681 694.64 188.361 694.64 197.778C694.64 207.195 686.96 214.875 677.543 214.875Z" fill="#2D2A33"/>
<path fill-rule="evenodd" clip-rule="evenodd" d="M677.543 209.229C671.233 209.229 666.087 204.081 666.087 197.776C666.087 191.466 671.235 186.32 677.543 186.32C683.852 186.32 688.999 191.468 688.999 197.776C688.999 204.083 683.852 209.229 677.543 209.229Z" fill="#605C5D"/>
<path fill-rule="evenodd" clip-rule="evenodd" d="M677.544 205.748C673.15 205.748 669.571 202.169 669.571 197.776C669.571 193.383 673.15 189.804 677.544 189.804C681.931 189.804 685.516 193.383 685.516 197.776C685.516 202.169 681.931 205.748 677.544 205.748Z" fill="#E3E2DD"/>
<path fill-rule="evenodd" clip-rule="evenodd" d="M880.573 165.343V177.869H875.835V163.699C875.835 163.268 875.803 162.838 875.74 162.42H877.648C879.262 162.42 880.573 163.734 880.573 165.343Z" fill="#5BB229"/>
<path d="M641.65 154.682H644.017V170.958H641.65V154.682Z" fill="#B2B2B2"/>
<path fill-rule="evenodd" clip-rule="evenodd" d="M641.65 154.682V159.847V170.958C639.423 170.958 637.622 167.315 637.622 162.82C637.622 158.325 639.423 154.682 641.65 154.682Z" fill="#F8CB65"/>
<path fill-rule="evenodd" clip-rule="evenodd" d="M807.13 126.403C810.349 126.475 813.763 128.05 817.132 130.472C815.763 130.072 814.406 129.843 813.077 129.821C796.416 129.497 728.32 129.606 728.32 129.606C728.32 129.606 723.698 129.989 717.093 133.792C725.303 126.782 731.649 126.193 731.649 126.193C731.649 126.193 792.29 126.084 807.13 126.403Z" fill="#A2EA73"/>
<path fill-rule="evenodd" clip-rule="evenodd" d="M686.826 175.115C696.953 177.316 703.482 191.593 706.039 198.333H703.371C700.927 192 694.34 177.71 684.015 175.541C678.887 174.468 673.745 173.934 669.352 174.387C674.26 173.229 680.556 173.754 686.826 175.115Z" fill="#8ACC5E"/>
<path fill-rule="evenodd" clip-rule="evenodd" d="M881.157 177.869H880C879.326 177.869 878.778 177.321 878.778 176.651V172.237C878.778 171.564 879.326 171.016 880 171.016H881.157C881.827 171.016 882.375 171.564 882.375 172.237V176.651C882.375 177.321 881.827 177.869 881.157 177.869Z" fill="#901016"/>
<path fill-rule="evenodd" clip-rule="evenodd" d="M814.238 200.212C812.896 200.212 811.799 199.115 811.799 197.778C811.799 196.435 812.896 195.344 814.238 195.344C815.576 195.344 816.672 196.435 816.672 197.778C816.672 199.115 815.576 200.212 814.238 200.212Z" fill="#2D2A33"/>
<path fill-rule="evenodd" clip-rule="evenodd" d="M677.543 200.102C676.2 200.102 675.104 199.011 675.104 197.669C675.104 196.331 676.2 195.235 677.543 195.235C678.886 195.235 679.977 196.331 679.977 197.669C679.977 199.011 678.886 200.102 677.543 200.102Z" fill="#2D2A33"/>
<path fill-rule="evenodd" clip-rule="evenodd" d="M809.181 195.038C808.508 195.038 807.963 195.586 807.963 196.259C807.963 196.932 808.508 197.48 809.181 197.48C809.859 197.48 810.402 196.932 810.402 196.259C810.404 195.586 809.859 195.038 809.181 195.038ZM814.238 191.369C813.565 191.369 813.017 191.912 813.017 192.587C813.017 193.265 813.565 193.808 814.238 193.808C814.912 193.808 815.456 193.263 815.456 192.587C815.456 191.912 814.912 191.369 814.238 191.369ZM819.291 195.038C818.617 195.038 818.069 195.586 818.069 196.259C818.069 196.932 818.617 197.48 819.291 197.48C819.964 197.48 820.512 196.932 820.512 196.259C820.512 195.586 819.964 195.038 819.291 195.038ZM817.359 200.983C816.686 200.983 816.138 201.528 816.138 202.201C816.138 202.874 816.686 203.422 817.359 203.422C818.032 203.422 818.58 202.874 818.58 202.201C818.58 201.528 818.034 200.983 817.359 200.983ZM811.112 200.983C810.439 200.983 809.895 201.528 809.895 202.201C809.895 202.874 810.437 203.422 811.112 203.422C811.785 203.422 812.333 202.874 812.333 202.201C812.333 201.528 811.787 200.983 811.112 200.983Z" fill="#B2AEAB"/>
<path fill-rule="evenodd" clip-rule="evenodd" d="M672.492 194.934C671.819 194.934 671.271 195.482 671.271 196.155C671.271 196.828 671.819 197.373 672.492 197.373C673.165 197.373 673.71 196.83 673.71 196.155C673.708 195.482 673.165 194.934 672.492 194.934ZM677.544 191.261C676.871 191.261 676.323 191.809 676.323 192.483C676.323 193.156 676.871 193.704 677.544 193.704C678.217 193.704 678.765 193.156 678.765 192.483C678.765 191.809 678.217 191.261 677.544 191.261ZM682.596 194.934C681.923 194.934 681.375 195.482 681.375 196.155C681.375 196.828 681.923 197.373 682.596 197.373C683.269 197.373 683.817 196.83 683.817 196.155C683.817 195.482 683.269 194.934 682.596 194.934ZM680.665 200.876C679.992 200.876 679.447 201.424 679.447 202.097C679.447 202.77 679.992 203.315 680.665 203.315C681.338 203.315 681.886 202.772 681.886 202.097C681.886 201.424 681.338 200.876 680.665 200.876ZM674.423 200.876C673.75 200.876 673.202 201.424 673.202 202.097C673.202 202.77 673.75 203.315 674.423 203.315C675.096 203.315 675.641 202.772 675.641 202.097C675.639 201.424 675.096 200.876 674.423 200.876Z" fill="#B2AEAB"/>
<path d="M641.65 163.606H644.017V170.958H641.65V163.606Z" fill="#A29D98"/>
<path fill-rule="evenodd" clip-rule="evenodd" d="M786.798 193.924C786.551 195.29 786.412 196.752 786.415 198.335H709.724C709.289 197.108 708.718 195.595 708.022 193.924H786.798Z" fill="#4B8E20"/>
<path fill-rule="evenodd" clip-rule="evenodd" d="M846.825 166.062H840.21C839.51 166.062 838.943 166.633 838.943 167.329V172.404C838.943 173.1 839.508 173.671 840.21 173.671H846.825C847.526 173.671 848.092 173.1 848.092 172.404V167.329C848.092 166.631 847.526 166.062 846.825 166.062Z" fill="#5BB229"/>
<path fill-rule="evenodd" clip-rule="evenodd" d="M843.519 172.255C842.202 172.255 841.126 171.181 841.126 169.865C841.126 168.545 842.204 167.472 843.519 167.472C844.835 167.472 845.908 168.545 845.908 169.865C845.908 171.181 844.835 172.255 843.519 172.255Z" fill="#4B8E20"/>
<path fill-rule="evenodd" clip-rule="evenodd" d="M856.255 166.062H849.64C848.939 166.062 848.373 166.633 848.373 167.329V172.404C848.373 173.1 848.939 173.671 849.64 173.671H856.255C856.951 173.671 857.522 173.1 857.522 172.404V167.329C857.522 166.631 856.951 166.062 856.255 166.062Z" fill="#5BB229"/>
<path fill-rule="evenodd" clip-rule="evenodd" d="M576.329 18.0337V212.973H554.67V18.0337H477.995C450.247 18.0337 441.311 38.6916 440.166 57.3214V212.973H418.505V57.3214C418.697 37.7172 435.5 4.4209 468.116 4.4209C495.733 4.4209 554.173 4.4209 571.434 4.4209C575.12 4.4209 576.211 6.89321 576.331 9.00606V18.0337H576.329Z" fill="#622996"/>
<path fill-rule="evenodd" clip-rule="evenodd" d="M838.55 69.1444C838.55 69.1444 831.352 71.0722 820.058 71.9181C820.507 70.355 820.749 68.7021 820.749 66.9928C820.749 57.1686 812.784 49.2036 802.961 49.2036C793.135 49.2036 785.172 57.1686 785.172 66.9928C785.172 68.0571 785.267 69.1003 785.447 70.1136C785.103 70.0501 784.76 69.985 784.414 69.918H690.83L689.743 69.8475C690.022 68.5963 690.17 67.2959 690.17 65.9584C690.17 56.1342 682.205 48.171 672.38 48.171C662.556 48.171 654.593 56.1342 654.593 65.9584C654.593 66.5064 654.619 67.0474 654.667 67.5831L633.792 66.05L632.053 47.1013C632.053 47.1013 636.887 36.4666 648.681 32.9863C660.477 29.506 680.391 25.8319 680.391 25.8319C680.391 25.8319 713.455 2.24336 746.131 0.310253C778.807 -1.62286 815.933 6.10957 815.933 6.10957L837.782 30.6655C837.782 30.6655 840.874 42.6536 837.588 54.0619L840.392 56.3827C840.388 56.3827 841.548 64.8905 838.55 69.1444Z" fill="#FA6E52"/>
<path fill-rule="evenodd" clip-rule="evenodd" d="M690.167 65.9589C690.167 56.1348 682.202 48.1715 672.377 48.1715C662.553 48.1715 654.59 56.1348 654.59 65.9589C654.59 66.507 654.616 67.048 654.664 67.5837L633.789 66.0506L632.05 47.1019C632.05 47.1019 634.101 42.5872 638.794 38.4778C757.651 43.796 816.827 39.8699 838.871 37.5967C839.277 42.0709 839.289 48.1451 837.583 54.0625L840.387 56.3833C840.387 56.3833 841.546 64.891 838.549 69.1449C838.549 69.1449 831.35 71.0728 820.057 71.9186C820.506 70.3556 820.747 68.7026 820.747 66.9933C820.747 57.1692 812.782 49.2042 802.96 49.2042C793.134 49.2042 785.171 57.1692 785.171 66.9933C785.171 68.0577 785.266 69.1009 785.446 70.1141L784.413 69.9185H690.829L689.742 69.848C690.019 68.5969 690.167 67.2964 690.167 65.9589Z" fill="#E7563F"/>
<path fill-rule="evenodd" clip-rule="evenodd" d="M758.986 4.27539C758.986 4.27539 717.223 0.795099 687.831 31.1503C687.831 31.1503 725.052 31.538 755.021 28.8295L758.986 4.27539Z" fill="#49A9C9"/>
<path fill-rule="evenodd" clip-rule="evenodd" d="M764.398 4.66113L761.207 28.3466C761.207 28.3466 770.392 30.3766 793.885 27.7668C793.885 27.7668 804.326 22.2565 803.554 11.8156C803.554 11.8156 794.176 5.43473 764.398 4.66113Z" fill="#49A9C9"/>
<path fill-rule="evenodd" clip-rule="evenodd" d="M818.694 39.2209L818.249 32.1176C829.657 23.2221 837.779 30.6656 837.779 30.6656C837.779 30.6656 838.496 33.4427 838.873 37.5962C834.022 38.0967 827.377 38.6764 818.694 39.2209Z" fill="#F4FDFA"/>
<path fill-rule="evenodd" clip-rule="evenodd" d="M785.282 39.1322C781.208 39.1322 777.888 38.1877 777.888 37.0299C777.888 35.8722 781.21 34.9277 785.282 34.9277C789.356 34.9277 792.678 35.8722 792.678 37.0299C792.678 38.1894 789.356 39.1322 785.282 39.1322Z" fill="#FB9480"/>
<path fill-rule="evenodd" clip-rule="evenodd" d="M738.779 39.3938C734.707 39.3938 731.385 38.4492 731.385 37.2915C731.385 36.132 734.707 35.1875 738.779 35.1875C742.851 35.1875 746.175 36.132 746.175 37.2915C746.175 38.4492 742.853 39.3938 738.779 39.3938Z" fill="#FB9480"/>
<path fill-rule="evenodd" clip-rule="evenodd" d="M785.282 39.1326C781.197 39.1326 777.886 38.1916 777.886 37.0303H792.678C792.678 38.1916 789.367 39.1326 785.282 39.1326Z" fill="#E7563F"/>
<path fill-rule="evenodd" clip-rule="evenodd" d="M738.779 39.3932C734.694 39.3932 731.385 38.4522 731.385 37.291H746.177C746.175 38.4522 742.864 39.3932 738.779 39.3932Z" fill="#E7563F"/>
<path fill-rule="evenodd" clip-rule="evenodd" d="M802.519 85.3885C793.653 85.3885 786.423 78.1584 786.423 69.2928C786.423 60.4273 793.653 53.1953 802.519 53.1953C811.384 53.1953 818.616 60.4273 818.616 69.2928C818.614 78.1584 811.384 85.3885 802.519 85.3885Z" fill="#1A1A1A"/>
<path fill-rule="evenodd" clip-rule="evenodd" d="M672.557 84.7603C663.691 84.7603 656.459 77.5283 656.459 68.6628C656.459 59.7973 663.691 52.5654 672.557 52.5654C681.422 52.5654 688.652 59.7973 688.652 68.6628C688.652 77.5301 681.422 84.7603 672.557 84.7603Z" fill="#1A1A1A"/>
<path fill-rule="evenodd" clip-rule="evenodd" d="M802.519 78.9875C797.178 78.9875 792.824 74.6331 792.824 69.292C792.824 63.9508 797.18 59.5947 802.519 59.5947C807.859 59.5947 812.215 63.9508 812.215 69.292C812.215 74.6314 807.859 78.9875 802.519 78.9875Z" fill="#BBB9BC"/>
<path fill-rule="evenodd" clip-rule="evenodd" d="M672.556 78.3606C667.216 78.3606 662.86 74.0045 662.86 68.6651C662.86 63.3239 667.216 58.9678 672.556 58.9678C677.897 58.9678 682.253 63.3239 682.253 68.6651C682.253 74.0045 677.897 78.3606 672.556 78.3606Z" fill="#BBB9BC"/>
<path fill-rule="evenodd" clip-rule="evenodd" d="M798.044 66.5237C797.39 66.5237 796.858 67.0542 796.858 67.7079C796.858 68.3617 797.388 68.8921 798.044 68.8921C798.697 68.8921 799.228 68.3617 799.228 67.7079C799.228 67.0559 798.697 66.5237 798.044 66.5237ZM802.52 66.4462C801.009 66.4462 799.783 67.6709 799.783 69.1811C799.783 70.693 801.008 71.9177 802.52 71.9177C804.03 71.9177 805.254 70.693 805.254 69.1811C805.254 67.6709 804.03 66.4462 802.52 66.4462ZM802.52 63.2725C801.866 63.2725 801.334 63.8029 801.334 64.4567C801.334 65.1105 801.864 65.6409 802.52 65.6409C803.173 65.6409 803.704 65.1105 803.704 64.4567C803.704 63.8029 803.175 63.2725 802.52 63.2725ZM806.995 66.5237C806.342 66.5237 805.811 67.0542 805.811 67.7079C805.811 68.3617 806.34 68.8921 806.995 68.8921C807.649 68.8921 808.18 68.3617 808.18 67.7079C808.18 67.0559 807.649 66.5237 806.995 66.5237ZM805.286 71.7873C805.94 71.7873 806.47 72.3178 806.47 72.9715C806.47 73.6253 805.942 74.1557 805.286 74.1557C804.632 74.1557 804.1 73.6253 804.1 72.9715C804.1 72.316 804.632 71.7873 805.286 71.7873ZM799.753 71.7873C800.407 71.7873 800.937 72.3178 800.937 72.9715C800.937 73.6253 800.408 74.1557 799.753 74.1557C799.099 74.1557 798.569 73.6253 798.569 72.9715C798.569 72.316 799.099 71.7873 799.753 71.7873Z" fill="#394241"/>
<path fill-rule="evenodd" clip-rule="evenodd" d="M668.079 65.8987C667.425 65.8987 666.895 66.4291 666.895 67.0829C666.895 67.7366 667.423 68.2671 668.079 68.2671C668.735 68.2671 669.263 67.7366 669.263 67.0829C669.263 66.4291 668.735 65.8987 668.079 65.8987ZM672.557 65.8194C671.045 65.8194 669.82 67.0441 669.82 68.5543C669.82 70.0662 671.045 71.2909 672.557 71.2909C674.067 71.2909 675.292 70.0662 675.292 68.5543C675.292 67.0441 674.065 65.8194 672.557 65.8194ZM672.557 62.6475C671.903 62.6475 671.371 63.1779 671.371 63.8316C671.371 64.4854 671.901 65.0158 672.557 65.0158C673.21 65.0158 673.741 64.4854 673.741 63.8316C673.739 63.1779 673.209 62.6475 672.557 62.6475ZM677.031 65.8987C676.377 65.8987 675.847 66.4291 675.847 67.0829C675.847 67.7366 676.377 68.2671 677.031 68.2671C677.685 68.2671 678.217 67.7366 678.217 67.0829C678.217 66.4291 677.685 65.8987 677.031 65.8987ZM675.322 71.1605C675.975 71.1605 676.506 71.691 676.506 72.3447C676.506 72.9985 675.975 73.5289 675.322 73.5289C674.668 73.5289 674.137 72.9985 674.137 72.3447C674.137 71.691 674.668 71.1605 675.322 71.1605ZM669.788 71.1605C670.442 71.1605 670.974 71.691 670.974 72.3447C670.974 72.9985 670.444 73.5289 669.788 73.5289C669.135 73.5289 668.604 72.9985 668.604 72.3447C668.606 71.691 669.136 71.1605 669.788 71.1605Z" fill="#394241"/>
<path fill-rule="evenodd" clip-rule="evenodd" d="M817.077 76.1648C818.064 74.0801 818.615 71.7505 818.615 69.2905C818.615 60.4004 811.408 53.1931 802.52 53.1931C793.628 53.1931 786.422 60.4004 786.422 69.2905C786.422 72.2528 787.222 75.0264 788.616 77.4107C783.155 77.5375 777.659 77.5851 772.422 77.5111C757.249 77.2943 718.272 76.5313 686.937 75.9022C688.035 73.7259 688.651 71.2677 688.651 68.665C688.651 59.7748 681.446 52.5675 672.556 52.5675C663.665 52.5675 656.458 59.7748 656.458 68.665C656.458 71.0369 656.971 73.2872 657.891 75.3137C648.456 75.1216 642.488 74.9982 642.488 74.9982L636.716 66.2666L654.662 67.583C654.615 67.0491 654.588 66.5063 654.588 65.9583C654.588 56.1341 662.553 48.1709 672.376 48.1709C682.202 48.1709 690.165 56.1341 690.165 65.9583C690.165 67.294 690.015 68.5962 689.739 69.8474L690.826 69.9179H784.41L785.442 70.1135C785.263 69.1002 785.167 68.057 785.167 66.9927C785.167 57.1685 793.132 49.2035 802.957 49.2035C812.781 49.2035 820.744 57.1685 820.744 66.9927C820.744 68.702 820.503 70.3531 820.053 71.9179C827.067 71.3911 832.501 70.45 835.613 69.8104L833.518 74.9965C833.522 74.9965 826.855 75.5657 817.077 76.1648Z" fill="#394241"/>
<path fill-rule="evenodd" clip-rule="evenodd" d="M632.049 47.1016C632.049 47.1016 634.1 42.5869 638.793 38.4775C645.813 38.7929 652.627 39.0731 659.237 39.3251C656.837 43.0045 650.09 49.0559 632.049 47.1016Z" fill="#F7F9F8"/>
<path fill-rule="evenodd" clip-rule="evenodd" d="M642.68 53.9882L632.724 53.1494C631.823 53.0736 631.08 53.8895 631.08 54.7935V61.9461C631.08 62.8501 631.822 63.5903 632.724 63.5903H642.68C643.584 63.5903 644.324 62.8501 644.324 61.9461V55.6323C644.324 54.7283 643.581 54.0639 642.68 53.9882Z" fill="#394241"/>
<path fill-rule="evenodd" clip-rule="evenodd" d="M796.826 23.9689L779.4 6.54278C784.04 7.05028 787.83 7.71462 790.882 8.40716L800.819 18.3441C799.836 20.6983 798.289 22.5786 796.826 23.9689ZM764.011 19.5705L772.531 28.0906C776.933 28.1241 782.984 27.9039 790.951 27.0844L769.669 5.80267C768.45 5.74628 767.186 5.70047 765.882 5.66699L764.011 19.5705ZM792.882 26.8765C792.902 26.8747 792.923 26.873 792.942 26.8695C792.942 26.8695 794.158 26.228 795.691 24.9698L777.025 6.30312C775.419 6.1551 773.722 6.02647 771.927 5.92074L792.882 26.8765Z" fill="#61B6D4"/>
<path fill-rule="evenodd" clip-rule="evenodd" d="M752.175 27.6433L732.16 7.62672C734.972 6.95181 737.658 6.4443 740.155 6.06543L754.913 20.8254L753.836 27.497C753.285 27.5464 752.732 27.5939 752.175 27.6433ZM725.45 29.1535C731.39 28.9508 737.668 28.6654 743.861 28.2636L725.189 9.58978C720.783 11.0225 716.198 12.8921 711.62 15.3257L725.45 29.1535ZM745.854 28.1297C747.316 28.0274 748.77 27.92 750.213 27.8037L730.461 8.04963C729.261 8.36153 728.043 8.70341 726.806 9.08051L745.854 28.1297Z" fill="#61B6D4"/>
<path fill-rule="evenodd" clip-rule="evenodd" d="M705.836 24.9209C701.098 24.9209 697.256 26.8469 697.256 29.2223C697.256 31.5977 701.098 33.5238 705.836 33.5238C710.575 33.5238 712.917 32.9617 712.821 29.2805C712.723 25.5993 710.573 24.9209 705.836 24.9209Z" fill="#FA6E52"/>
<path fill-rule="evenodd" clip-rule="evenodd" d="M705.836 33.5236C701.138 33.5236 697.32 31.6293 697.258 29.2803H712.821C712.917 32.9615 710.573 33.5236 705.836 33.5236Z" fill="#E7563F"/>
<path fill-rule="evenodd" clip-rule="evenodd" d="M659.238 39.3272C739.903 42.4022 790.236 41.0048 818.693 39.2214C827.376 38.6769 834.021 38.0971 838.87 37.5967C838.905 38.0002 838.941 38.4179 838.971 38.8461C830.967 40.7986 806.134 45.4014 746.363 46.693C710.568 47.4666 679.98 44.6331 657.562 41.3977C658.275 40.6735 658.82 39.9651 659.238 39.3272Z" fill="#D54D37"/>
<path fill-rule="evenodd" clip-rule="evenodd" d="M737.285 66.0498C754.475 66.0498 770.773 65.3943 785.385 64.2207C785.243 65.1229 785.17 66.0498 785.17 66.9908C785.17 68.0552 785.266 69.0984 785.445 70.1116L784.413 69.916H690.829L689.742 69.8456C690.02 68.5944 690.168 67.2939 690.168 65.9582C690.168 65.396 690.142 64.841 690.09 64.2929C704.468 65.4225 720.451 66.0498 737.285 66.0498Z" fill="#D54D37"/>
<path fill-rule="evenodd" clip-rule="evenodd" d="M649.381 38.9355C652.715 39.073 656 39.2034 659.237 39.3267C658.821 39.9646 658.275 40.6731 657.563 41.3974C655.318 43.6847 651.417 46.1411 644.735 47.0821C646.225 43.4643 647.869 40.8316 649.381 38.9355Z" fill="#FFBB63"/>
<path fill-rule="evenodd" clip-rule="evenodd" d="M644.634 41.8867C645.515 41.8867 646.366 41.9836 647.168 42.1616C646.342 43.5537 645.515 45.182 644.734 47.0816C642.223 47.434 639.319 47.575 635.964 47.4111C636.605 44.2832 640.244 41.8867 644.634 41.8867Z" fill="#9E9FA3"/>
<path fill-rule="evenodd" clip-rule="evenodd" d="M802.854 46.3086C811.004 46.3086 818.016 51.1687 821.156 58.147L819.054 59.4052C816.206 53.3768 810.07 49.2057 802.96 49.2057C795.206 49.2057 788.611 54.1662 786.175 61.088L783.856 59.9232C786.54 52.0058 794.031 46.3086 802.854 46.3086Z" fill="#D54D37"/>
<path fill-rule="evenodd" clip-rule="evenodd" d="M672.273 45.2744C680.422 45.2744 687.437 50.1345 690.575 57.1144L688.471 58.3726C685.623 52.3425 679.488 48.1732 672.377 48.1732C664.624 48.1732 658.03 53.1337 655.592 60.0555L653.273 58.8907C655.957 50.9715 663.45 45.2744 672.273 45.2744Z" fill="#D54D37"/>
<path fill-rule="evenodd" clip-rule="evenodd" d="M760.903 4.53223L757.285 28.8415C757.216 29.238 752.781 54.1269 750.849 66.1873L752.162 65.9952C754.072 54.0635 758.513 29.1199 758.525 29.0476L762.284 4.62736L760.903 4.53223Z" fill="#D54D37"/>
<path fill-rule="evenodd" clip-rule="evenodd" d="M805.603 13.0645L800.826 40.135C792.699 41.7897 787.386 44.4259 783.734 48.7203C780.025 53.0817 778.081 58.8564 777.102 64.9799L778.434 64.8707C779.38 58.9568 781.155 53.6932 784.693 49.531C788.226 45.3757 793.418 42.9968 801.471 41.4285L801.897 41.3456L806.734 13.8945L805.603 13.0645Z" fill="#D54D37"/>
<path fill-rule="evenodd" clip-rule="evenodd" d="M687.832 31.1504L688.656 40.682L688.894 40.8371C694.433 44.4372 698.422 48.8497 701.08 53.5617C704.077 58.8747 705.381 64.5736 705.305 69.9112L706.558 69.9253C706.636 64.3815 705.281 58.4641 702.171 52.9467C699.455 48.1325 695.74 44.0213 690.147 40.3331L689.249 31.1592L687.832 31.1504Z" fill="#D54D37"/>
<path fill-rule="evenodd" clip-rule="evenodd" d="M818.615 69.2905C818.615 71.7487 818.064 74.0801 817.077 76.1647C814.499 81.6169 808.95 85.3879 802.518 85.3879C798.072 85.3879 794.049 83.587 791.136 80.6741L795.661 76.1489C797.416 77.904 799.841 78.9895 802.518 78.9895C807.871 78.9895 812.213 74.6475 812.213 69.294C812.213 66.6172 811.128 64.1925 809.374 62.4373L813.9 57.9121C816.814 60.8214 818.615 64.8463 818.615 69.2905Z" fill="black"/>
<path fill-rule="evenodd" clip-rule="evenodd" d="M688.652 68.6645C688.652 71.2672 688.036 73.7255 686.938 75.9017C684.287 81.1566 678.842 84.762 672.557 84.762C668.111 84.762 664.088 82.9593 661.173 80.0481L665.698 75.5229C667.453 77.278 669.878 78.3635 672.555 78.3635C677.908 78.3635 682.25 74.0215 682.25 68.668C682.25 65.9895 681.165 63.5665 679.41 61.8114L683.935 57.2861C686.851 60.1937 688.652 64.2185 688.652 68.6645Z" fill="black"/>
<path fill-rule="evenodd" clip-rule="evenodd" d="M717.161 24.376C718.042 24.8306 718.768 25.4244 719.358 26.1311L723.019 25.3593L721.707 20.871C721.575 20.4181 721.838 19.9406 722.291 19.8084L722.823 19.6533C723.276 19.5212 723.753 19.7837 723.886 20.2349L726.894 30.54C726.109 30.57 725.329 30.5982 724.555 30.6246L723.477 26.9276L720.321 27.5919C720.805 28.5329 721.138 29.592 721.344 30.7286C718.333 30.822 715.415 30.896 712.641 30.9542C712.777 30.4837 712.837 29.9304 712.819 29.2783C712.722 25.5972 710.572 24.917 705.834 24.917C701.095 24.917 697.254 26.843 697.254 29.2202C697.254 29.2396 697.254 29.259 697.256 29.2783C697.273 29.9515 697.599 30.5859 698.165 31.1515C694.045 31.1762 690.933 31.1674 689.248 31.1586C688.325 31.1533 687.83 31.148 687.83 31.148C690.919 27.9567 694.144 25.1408 697.444 22.6543C703.097 21.7997 711.291 21.345 717.161 24.376Z" fill="#375561"/>
<path fill-rule="evenodd" clip-rule="evenodd" d="M747.219 21.9097L746.557 29.5047C743.772 29.7003 740.963 29.8712 738.162 30.0245L738.933 21.1872C739.002 20.4031 739.702 19.8163 740.486 19.885L742.285 20.0418L742.514 17.4056L741.867 17.3228C741.164 17.2329 740.604 16.6302 740.697 15.9307L741.429 10.5384C741.524 9.83885 742.118 9.30843 742.821 9.37011L745.438 9.59921C746.141 9.66088 746.625 10.2847 746.608 10.9913L746.461 16.4188C746.442 17.1254 745.776 17.6065 745.069 17.5871L744.35 17.5677L744.119 20.2039L745.919 20.3608C746.701 20.4277 747.288 21.1256 747.219 21.9097Z" fill="#375561"/>
<path fill-rule="evenodd" clip-rule="evenodd" d="M769.952 256.291H748.293V42.4329C748.112 39.4513 749.349 37.4777 752.736 37.0371H765.055C768.743 37.0371 769.834 39.6381 769.952 41.8584V256.291Z" fill="#622996"/>
<path fill-rule="evenodd" clip-rule="evenodd" d="M424.316 200.994C425.583 200.994 426.609 202.021 426.609 203.288C426.609 204.555 425.582 205.581 424.316 205.581C423.049 205.581 422.024 204.555 422.024 203.288C422.022 202.019 423.049 200.994 424.316 200.994ZM433.235 200.994C434.502 200.994 435.527 202.021 435.527 203.288C435.527 204.555 434.502 205.581 433.235 205.581C431.968 205.581 430.942 204.555 430.942 203.288C430.942 202.019 431.968 200.994 433.235 200.994Z" fill="#4C4849"/>
<path fill-rule="evenodd" clip-rule="evenodd" d="M560.785 200.851C562.052 200.851 563.078 201.879 563.078 203.144C563.078 204.411 562.05 205.436 560.785 205.436C559.518 205.436 558.492 204.411 558.492 203.144C558.491 201.879 559.518 200.851 560.785 200.851ZM569.703 200.851C570.97 200.851 571.996 201.879 571.996 203.144C571.996 204.411 570.97 205.436 569.703 205.436C568.436 205.436 567.411 204.411 567.411 203.144C567.411 201.879 568.438 200.851 569.703 200.851Z" fill="#4C4849"/>
<path fill-rule="evenodd" clip-rule="evenodd" d="M754.654 243.938C755.921 243.938 756.947 244.964 756.947 246.231C756.947 247.498 755.92 248.525 754.654 248.525C753.387 248.525 752.362 247.498 752.362 246.231C752.362 244.964 753.387 243.938 754.654 243.938ZM763.573 243.938C764.84 243.938 765.865 244.964 765.865 246.231C765.865 247.498 764.84 248.525 763.573 248.525C762.306 248.525 761.28 247.498 761.28 246.231C761.28 244.964 762.306 243.938 763.573 243.938Z" fill="#4C4849"/>
<path fill-rule="evenodd" clip-rule="evenodd" d="M1135.03 213.764H1137.78C1139.21 213.764 1140.38 214.934 1140.38 216.364V228.17C1140.38 229.599 1139.21 230.771 1137.78 230.771H1135.03V213.764Z" fill="#F80318"/>
<path fill-rule="evenodd" clip-rule="evenodd" d="M320.947 94.083L294.394 140.076L303.334 140.031L322.549 106.753V94.083H320.947ZM314.629 94.083L288.057 140.105L282.806 140.13L273.771 161.528H254.483C254.095 156.265 253.998 151.339 254.137 146.738L284.538 94.083H314.629Z" fill="#97CBD6"/>
<path fill-rule="evenodd" clip-rule="evenodd" d="M565.498 196.361C568.196 196.361 570.404 194.155 570.404 191.457V22.9402C570.404 20.2423 568.196 18.0342 565.498 18.0342C562.799 18.0342 560.593 20.2423 560.593 22.9402V191.457C560.593 194.155 562.799 196.361 565.498 196.361Z" fill="#9C5CD7"/>
<path fill-rule="evenodd" clip-rule="evenodd" d="M759.113 240.84C761.812 240.84 764.019 238.634 764.019 235.934V50.9059C764.019 48.208 761.812 46 759.113 46C756.415 46 754.207 48.208 754.207 50.9059V235.934C754.207 238.632 756.415 240.84 759.113 240.84Z" fill="#9C5CD7"/>
<path fill-rule="evenodd" clip-rule="evenodd" d="M230.506 236.266H225V243.431H230.506C231.937 243.431 233.107 242.261 233.107 240.831V238.865C233.107 237.436 231.937 236.266 230.506 236.266Z" fill="#9C5CD7"/>
<path fill-rule="evenodd" clip-rule="evenodd" d="M234.844 222.796H225.361C225.129 223.511 225.002 224.274 225.002 225.065V233.496H234.844C236.99 233.496 238.743 231.74 238.743 229.596V226.695C238.743 224.551 236.99 222.796 234.844 222.796Z" fill="#F3F7FA"/>
<path fill-rule="evenodd" clip-rule="evenodd" d="M313.95 189.614C303.58 190.038 295.856 199.882 290.476 210.679C285.881 219.902 282.996 229.823 281.634 235.159C284.638 234.426 286.508 235.411 289.054 229.111C291.601 222.811 294.815 204.03 310.644 197.649C315.089 195.857 320.134 194.766 325.21 194.158V202.691C325.21 204.12 326.381 205.29 327.81 205.29H337.132C338.563 205.29 339.731 204.12 339.731 202.691V193.566C346.977 193.78 352.912 194.669 355.305 195.388C360.702 197.013 364.333 205.991 364.333 205.991L366.874 205.472C366.874 205.472 368.213 201.079 363.626 194.199C360.082 188.884 346.272 188.475 329.422 189.004C324.467 189.159 319.249 189.397 313.95 189.614Z" fill="#3D3C3C"/>
<path fill-rule="evenodd" clip-rule="evenodd" d="M330.923 73.2852H283.346C281.98 73.2852 280.863 74.4024 280.863 75.7681C280.863 75.8809 280.872 75.9919 280.886 76.1012C295.299 75.8827 318.491 75.562 333.396 75.5232C333.272 74.272 332.208 73.2852 330.923 73.2852Z" fill="#484848"/>
<path fill-rule="evenodd" clip-rule="evenodd" d="M328.927 197.202H336.018C337.378 197.202 338.49 198.314 338.49 199.674V200.649C338.49 202.009 337.378 203.123 336.018 203.123H328.927C327.567 203.123 326.455 202.009 326.455 200.649V199.674C326.455 198.314 327.567 197.202 328.927 197.202Z" fill="#9C5CD7"/>
<path fill-rule="evenodd" clip-rule="evenodd" d="M390.64 219.994H397.729C399.089 219.994 400.203 221.107 400.203 222.468V223.442C400.203 224.803 399.089 225.916 397.729 225.916H390.64C389.279 225.916 388.166 224.803 388.166 223.442V222.468C388.166 221.106 389.279 219.994 390.64 219.994Z" fill="#9C5CD7"/>
<path fill-rule="evenodd" clip-rule="evenodd" d="M508.351 219.994H515.44C516.8 219.994 517.912 221.107 517.912 222.468V223.442C517.912 224.803 516.798 225.916 515.44 225.916H508.351C506.99 225.916 505.876 224.803 505.876 223.442V222.468C505.876 221.106 506.99 219.994 508.351 219.994Z" fill="#9C5CD7"/>
<path fill-rule="evenodd" clip-rule="evenodd" d="M792.462 221.504H799.551C800.912 221.504 802.025 222.618 802.025 223.978V224.952C802.025 226.313 800.912 227.427 799.551 227.427H792.462C791.102 227.427 789.988 226.311 789.988 224.952V223.978C789.986 222.616 791.1 221.504 792.462 221.504Z" fill="#9C5CD7"/>
<path fill-rule="evenodd" clip-rule="evenodd" d="M1012.94 221.504H1020.03C1021.39 221.504 1022.5 222.618 1022.5 223.978V224.952C1022.5 226.313 1021.39 227.427 1020.03 227.427H1012.94C1011.58 227.427 1010.47 226.311 1010.47 224.952V223.978C1010.47 222.616 1011.58 221.504 1012.94 221.504Z" fill="#9C5CD7"/>
<path fill-rule="evenodd" clip-rule="evenodd" d="M322.547 98.5204H276.51C272.945 102.566 267.378 110.372 263.459 122.893L268.862 126.385L275.763 123.585L274.29 119.951C273.957 119.132 274.355 118.191 275.174 117.858C275.994 117.527 276.935 117.923 277.268 118.743L281.176 128.376C281.509 129.194 281.113 130.137 280.293 130.47C279.476 130.801 278.531 130.405 278.2 129.585L276.727 125.952L270.927 128.304V149.923H273.183L276.143 135.12C275.305 134.667 274.822 133.707 275.017 132.725C275.257 131.52 276.431 130.738 277.636 130.977C278.843 131.219 279.626 132.392 279.382 133.598C279.187 134.579 278.371 135.281 277.425 135.376L274.515 149.923H278.676L273.773 161.53H259.047H254.483C251.568 122.026 265.072 101.591 271.689 94.085H322.547V98.5204Z" fill="#576F73"/>
<path fill-rule="evenodd" clip-rule="evenodd" d="M305.26 124.575L303.983 124.302L304.585 121.483L304.806 121.53C305.65 121.71 306.489 121.167 306.67 120.323L307.687 115.557C307.868 114.713 307.326 113.874 306.48 113.694L304.189 113.206C303.345 113.024 302.508 113.567 302.326 114.413L301.308 119.178C301.126 120.024 301.669 120.861 302.515 121.042L302.737 121.09L302.132 123.909L300.855 123.636C299.702 123.389 298.557 124.131 298.312 125.284L295.172 139.975H304.161L306.908 127.122C307.155 125.966 306.413 124.822 305.26 124.575Z" fill="#576F73"/>
</g>
</g>
<defs>
<linearGradient id="paint0_linear_2094_2" x1="666.999" y1="136.655" x2="666.999" y2="418.757" gradientUnits="userSpaceOnUse">
<stop offset="0.1205"/>
<stop offset="0.2881" stop-color="#1E1E1E"/>
<stop offset="0.4418" stop-color="#333333"/>
<stop offset="0.543" stop-color="#3B3B3B"/>
<stop offset="0.5494" stop-color="#3A3A3A"/>
<stop offset="0.9799"/>
</linearGradient>
<clipPath id="clip0_2094_2">
<rect width="1334" height="353" fill="white"/>
</clipPath>
</defs>
</svg>
