<svg width="632" height="347" viewBox="0 0 632 347" fill="none" xmlns="http://www.w3.org/2000/svg">
<rect width="632" height="347" fill="white"/>
<path d="M162.565 211.042L163.574 208.279L170.534 199.253L167.71 191.517L125.643 133.68L128.77 128.798L126.753 128.062L136.941 98.9587L97.1053 87.4775H95.647L94.8402 88.2753L95.1091 89.7484L96.2528 91.5903L92.7557 96.9936V101.168L87.7119 105.651L87.4429 106.756L90.2003 113.633L89.1915 121.43L85.6943 123.579V124.254L88.1157 124.623L93.0256 132.912L91.008 136.228L92.4877 138.315H94.3712L96.6577 137.272L98.2723 136.106L105.603 137.211L99.281 137.948L98.3393 142.43H97.1956L96.5907 140.772C96.5907 140.772 95.6489 141.632 95.447 141.632C95.245 141.632 94.5732 142.676 94.5732 142.676L93.5644 152.93L94.9091 153.544H95.447L95.9848 158.088L98.9441 165.272L101.903 169.201L103.45 170.859L102.643 180.314C102.643 180.314 103.652 182.034 103.652 182.832C103.652 183.629 104.325 185.042 104.325 185.042L113.539 187.498L125.308 194.805L124.635 197.138L123.424 199.286L130.89 199.655L130.15 201.251L129.814 202.909L134.858 208.251L132.235 212.671L133.648 213.408L133.917 214.635L143.87 216.11L160.953 217.829L164.383 217.768L162.565 211.042Z" fill="#F1F1F1"/>
<path d="M138.487 55.181L163.64 55.3042L179.647 59.8477L191.734 26.8472L191.619 26.8153L143.734 14.7261L142.658 15.3341L143.331 16.7461L142.658 22.8922L143.331 27.184L143.466 27.9206L141.18 28.4116L137.664 33.4462C137.664 33.4462 136.203 30.6223 136.607 30.2535C137.011 29.8848 138.49 22.8922 138.49 22.8922L132.438 22.1494L130.151 20.6754L124.368 15.3341H123.023L122.687 16.7461V23.3771V24.789L120.064 32.4021L121.543 34.1217L121.812 36.0867L119.723 38.7866V35.0417L119.118 34.9185L117.773 36.8215L118.177 39.9868L127.795 43.8824V46.4608L128.266 49.7767L138.487 55.181Z" fill="#F1F1F1"/>
<path d="M178.303 70.776L183.682 68.1976L179.469 59.7965L163.641 55.3035L138.488 55.1812L128.266 49.7779L127.795 46.462L117.774 41.4885L118.11 47.0151L111.991 53.4005L108.358 62.6719L99.9514 76.1793L95.6475 76.978V77.9601L97.1941 79.5564V87.477H97.1057L136.942 98.9582L167.003 105.897L178.303 70.776Z" fill="#F1F1F1"/>
<path d="M229.348 88.9191L226.221 88.2747C226.221 88.2747 224.606 87.3538 224.304 87.477C224.001 87.5993 211.593 85.6963 211.593 85.6963L207.154 78.9731L204.733 68.3819L204.128 68.0132L202.312 69.4872H201.506L201.91 65.8034L205.239 57.6985L202.514 53.0938L201.607 47.1072L195.755 38.6344C195.755 38.6344 197.2 32.7187 198.273 28.6556L191.736 26.8474L179.648 59.8479L179.469 59.7974L183.683 68.1984L178.302 70.7769L167.004 105.897L222.691 117.931L229.348 88.9191Z" fill="#F1F1F1"/>
<path d="M167.785 184.656L170.534 176.459L174.468 176.874L177.192 179.821L177.545 179.729L193.74 111.675L167.003 105.897L136.941 98.958L126.751 128.061L128.769 128.798L125.642 133.679L167.71 191.517L169.424 188.893L167.785 184.656Z" fill="#F1F1F1"/>
<path d="M180.013 169.361L177.546 179.729L177.192 179.821L174.469 176.874L170.535 176.459L167.786 184.656L169.425 188.893L167.711 191.518L170.535 199.255L163.575 208.281L162.566 211.043L164.381 217.766L160.951 217.828L159.472 219.976L159.842 221.266C159.842 221.266 199.387 240.883 199.185 241.16C199.051 241.343 212.433 242.993 221.415 244.078L231.568 178.349L180.013 169.361Z" fill="#F1F1F1"/>
<path d="M293.307 90.6696L299.763 45.1482L200.496 29.2707L198.271 28.6555C197.199 32.7186 195.754 38.6343 195.754 38.6343L201.605 47.1071L202.513 53.0937L205.238 57.6984L201.908 65.8033L201.505 69.4871H202.311L204.127 68.0131L204.732 68.3818L207.153 78.973L211.592 85.6962C211.592 85.6962 224 87.5992 224.303 87.4769C224.606 87.3537 226.22 88.2746 226.22 88.2746L229.347 88.919L230.598 82.4414L293.307 90.6696Z" fill="#F1F1F1"/>
<path d="M220.404 128.737L222.69 117.931L193.741 111.675L180.014 169.361L231.568 178.347L239.1 132.052L220.404 128.737Z" fill="#F1F1F1"/>
<path d="M360.694 66.9999L357.164 51.0665L358.314 48.5474L358.274 48.5492L299.763 45.1482L294.922 79.2744L362.107 83.4855L360.694 66.9999Z" fill="#F1F1F1"/>
<path d="M293.307 90.6696L230.6 82.4414L229.348 88.919L222.69 117.931L220.403 128.737L239.1 132.052L287.253 138.069L293.307 90.6696Z" fill="#F1F1F1"/>
<path d="M302.992 185.992L306.758 139.298L287.254 138.069L239.101 132.052L231.568 178.347L291.491 185.992H302.992Z" fill="#F1F1F1"/>
<path d="M286.582 244.076L291.899 185.991H291.491L231.568 178.347L221.414 244.076C225.938 244.622 229.348 245.027 229.348 245.027L230.6 240.514L241.958 242.356L249.524 243.093V240.36L286.582 244.076Z" fill="#F1F1F1"/>
<path d="M390.254 263.078C390.355 262.801 391.565 261.88 391.565 261.88L392.271 260.038L389.85 258.473L388.639 256.355V251.658L384.907 245.671V231.12V230.199L382.486 229.554L380.367 230.199L373.709 226.054L361.099 227.804L359.989 226.33L355.449 225.132V227.066H354.137L353.129 224.764L351.414 226.053L345.261 227.066L341.729 222.185L340.822 223.606H338.602L329.018 218.225L321.755 216.751L322.764 193.358L291.42 191.207L286.581 244.075L249.523 240.358V243.091L264.252 259.761L268.085 271.55L282.612 280.299L283.418 279.563C283.418 279.563 285.739 274.313 285.84 274.037C285.941 273.76 290.279 270.353 290.279 270.353L305.915 274.958L312.876 282.51L319.131 295.312L322.864 297.246L323.873 300.285L324.982 307.193L334.566 316.955H343.443L348.084 319.441H349.093L349.597 315.758L344.453 302.587H347.58L348.488 297.154L345.864 296.693L345.561 295.864L350.504 295.495L358.373 290.154L374.111 282.51L377.541 282.694V281.22L376.229 280.851L374.917 276.062C374.917 276.062 378.852 274.313 378.852 274.588C378.852 274.864 378.852 279.285 378.852 279.285L388.637 275.325L388.889 275.302L389.646 271.549C389.648 271.551 390.153 263.354 390.254 263.078Z" fill="#F1F1F1"/>
<path d="M379.795 188.908L302.991 185.992H291.898L291.42 191.209L322.763 193.359L321.755 216.752L329.018 218.225L338.602 223.607H340.821L341.729 222.186L345.26 227.067L351.413 226.054L353.129 224.765L354.138 227.067H355.449V225.133L359.988 226.33L361.098 227.804L373.708 226.054L380.367 230.199L381.876 229.739L379.795 195.416V188.908Z" fill="#F1F1F1"/>
<path d="M346.301 122.474L353.566 120.387L362.846 124.316L362.106 115.597L359.349 112.895H362.846L362.106 83.4856L294.921 79.2744L293.306 90.6696L290.167 115.247L330.564 117.193L346.301 122.474Z" fill="#F1F1F1"/>
<path d="M411.136 108.076L409.018 107.708V106.51L405.487 105.589L402.965 102.182L400.847 101.796L395.701 96.9321L397.618 92.6961V91.4986L396.408 86.433L397.416 85.6043L399.434 84.8677L401.048 83.4858L402.965 76.1183V72.2502L404.983 70.3161L407.605 69.5787L408.715 65.8949L424.553 58.9874L423.645 58.1587L422.434 57.2377L413.457 57.5143L408.211 58.343L405.487 58.4352L401.552 57.3299L397.82 56.6855L397.114 53.4618L395.399 53.2774L394.591 55.2115L390.556 54.2905L380.871 50.8833L377.913 49.5325L374.819 47.8315L358.315 48.5477L357.165 51.0668L360.695 67.0002L362.108 83.4858L362.848 112.896H411.136V108.076Z" fill="#F1F1F1"/>
<path d="M422.132 79.2745L427.681 78.42L437.669 83.9457L440.796 88.9191L442.974 91.8716L443.52 89.9322L447.858 84.2222L450.683 82.5647L451.489 85.4197L452.7 85.5119L453.104 83.0256L453.508 81.7359L460.065 78.6966L465.513 79.1575L467.934 80.815L468.338 79.8019L468.136 78.5122L477.115 78.42L477.519 77.3147L474.493 75.7494L470.559 72.71L465.716 73.0788L464.606 71.8245L464.303 69.2106L456.333 71.329L451.289 73.6318L451.087 75.0137L450.885 76.3034L448.565 75.7503L447.051 74.645L443.621 74.9215L438.073 71.4221L434.844 72.7118L434.239 71.4221L434.138 69.2115L437.771 67.3696L440.091 65.2512L441.403 64.4224L440.697 62.5806C440.697 62.5806 439.486 62.6728 438.78 63.1328C438.074 63.5937 436.057 63.357 435.552 63.9819C435.047 64.6068 430.81 65.8034 430.81 65.8034C430.81 65.8034 429.7 67.4609 429.7 68.1062C429.7 68.7506 429.7 69.6715 429.7 69.6715L422.235 72.3422L419.209 73.9997V75.565V76.5781L422.132 79.2745Z" fill="#F1F1F1"/>
<path d="M372.532 153.051L370.379 147.647L367.42 145.01L366.613 136.105L363.52 127.754L362.847 124.316L353.566 120.387L346.302 122.474L330.565 117.193L290.168 115.247L287.253 138.069L306.757 139.298L305.828 150.814L372.532 153.051Z" fill="#F1F1F1"/>
<path d="M375.491 161.523L377.508 156.366L372.532 153.051L305.828 150.814L302.991 185.992L379.795 188.908L378.719 164.225L375.491 161.523Z" fill="#F1F1F1"/>
<path d="M409.926 149.981H411.741L415.777 142.981L415.575 139.758L423.141 132.39V131.285L412.75 121.246V115.247L411.136 112.895H362.848H359.351L362.108 115.597L362.848 124.316L363.521 127.754L366.614 136.105L367.421 145.01L370.151 147.443L407.504 147.678L409.926 149.981Z" fill="#F1F1F1"/>
<path d="M427.007 198.609H432.455V195.601C432.455 195.601 432.724 191.856 432.926 191.856C433.127 191.856 437.163 191.856 437.163 191.856L437.902 190.505L436.221 187.926L432.791 185.992L432.118 180.19L423.577 172.945L424.25 171.717L425.258 171.042L424.721 166.007L421.627 165.701L412.01 157.841L411.478 149.982H409.925L407.504 147.679L370.15 147.444L370.38 147.648L372.532 153.051L377.509 156.367L375.491 161.525L378.72 164.227L379.795 188.909V195.418L379.815 195.737L426.537 194.067L427.007 198.609Z" fill="#F1F1F1"/>
<path d="M420.112 232.962L418.095 226.699L418.701 225.225L428.586 210.122V208.095L432.219 202.293L432.454 198.609H427.007L426.536 194.066L379.813 195.735L381.876 229.74L382.484 229.554L384.906 230.199V231.12V236.001H419.004L420.112 232.962Z" fill="#F1F1F1"/>
<path d="M432.925 262.801L433.43 259.025L413.354 260.683L421.123 244.105L419.004 236H384.906V245.67L388.638 251.657V256.354L389.849 258.472L392.27 260.037L391.565 261.879C391.565 261.879 390.354 262.8 390.253 263.077C390.152 263.353 389.647 271.549 389.647 271.549L388.89 275.302L394.59 274.773L395.498 270.997L396.809 274.589L403.367 276.615L410.327 276.246L407.604 273.391L413.253 272.47L414.161 276.523L418.196 276.154L416.784 279.562L419.003 279.378L420.416 280.76L424.754 281.496L426.771 278.641L428.083 279.286L428.991 281.864L431.109 281.035V277.167L433.632 277.628L436.355 281.865L440.088 279.47L437.365 277.905L435.549 274.498L438.979 273.945L438.474 270.814L436.154 273.117L432.825 273.024L433.128 270.722L435.65 269.801L432.522 269.525L427.478 271.643L426.368 269.802L423.846 269.525L423.442 268.051L425.964 266.853L430.302 266.209L436.759 268.051H436.961V267.499L432.925 262.801Z" fill="#F1F1F1"/>
<path d="M449.067 212.362H448.26V210.766L428.588 210.121L418.701 225.225L418.096 226.698L420.114 232.961L419.004 236.001L421.123 244.106L413.354 260.683L433.43 259.026L432.925 262.802L436.96 267.499V268.051H440.087L441.096 267.13L448.529 266.225C448.026 259.654 447.35 250.784 447.35 250.552C447.352 250.184 449.067 212.362 449.067 212.362Z" fill="#F1F1F1"/>
<path d="M519.078 259.64L518.203 259.762L516.926 258.166L487.065 258.933L485.249 256.446L457.675 257.736L458.911 265.963L459.457 265.749L462.383 263.17L462.989 266.946L468.739 266.577L468.133 264.551L466.52 263.446L468.739 262.617H471.06V264.182L469.446 265.472L472.977 265.011L475.096 265.103L476.71 266.024L477.315 265.84L478.324 264.827L479.03 264.55C479.03 264.55 480.744 265.379 480.845 265.655C480.946 265.932 480.038 267.221 480.038 267.221L481.955 270.997H484.88H489.521L491.438 269.524L494.767 266.853L497.591 265.932L500.92 266.853L500.416 268.787L501.659 269.033L504.484 269.401C504.484 269.401 505.425 271.059 505.425 270.998C505.425 270.936 506.838 271.919 506.838 271.919L509.058 273.024C509.058 273.024 509.393 275.541 509.259 275.91C509.125 276.279 509.932 276.279 509.932 276.279L511.008 275.112L512.892 276.279L514.438 279.717L513.563 284.875C513.563 284.875 513.227 290.032 513.294 290.4C513.361 290.769 515.581 292.365 515.581 292.365L516.321 291.935L516.59 290.585L518.607 289.479V293.347L517.061 294.698L516.052 295.25L515.783 297.338L517.598 300.715L519.347 301.636L520.76 300.838L523.584 300.163C523.584 300.163 525.266 302.005 525.266 302.189C525.266 302.373 523.921 303.909 523.921 303.909C523.921 303.909 522.105 304.215 521.903 304.338C521.701 304.462 521.836 306.18 521.836 306.18L522.643 307.101L524.796 306.733L526.88 304.952L530.781 312.197L533.001 312.504L536.498 313.118V314.469L535.287 315.82L534.278 316.864L534.614 317.969H536.497V319.443C536.497 319.443 535.69 320.18 535.69 320.364C535.69 320.548 536.497 321.592 536.497 321.592L541.407 321.101L544.231 318.583C544.231 318.583 544.029 317.109 544.231 316.926C544.433 316.741 544.231 315.821 544.231 315.821L543.895 312.689L545.779 310.847L547.662 309.312L547.393 304.154L544.434 295.619L534.211 280.453L534.547 279.594L536.7 280.269L536.835 279.225L531.051 274.19C531.051 274.19 532.666 273.454 532.733 273.269C532.8 273.085 527.554 263.937 527.554 263.937L527.285 258.902L526.331 255.524L520.157 255.218L519.078 259.64Z" fill="#F1F1F1"/>
<path d="M445.334 121.061L442.51 114.338L441.905 109.917L448.261 94.0758L449.572 89.0102L447.151 91.7731L444.427 95.7334C444.427 95.7334 442.207 96.2856 442.005 97.023C441.803 97.7596 440.089 100.891 440.089 100.891L439.383 98.1283L442.611 93.1549L442.973 91.8706L440.795 88.9181L437.668 83.9446L427.681 78.419L422.132 79.2734L419.207 76.5771V75.564L416.785 76.4849L415.271 75.9327L413.758 72.709L412.345 73.1699L402.963 76.1171L401.047 83.4846L399.433 84.8665L397.416 85.603L396.407 86.4318L397.618 91.4974V92.6949L395.701 96.9317L400.846 101.795L402.964 102.182L405.487 105.589L409.018 106.51V107.707L411.136 108.076V112.896L412.751 115.247V121.247L415.38 123.787L445.428 122.923L445.334 121.061Z" fill="#F1F1F1"/>
<path d="M442.61 186.083L445.234 183.873L451.084 165.638L448.607 129.679L445.537 125.114L445.427 122.922L415.379 123.786L423.141 131.285V132.39L415.575 139.758L415.777 142.981L411.741 149.981H411.479L412.01 157.84L421.627 165.699L424.722 166.006L425.259 171.04L424.251 171.716L423.578 172.944L432.119 180.189L432.792 185.992L436.222 187.926L436.703 188.665L438.424 185.392L442.61 186.083Z" fill="#F1F1F1"/>
<path d="M484.308 248.096L486.325 240.237L481.752 233.115L476.238 209.169L448.26 210.766V212.362H449.067C449.067 212.362 447.353 250.184 447.353 250.552C447.353 250.784 448.028 259.654 448.531 266.225L448.663 266.209L451.992 265.288L453.405 257.183L455.423 265.748L453.001 267.682L453.606 268.051L458.911 265.964L457.675 257.736L485.249 256.447L485.383 254.175L484.308 248.096Z" fill="#F1F1F1"/>
<path d="M474.422 128.798L474.757 129.78L492.176 128.49L492.561 128.121L491.772 127.937C491.772 127.937 491.368 127.692 491.57 126.771C491.772 125.85 492.445 123.762 492.445 123.762L493.185 120.938L493.959 118.298L495.472 118.021L496.784 115.718L492.85 101.259C492.85 101.259 490.127 99.8772 489.824 100.062C489.521 100.246 489.521 100.246 489.521 100.246L487.503 101.536L486.091 101.996L484.779 103.47L483.669 105.588L480.138 105.772L479.734 103.931L482.156 100.891L484.072 99.9703L484.375 98.0362L483.669 90.5765L483.064 88.4581L484.88 88.1815L481.551 84.9578L477.718 84.4969L473.885 83.3916L470.959 81.4575L467.933 82.9307L468.135 85.6935C468.135 85.6935 465.412 86.9832 465.311 87.2588C465.21 87.5354 465.109 92.4166 465.109 92.4166L463.696 93.1532L463.091 90.0216V88.5476L460.973 91.0348L458.551 95.0873L455.827 96.4691L456.433 99.6928L455.928 106.139L456.332 109.455L459.56 113.416L459.156 125.02L454.453 129.095C454.677 129.483 454.851 129.778 454.851 129.778L474.422 128.798Z" fill="#F1F1F1"/>
<path d="M450.227 176.828L452.598 175.953L454.868 176.183L456.582 176.644L457.995 176.321L459.206 175.953H462.888L464.149 171.9L465.512 172.039L467.479 174.295L473.329 168.539V166.651L478.474 164.165L478.928 161.126L476.911 144.87L474.758 129.782L474.422 128.8L454.851 129.782C454.851 129.782 454.677 129.487 454.453 129.098L453.204 130.181L450.681 131.286L449.067 130.365L448.607 129.68L451.086 165.638L446.914 178.64L450.229 178.394V176.828H450.227Z" fill="#F1F1F1"/>
<path d="M501.525 210.121V209.169L502.669 206.959L487.403 208.094L476.238 209.168L481.753 233.114L486.326 240.236L484.308 248.095L485.384 254.174L485.25 256.446L487.066 258.933L516.927 258.165L518.204 259.762L519.079 259.639L520.155 255.218L526.329 255.525L526.207 255.096L525.199 253.745C525.199 253.745 525.064 251.78 525.064 251.596C525.064 251.413 526.139 250.43 526.139 250.43C526.139 250.43 525.937 246.009 526.139 245.886C526.341 245.763 527.686 245.211 527.686 245.211L528.157 242.203L529.771 241.343L530.645 239.869L530.511 238.641L528.763 238.089L526.879 238.888L525.736 238.089L525.937 234.098L525.063 232.625L501.525 210.121Z" fill="#F1F1F1"/>
<path d="M529.267 206.069L524.425 203.214L507.78 204.135L502.669 206.959L501.525 209.169V210.121L525.065 232.625L525.94 234.098L527.823 236.554H530.984L534.616 236.432V235.449L532.397 234.835C532.397 234.835 531.993 234.405 531.993 234.099C531.993 233.792 533.002 233.054 533.002 233.054L535.154 233.361L537.172 233.3L542.082 228.265L542.284 224.949L542.956 224.029L544.436 225.318L544.907 226.608L547.26 223.608L548.135 221.758V219.363L552.895 214.362L537.946 204.78L529.267 206.069Z" fill="#F1F1F1"/>
<path d="M496.783 203.214L504.853 196.675L514.739 189.491L515.445 186.821L496.177 188.908L447.35 191.209V193.175L432.581 194.065C432.505 194.876 432.454 195.6 432.454 195.6V198.608L432.218 202.292L428.586 208.094V210.121L448.258 210.765L476.236 209.169L487.4 208.094L488.376 208.022L491.234 204.871L496.783 203.214Z" fill="#F1F1F1"/>
<path d="M514.74 189.491L504.853 196.675L496.783 203.214L491.234 204.872L488.376 208.023L502.668 206.959L507.778 204.135L524.423 203.214L529.265 206.069L537.941 204.779L552.891 214.361L553.04 214.204L555.26 213.835V212.791L557.009 213.037L557.479 211.011L559.026 212.423L560.237 213.528C560.237 213.528 560.573 213.528 560.708 213.343C560.843 213.159 560.708 211.011 560.708 211.011L562.187 208.002L564.676 205.239V204.257H563.196L563.129 202.17C563.129 202.17 565.551 201.249 565.751 201.126C565.953 201.003 570.257 200.02 570.257 200.02L572.88 199.223H574.494V196.152H573.553L571.602 197.687L570.66 197.994L568.508 197.319C568.508 197.319 567.23 196.767 568.441 196.767C569.652 196.767 571.467 196.705 571.467 196.705C571.467 196.705 572.476 195.478 572.476 195.232C572.476 194.987 572.005 194.679 572.005 194.679L569.248 195.232L566.423 194.679L567.029 193.083L569.585 193.452L570.391 193.575L570.189 191.364L571.265 191.487L571.803 193.084C571.803 193.084 572.745 193.881 572.947 193.881C573.149 193.881 576.646 190.934 576.646 190.934L574.493 190.32C574.493 190.32 573.418 190.381 573.418 190.32C573.418 190.259 573.754 189.706 573.754 189.706H576.646L578.26 188.355L578.126 185.838L576.982 183.811L575.939 184.118L576.141 187.833L575.166 187.864L574.83 187.035V185.408L573.587 185.284L571.434 186.604L568.711 187.402C568.711 187.402 567.332 187.033 567.399 186.819C567.466 186.604 569.417 185.038 569.417 185.038L571.266 184.885L571.535 183.227L573.419 183.81H574.461L574.898 183.135L573.755 180.955L574.326 180.557L575.402 181.324L578.664 184.118L575.974 179.206L574.965 177.978L574.989 177.768L515.445 186.819L514.74 189.491Z" fill="#F1F1F1"/>
<path d="M499.205 182.584L507.074 177.769L507.78 173.026L504.552 170.887L503.947 169.045L504.552 166.098V165.546H501.525L499.003 163.243H497.59H496.279H491.134L488.376 161.953L478.8 160.104L478.927 161.125L478.472 164.164L473.328 166.65V168.538L467.477 174.294L465.51 172.038L464.148 171.899L462.887 175.952H459.204L457.993 176.321L456.581 176.643L454.866 176.182L452.596 175.952L450.225 176.827V178.392L446.91 178.638L445.231 183.872L442.607 186.082L438.421 185.392L436.701 188.664L437.9 190.503L437.16 191.854C437.16 191.854 433.125 191.854 432.923 191.854C432.809 191.854 432.675 193.03 432.579 194.065L447.348 193.175V191.209L494.245 188.998L498.898 184.333L499.205 182.584Z" fill="#F1F1F1"/>
<path d="M506.905 162.353V159.161L510.637 158.271L511.31 154.096H512.622L515.514 149.921L516.927 146.729L519.415 146.422L515.781 122.426L515.581 122.538C515.581 122.538 513.765 121.923 513.362 122.108C512.958 122.292 505.224 128.309 505.224 128.309C505.224 128.309 502.735 127.449 502.533 127.449C502.331 127.449 498.834 129.721 498.834 129.721L495.471 131.317L493.318 130.948L494.462 129.904L495.74 129.106L495.471 128.799L492.56 128.123L492.176 128.492L474.757 129.782L476.909 144.871L478.801 160.106L488.377 161.955L491.134 163.245H496.279H497.59H499.003L501.525 165.548H504.552L504.855 163.43L506.905 162.353Z" fill="#F1F1F1"/>
<path d="M560.641 160.848C560.489 160.848 557.261 160.104 557.261 160.104C557.261 160.104 556.151 158.316 556.252 157.947C556.353 157.578 557.261 155.829 557.261 155.829L557.16 154.631L556.303 153.48L552.519 152.328L550.754 149.105C550.754 149.105 548.081 148.874 547.93 148.874C547.778 148.874 543.693 153.111 543.693 153.111L542.432 153.388L542.078 155.598L536.782 161.769L535.723 162.276L532.242 160.848L531.284 161.263V164.901L525.735 168.032L524.524 173.026H520.086L518.521 174.479L517.563 173.026H515.849L513.478 177.085H512.267L507.777 173.026L507.072 177.769L499.203 182.584L498.9 184.334L494.246 188.999L496.176 188.907L515.445 186.82L574.988 177.769L575.401 174.08L574.09 174.326L573.686 175.278L570.223 175.001L570.055 175.769L567.902 174.879L565.549 173.251C565.549 173.251 562.623 172.423 562.555 172.515C562.488 172.607 560.302 172.883 560.302 172.883L560.504 171.931L563.059 171.225L565.716 172.699L569.247 173.804C569.247 173.804 570.625 174.234 570.659 173.927C570.693 173.62 569.483 172.269 569.483 172.269L568.037 171.225V168.953L566.221 168.462C566.221 168.462 565.516 168.124 565.516 167.94C565.516 167.756 566.692 167.234 566.692 167.234L567.163 166.712L566.389 166.097L566.591 162.751L563.464 161.308C563.466 161.309 560.792 160.848 560.641 160.848Z" fill="#F1F1F1"/>
<path d="M547.426 146.896L540.062 146.942L535.976 148.461L532.697 154.309H531.386L530.781 146.527L520.087 148.092L519.415 146.419L516.926 146.726L515.514 149.918L512.621 154.093H511.31L510.637 158.268L506.905 159.158V162.351L504.853 163.425L504.55 165.543V166.096L503.945 169.043L504.55 170.885L507.778 173.023L512.268 177.082H513.479L515.849 173.023H517.564L518.522 174.476L520.086 173.023H524.525L525.736 168.03L531.285 164.898V161.26L532.243 160.846L535.724 162.273L536.783 161.766L542.079 155.596L542.433 153.385L543.694 153.108C543.694 153.108 547.779 148.872 547.931 148.872C547.97 148.872 548.173 148.887 548.454 148.909L548.234 147.951L547.426 146.896Z" fill="#F1F1F1"/>
<path d="M580.185 156.673L581.356 154.954L579.607 153.726L580.346 152.683L579.877 151.024L577.051 148.753L576.715 145.438L574.429 143.288L573.016 141.507L572.007 139.482L571.066 139.236L569.452 140.648L569.437 140.65L575.404 156.673H580.185Z" fill="#F1F1F1"/>
<path d="M575.403 156.673L569.435 140.65L530.779 146.527L531.384 154.309H532.696L535.975 148.461L540.06 146.942L547.424 146.896L548.231 147.955L548.452 148.913C549.271 148.978 550.754 149.106 550.754 149.106L552.519 152.33L556.302 153.481L557.16 154.633L557.26 155.83C557.26 155.83 556.353 157.58 556.252 157.949C556.151 158.317 557.26 160.105 557.26 160.105C557.26 160.105 560.489 160.85 560.64 160.85C560.792 160.85 563.464 161.311 563.464 161.311L566.592 162.754L568.34 163.183L568.777 162.017L567.835 160.882L565.885 157.536L565.549 156.615L565.953 154.343L565.549 152.255L566.423 151.641L566.356 151.027L565.078 150.29L564.809 149.922L564.607 148.51L568.171 145.071L568.44 145.624L567.835 147.22C567.835 147.22 567.231 147.895 567.365 148.386C567.5 148.877 568.508 149.737 568.508 149.737L568.979 152.131L568.845 153.298L567.635 154.034L568.038 155.262L568.845 155.446L570.19 156.674L569.585 157.718L570.527 160.665L571.132 161.095L572.006 159.868L573.822 160.052L574.226 162.263L574.562 163.982H575.571L577.992 162.508L578.665 160.236L579.809 159.622V157.227L580.185 156.675H575.403V156.673Z" fill="#F1F1F1"/>
<path d="M574.361 134.57V132.237L570.931 129.781V124.255L572.815 122.597C572.815 122.597 572.739 121.347 572.658 119.918L572.244 119.773L567.906 117.932V116.458L564.173 113.972L522.509 121.156L521.766 118.952L521.5 119.222L515.781 122.425L519.415 146.421L520.088 148.095L530.782 146.529L569.452 140.65L570.932 139.356V138.378L574.361 134.57Z" fill="#F1F1F1"/>
<path d="M579.54 128.737C579.204 128.737 578.396 128.061 578.396 127.877C578.396 127.692 578.8 126.035 578.8 126.035L580.185 125.841V122.536L572.658 119.917C572.738 121.347 572.814 122.597 572.814 122.597L570.931 124.254V129.78L574.361 132.236V134.569L570.931 138.376V139.354L571.065 139.236L572.006 139.481L573.015 141.507H574.697L575.84 142.428L577.993 144.577L578.733 144.086L579.069 141.937L580.884 138.376L581.893 135.613V131.315V129.043C581.893 129.043 579.876 128.737 579.54 128.737Z" fill="#F1F1F1"/>
<path d="M583.187 119.496L582.363 113.97L581.354 110.071V100.37L579.135 91.8713L575.403 88.7043V82.1956C575.403 82.1956 573.266 78.7796 571.081 75.1135L557.008 78.511L548.803 91.4662L549.812 92.0184L551.023 92.0796L550.687 93.6759L551.897 96.4387C551.897 96.4387 552.031 96.8686 551.897 97.053C551.762 97.2374 551.426 98.0971 551.426 98.0971L546.316 101.659L541.944 102.518L538.312 102.273L536.159 101.966L526.474 104.975L526.608 107.369L529.164 109.457L529.097 111.483L521.763 118.949L522.505 121.153L564.169 113.969L567.903 116.456V117.929L572.24 119.771L580.182 122.534V125.839L580.546 125.787L581.89 127.752L584.514 127.446L586.935 126.709C586.935 126.709 587.675 125.113 587.877 125.052C588.079 124.991 592.383 123.64 592.383 123.64L598.502 120.017L600.991 118.298L600.386 117.745L597.897 118.175L595.275 119.895L594.67 120.14L592.249 120.693L589.827 121.552L587.608 123.64L584.851 124.561L583.438 124.437L581.823 124.069V123.148L582.769 122.729L582.226 121.843L583.187 119.496Z" fill="#F1F1F1"/>
<path d="M581.354 109.799V110.072L582.363 113.971L583.187 119.496L582.228 121.845L582.771 122.731L584.044 122.167L590.164 117.747L600.173 113.635L597.92 105.616L581.354 109.799Z" fill="#F1F1F1"/>
<path d="M606.542 107.615H604.423L601.304 104.76L597.921 105.616L600.174 113.635L602.271 112.773L603.347 109.703L604.894 111.116L606.642 110.87L607.414 108.932L606.542 107.615Z" fill="#F1F1F1"/>
<path d="M600.589 96.4715L581.354 100.6V109.8L601.303 104.761L604.422 107.616H606.541L607.413 108.932L607.448 108.844L608.861 107.247L611.147 108.782L615.519 105.835H616.864L617.335 105.099L617.133 103.196L616.797 102.09L614.78 100.31C614.78 100.31 614.04 99.6341 613.838 99.6341C613.636 99.6341 613.165 99.8185 612.829 100.186C612.493 100.555 612.358 100.862 612.358 100.862L613.434 101.168H614.241L615.787 102.58L616.056 103.87L613.837 105.282L612.626 105.896L610.34 104.852C610.34 104.852 609.802 103.501 609.802 103.134C609.802 102.766 609.466 101.23 609.466 101.23L607.65 100.616L604.086 100.985L604.288 99.6341L606.508 97.5467L606.911 95.4593H605.701L605.028 93.6174H602.002L600.589 96.4715Z" fill="#F1F1F1"/>
<path d="M626.752 56.8385L621.237 56.2863L614.847 39.9877L610.475 39.377L606.373 37.5591H605.365L604.154 39.377H601.33L599.715 38.1733L598.706 38.8488L594.738 52.6637L596.891 55.9176L596.958 58.0662L596.151 59.5393L596.286 60.3991L595.95 61.6267L595.21 62.3633L594.605 64.2663L594.941 66.3537L592.713 67.0407C596.313 75.7901 603.616 92.5097 603.616 92.5097L604.89 92.7463L606.575 91.0365V88.5192L608.257 87.7826L608.795 87.2916L608.66 85.7564L609.4 83.669L610.61 83.7302L608.727 82.0727C608.727 82.0727 608.256 82.0726 608.727 81.766C609.198 81.4593 610.408 81.1517 610.408 81.1517L611.551 81.766C611.551 81.766 612.762 82.9936 612.964 82.9324C613.166 82.8713 613.233 81.3972 613.233 81.3972L612.224 80.6607L612.493 79.371L612.897 77.7746C612.897 77.7746 614.914 77.2224 615.116 77.6514C615.318 78.0813 615.587 78.6956 615.587 78.6956L616.394 78.5724L615.923 70.0996L617.336 71.4504L617.942 71.8235L618.681 71.1437C618.681 71.1437 619.421 70.5294 619.892 70.5915C620.363 70.6526 621.17 71.4513 621.17 71.4513L622.246 71.8244L622.515 69.7938C622.515 69.7938 623.59 70.1004 623.658 70.1004C623.725 70.1004 624.263 70.837 624.263 70.837L625.003 69.7929L626.886 69.3018V68.3809L625.608 67.3988L626.482 67.0921L626.886 66.6622L628.701 65.9868L630.517 66.2323L631.257 65.0047L631.525 63.9809L626.752 56.8385Z" fill="#F1F1F1"/>
<path d="M587.476 90.2396L588.551 80.0472L590.367 78.512L590.765 75.6872L589.56 74.7051V70.6526L571.082 75.1137C573.267 78.7788 575.403 82.1958 575.403 82.1958V88.7044L579.136 91.8714L581.355 100.37V100.6L588.684 99.0262L588.918 94.2912L587.476 90.2396Z" fill="#F1F1F1"/>
<path d="M604.759 92.8792L604.89 92.7472L603.616 92.5105C603.616 92.5105 596.313 75.7909 592.713 67.0415L589.964 67.8889L589.56 70.6517V74.7042L590.765 75.6863L590.367 78.5112L588.551 80.0463L587.476 90.2387L588.918 94.2912L588.684 99.0262L600.59 96.4708L602.003 93.6158H605.029L604.759 92.8792Z" fill="#F1F1F1"/>
<path d="M162.565 211.042L163.574 208.279L170.534 199.253L167.71 191.517L125.643 133.68L128.77 128.798L126.753 128.062L136.941 98.9587L97.1053 87.4775H95.647L94.8402 88.2753L95.1091 89.7484L96.2528 91.5903L92.7557 96.9936V101.168L87.7119 105.651L87.4429 106.756L90.2003 113.633L89.1915 121.43L85.6943 123.579V124.254L88.1157 124.623L93.0256 132.912L91.008 136.228L92.4877 138.315H94.3712L96.6577 137.272L98.2723 136.106L105.603 137.211L99.281 137.948L98.3393 142.43H97.1956L96.5907 140.772C96.5907 140.772 95.6489 141.632 95.447 141.632C95.245 141.632 94.5732 142.676 94.5732 142.676L93.5644 152.93L94.9091 153.544H95.447L95.9848 158.088L98.9441 165.272L101.903 169.201L103.45 170.859L102.643 180.314C102.643 180.314 103.652 182.034 103.652 182.832C103.652 183.629 104.325 185.042 104.325 185.042L113.539 187.498L125.308 194.805L124.635 197.138L123.424 199.286L130.89 199.655L130.15 201.251L129.814 202.909L134.858 208.251L132.235 212.671L133.648 213.408L133.917 214.635L143.87 216.11L160.953 217.829L164.383 217.768L162.565 211.042Z" stroke="#D3D3D3" stroke-width="0.5" stroke-miterlimit="10"/>
<path d="M138.487 55.181L163.64 55.3042L179.647 59.8477L191.734 26.8472L191.619 26.8153L143.734 14.7261L142.658 15.3341L143.331 16.7461L142.658 22.8922L143.331 27.184L143.466 27.9206L141.18 28.4116L137.664 33.4462C137.664 33.4462 136.203 30.6223 136.607 30.2535C137.011 29.8848 138.49 22.8922 138.49 22.8922L132.438 22.1494L130.151 20.6754L124.368 15.3341H123.023L122.687 16.7461V23.3771V24.789L120.064 32.4021L121.543 34.1217L121.812 36.0867L119.723 38.7866V35.0417L119.118 34.9185L117.773 36.8215L118.177 39.9868L127.795 43.8824V46.4608L128.266 49.7767L138.487 55.181Z" stroke="#D3D3D3" stroke-width="0.5" stroke-miterlimit="10"/>
<path d="M178.303 70.776L183.682 68.1976L179.469 59.7965L163.641 55.3035L138.488 55.1812L128.266 49.7779L127.795 46.462L117.774 41.4885L118.11 47.0151L111.991 53.4005L108.358 62.6719L99.9514 76.1793L95.6475 76.978V77.9601L97.1941 79.5564V87.477H97.1057L136.942 98.9582L167.003 105.897L178.303 70.776Z" stroke="#D3D3D3" stroke-width="0.5" stroke-miterlimit="10"/>
<path d="M229.348 88.9191L226.221 88.2747C226.221 88.2747 224.606 87.3538 224.304 87.477C224.001 87.5993 211.593 85.6963 211.593 85.6963L207.154 78.9731L204.733 68.3819L204.128 68.0132L202.312 69.4872H201.506L201.91 65.8034L205.239 57.6985L202.514 53.0938L201.607 47.1072L195.755 38.6344C195.755 38.6344 197.2 32.7187 198.273 28.6556L191.736 26.8474L179.648 59.8479L179.469 59.7974L183.683 68.1984L178.302 70.7769L167.004 105.897L222.691 117.931L229.348 88.9191Z" stroke="#D3D3D3" stroke-width="0.5" stroke-miterlimit="10"/>
<path d="M167.785 184.656L170.534 176.459L174.468 176.874L177.192 179.821L177.545 179.729L193.74 111.675L167.003 105.897L136.941 98.958L126.751 128.061L128.769 128.798L125.642 133.679L167.71 191.517L169.424 188.893L167.785 184.656Z" stroke="#D3D3D3" stroke-width="0.5" stroke-miterlimit="10"/>
<path d="M180.013 169.361L177.546 179.729L177.192 179.821L174.469 176.874L170.535 176.459L167.786 184.656L169.425 188.893L167.711 191.518L170.535 199.255L163.575 208.281L162.566 211.043L164.381 217.766L160.951 217.828L159.472 219.976L159.842 221.266C159.842 221.266 199.387 240.883 199.185 241.16C199.051 241.343 212.433 242.993 221.415 244.078L231.568 178.349L180.013 169.361Z" stroke="#D3D3D3" stroke-width="0.5" stroke-miterlimit="10"/>
<path d="M293.307 90.6696L299.763 45.1482L200.496 29.2707L198.271 28.6555C197.199 32.7186 195.754 38.6343 195.754 38.6343L201.605 47.1071L202.513 53.0937L205.238 57.6984L201.908 65.8033L201.505 69.4871H202.311L204.127 68.0131L204.732 68.3818L207.153 78.973L211.592 85.6962C211.592 85.6962 224 87.5992 224.303 87.4769C224.606 87.3537 226.22 88.2746 226.22 88.2746L229.347 88.919L230.598 82.4414L293.307 90.6696Z" stroke="#D3D3D3" stroke-width="0.5" stroke-miterlimit="10"/>
<path d="M220.404 128.737L222.69 117.931L193.741 111.675L180.014 169.361L231.568 178.347L239.1 132.052L220.404 128.737Z" stroke="#D3D3D3" stroke-width="0.5" stroke-miterlimit="10"/>
<path d="M360.694 66.9999L357.164 51.0665L358.314 48.5474L358.274 48.5492L299.763 45.1482L294.922 79.2744L362.107 83.4855L360.694 66.9999Z" stroke="#D3D3D3" stroke-width="0.5" stroke-miterlimit="10"/>
<path d="M293.307 90.6696L230.6 82.4414L229.348 88.919L222.69 117.931L220.403 128.737L239.1 132.052L287.253 138.069L293.307 90.6696Z" stroke="#D3D3D3" stroke-width="0.5" stroke-miterlimit="10"/>
<path d="M302.992 185.992L306.758 139.298L287.254 138.069L239.101 132.052L231.568 178.347L291.491 185.992H302.992Z" stroke="#D3D3D3" stroke-width="0.5" stroke-miterlimit="10"/>
<path d="M286.582 244.076L291.899 185.991H291.491L231.568 178.347L221.414 244.076C225.938 244.622 229.348 245.027 229.348 245.027L230.6 240.514L241.958 242.356L249.524 243.093V240.36L286.582 244.076Z" stroke="#D3D3D3" stroke-width="0.5" stroke-miterlimit="10"/>
<path d="M390.254 263.078C390.355 262.801 391.565 261.88 391.565 261.88L392.271 260.038L389.85 258.473L388.639 256.355V251.658L384.907 245.671V231.12V230.199L382.486 229.554L380.367 230.199L373.709 226.054L361.099 227.804L359.989 226.33L355.449 225.132V227.066H354.137L353.129 224.764L351.414 226.053L345.261 227.066L341.729 222.185L340.822 223.606H338.602L329.018 218.225L321.755 216.751L322.764 193.358L291.42 191.207L286.581 244.075L249.523 240.358V243.091L264.252 259.761L268.085 271.55L282.612 280.299L283.418 279.563C283.418 279.563 285.739 274.313 285.84 274.037C285.941 273.76 290.279 270.353 290.279 270.353L305.915 274.958L312.876 282.51L319.131 295.312L322.864 297.246L323.873 300.285L324.982 307.193L334.566 316.955H343.443L348.084 319.441H349.093L349.597 315.758L344.453 302.587H347.58L348.488 297.154L345.864 296.693L345.561 295.864L350.504 295.495L358.373 290.154L374.111 282.51L377.541 282.694V281.22L376.229 280.851L374.917 276.062C374.917 276.062 378.852 274.313 378.852 274.588C378.852 274.864 378.852 279.285 378.852 279.285L388.637 275.325L388.889 275.302L389.646 271.549C389.648 271.551 390.153 263.354 390.254 263.078Z" stroke="#D3D3D3" stroke-width="0.5" stroke-miterlimit="10"/>
<path d="M379.795 188.908L302.991 185.992H291.898L291.42 191.209L322.763 193.359L321.755 216.752L329.018 218.225L338.602 223.607H340.821L341.729 222.186L345.26 227.067L351.413 226.054L353.129 224.765L354.138 227.067H355.449V225.133L359.988 226.33L361.098 227.804L373.708 226.054L380.367 230.199L381.876 229.739L379.795 195.416V188.908Z" stroke="#D3D3D3" stroke-width="0.5" stroke-miterlimit="10"/>
<path d="M346.301 122.474L353.566 120.387L362.846 124.316L362.106 115.597L359.349 112.895H362.846L362.106 83.4856L294.921 79.2744L293.306 90.6696L290.167 115.247L330.564 117.193L346.301 122.474Z" stroke="#D3D3D3" stroke-width="0.5" stroke-miterlimit="10"/>
<path d="M411.136 108.076L409.018 107.708V106.51L405.487 105.589L402.965 102.182L400.847 101.796L395.701 96.9321L397.618 92.6961V91.4986L396.408 86.433L397.416 85.6043L399.434 84.8677L401.048 83.4858L402.965 76.1183V72.2502L404.983 70.3161L407.605 69.5787L408.715 65.8949L424.553 58.9874L423.645 58.1587L422.434 57.2377L413.457 57.5143L408.211 58.343L405.487 58.4352L401.552 57.3299L397.82 56.6855L397.114 53.4618L395.399 53.2774L394.591 55.2115L390.556 54.2905L380.871 50.8833L377.913 49.5325L374.819 47.8315L358.315 48.5477L357.165 51.0668L360.695 67.0002L362.108 83.4858L362.848 112.896H411.136V108.076Z" stroke="#D3D3D3" stroke-width="0.5" stroke-miterlimit="10"/>
<path d="M422.132 79.2745L427.681 78.42L437.669 83.9457L440.796 88.9191L442.974 91.8716L443.52 89.9322L447.858 84.2222L450.683 82.5647L451.489 85.4197L452.7 85.5119L453.104 83.0256L453.508 81.7359L460.065 78.6966L465.513 79.1575L467.934 80.815L468.338 79.8019L468.136 78.5122L477.115 78.42L477.519 77.3147L474.493 75.7494L470.559 72.71L465.716 73.0788L464.606 71.8245L464.303 69.2106L456.333 71.329L451.289 73.6318L451.087 75.0137L450.885 76.3034L448.565 75.7503L447.051 74.645L443.621 74.9215L438.073 71.4221L434.844 72.7118L434.239 71.4221L434.138 69.2115L437.771 67.3696L440.091 65.2512L441.403 64.4224L440.697 62.5806C440.697 62.5806 439.486 62.6728 438.78 63.1328C438.074 63.5937 436.057 63.357 435.552 63.9819C435.047 64.6068 430.81 65.8034 430.81 65.8034C430.81 65.8034 429.7 67.4609 429.7 68.1062C429.7 68.7506 429.7 69.6715 429.7 69.6715L422.235 72.3422L419.209 73.9997V75.565V76.5781L422.132 79.2745Z" stroke="#D3D3D3" stroke-width="0.5" stroke-miterlimit="10"/>
<path d="M372.532 153.051L370.379 147.647L367.42 145.01L366.613 136.105L363.52 127.754L362.847 124.316L353.566 120.387L346.302 122.474L330.565 117.193L290.168 115.247L287.253 138.069L306.757 139.298L305.828 150.814L372.532 153.051Z" stroke="#D3D3D3" stroke-width="0.5" stroke-miterlimit="10"/>
<path d="M375.491 161.523L377.508 156.366L372.532 153.051L305.828 150.814L302.991 185.992L379.795 188.908L378.719 164.225L375.491 161.523Z" stroke="#D3D3D3" stroke-width="0.5" stroke-miterlimit="10"/>
<path d="M409.926 149.981H411.741L415.777 142.981L415.575 139.758L423.141 132.39V131.285L412.75 121.246V115.247L411.136 112.895H362.848H359.351L362.108 115.597L362.848 124.316L363.521 127.754L366.614 136.105L367.421 145.01L370.151 147.443L407.504 147.678L409.926 149.981Z" stroke="#D3D3D3" stroke-width="0.5" stroke-miterlimit="10"/>
<path d="M427.007 198.609H432.455V195.601C432.455 195.601 432.724 191.856 432.926 191.856C433.127 191.856 437.163 191.856 437.163 191.856L437.902 190.505L436.221 187.926L432.791 185.992L432.118 180.19L423.577 172.945L424.25 171.717L425.258 171.042L424.721 166.007L421.627 165.701L412.01 157.841L411.478 149.982H409.925L407.504 147.679L370.15 147.444L370.38 147.648L372.532 153.051L377.509 156.367L375.491 161.525L378.72 164.227L379.795 188.909V195.418L379.815 195.737L426.537 194.067L427.007 198.609Z" stroke="#D3D3D3" stroke-width="0.5" stroke-miterlimit="10"/>
<path d="M420.112 232.962L418.095 226.699L418.701 225.225L428.586 210.122V208.095L432.219 202.293L432.454 198.609H427.007L426.536 194.066L379.813 195.735L381.876 229.74L382.484 229.554L384.906 230.199V231.12V236.001H419.004L420.112 232.962Z" stroke="#D3D3D3" stroke-width="0.5" stroke-miterlimit="10"/>
<path d="M432.925 262.801L433.43 259.025L413.354 260.683L421.123 244.105L419.004 236H384.906V245.67L388.638 251.657V256.354L389.849 258.472L392.27 260.037L391.565 261.879C391.565 261.879 390.354 262.8 390.253 263.077C390.152 263.353 389.647 271.549 389.647 271.549L388.89 275.302L394.59 274.773L395.498 270.997L396.809 274.589L403.367 276.615L410.327 276.246L407.604 273.391L413.253 272.47L414.161 276.523L418.196 276.154L416.784 279.562L419.003 279.378L420.416 280.76L424.754 281.496L426.771 278.641L428.083 279.286L428.991 281.864L431.109 281.035V277.167L433.632 277.628L436.355 281.865L440.088 279.47L437.365 277.905L435.549 274.498L438.979 273.945L438.474 270.814L436.154 273.117L432.825 273.024L433.128 270.722L435.65 269.801L432.522 269.525L427.478 271.643L426.368 269.802L423.846 269.525L423.442 268.051L425.964 266.853L430.302 266.209L436.759 268.051H436.961V267.499L432.925 262.801Z" stroke="#D3D3D3" stroke-width="0.5" stroke-miterlimit="10"/>
<path d="M449.067 212.362H448.26V210.766L428.588 210.121L418.701 225.225L418.096 226.698L420.114 232.961L419.004 236.001L421.123 244.106L413.354 260.683L433.43 259.026L432.925 262.802L436.96 267.499V268.051H440.087L441.096 267.13L448.529 266.225C448.026 259.654 447.35 250.784 447.35 250.552C447.352 250.184 449.067 212.362 449.067 212.362Z" stroke="#D3D3D3" stroke-width="0.5" stroke-miterlimit="10"/>
<path d="M519.078 259.64L518.203 259.762L516.926 258.166L487.065 258.933L485.249 256.446L457.675 257.736L458.911 265.963L459.457 265.749L462.383 263.17L462.989 266.946L468.739 266.577L468.133 264.551L466.52 263.446L468.739 262.617H471.06V264.182L469.446 265.472L472.977 265.011L475.096 265.103L476.71 266.024L477.315 265.84L478.324 264.827L479.03 264.55C479.03 264.55 480.744 265.379 480.845 265.655C480.946 265.932 480.038 267.221 480.038 267.221L481.955 270.997H484.88H489.521L491.438 269.524L494.767 266.853L497.591 265.932L500.92 266.853L500.416 268.787L501.659 269.033L504.484 269.401C504.484 269.401 505.425 271.059 505.425 270.998C505.425 270.936 506.838 271.919 506.838 271.919L509.058 273.024C509.058 273.024 509.393 275.541 509.259 275.91C509.125 276.279 509.932 276.279 509.932 276.279L511.008 275.112L512.892 276.279L514.438 279.717L513.563 284.875C513.563 284.875 513.227 290.032 513.294 290.4C513.361 290.769 515.581 292.365 515.581 292.365L516.321 291.935L516.59 290.585L518.607 289.479V293.347L517.061 294.698L516.052 295.25L515.783 297.338L517.598 300.715L519.347 301.636L520.76 300.838L523.584 300.163C523.584 300.163 525.266 302.005 525.266 302.189C525.266 302.373 523.921 303.909 523.921 303.909C523.921 303.909 522.105 304.215 521.903 304.338C521.701 304.462 521.836 306.18 521.836 306.18L522.643 307.101L524.796 306.733L526.88 304.952L530.781 312.197L533.001 312.504L536.498 313.118V314.469L535.287 315.82L534.278 316.864L534.614 317.969H536.497V319.443C536.497 319.443 535.69 320.18 535.69 320.364C535.69 320.548 536.497 321.592 536.497 321.592L541.407 321.101L544.231 318.583C544.231 318.583 544.029 317.109 544.231 316.926C544.433 316.741 544.231 315.821 544.231 315.821L543.895 312.689L545.779 310.847L547.662 309.312L547.393 304.154L544.434 295.619L534.211 280.453L534.547 279.594L536.7 280.269L536.835 279.225L531.051 274.19C531.051 274.19 532.666 273.454 532.733 273.269C532.8 273.085 527.554 263.937 527.554 263.937L527.285 258.902L526.331 255.524L520.157 255.218L519.078 259.64Z" stroke="#D3D3D3" stroke-width="0.5" stroke-miterlimit="10"/>
<path d="M445.334 121.061L442.51 114.338L441.905 109.917L448.261 94.0758L449.572 89.0102L447.151 91.7731L444.427 95.7334C444.427 95.7334 442.207 96.2856 442.005 97.023C441.803 97.7596 440.089 100.891 440.089 100.891L439.383 98.1283L442.611 93.1549L442.973 91.8706L440.795 88.9181L437.668 83.9446L427.681 78.419L422.132 79.2734L419.207 76.5771V75.564L416.785 76.4849L415.271 75.9327L413.758 72.709L412.345 73.1699L402.963 76.1171L401.047 83.4846L399.433 84.8665L397.416 85.603L396.407 86.4318L397.618 91.4974V92.6949L395.701 96.9317L400.846 101.795L402.964 102.182L405.487 105.589L409.018 106.51V107.707L411.136 108.076V112.896L412.751 115.247V121.247L415.38 123.787L445.428 122.923L445.334 121.061Z" stroke="#D3D3D3" stroke-width="0.5" stroke-miterlimit="10"/>
<path d="M442.61 186.083L445.234 183.873L451.084 165.638L448.607 129.679L445.537 125.114L445.427 122.922L415.379 123.786L423.141 131.285V132.39L415.575 139.758L415.777 142.981L411.741 149.981H411.479L412.01 157.84L421.627 165.699L424.722 166.006L425.259 171.04L424.251 171.716L423.578 172.944L432.119 180.189L432.792 185.992L436.222 187.926L436.703 188.665L438.424 185.392L442.61 186.083Z" stroke="#D3D3D3" stroke-width="0.5" stroke-miterlimit="10"/>
<path d="M484.308 248.096L486.325 240.237L481.752 233.115L476.238 209.169L448.26 210.766V212.362H449.067C449.067 212.362 447.353 250.184 447.353 250.552C447.353 250.784 448.028 259.654 448.531 266.225L448.663 266.209L451.992 265.288L453.405 257.183L455.423 265.748L453.001 267.682L453.606 268.051L458.911 265.964L457.675 257.736L485.249 256.447L485.383 254.175L484.308 248.096Z" stroke="#D3D3D3" stroke-width="0.5" stroke-miterlimit="10"/>
<path d="M474.422 128.798L474.757 129.78L492.176 128.49L492.561 128.121L491.772 127.937C491.772 127.937 491.368 127.692 491.57 126.771C491.772 125.85 492.445 123.762 492.445 123.762L493.185 120.938L493.959 118.298L495.472 118.021L496.784 115.718L492.85 101.259C492.85 101.259 490.127 99.8772 489.824 100.062C489.521 100.246 489.521 100.246 489.521 100.246L487.503 101.536L486.091 101.996L484.779 103.47L483.669 105.588L480.138 105.772L479.734 103.931L482.156 100.891L484.072 99.9703L484.375 98.0362L483.669 90.5765L483.064 88.4581L484.88 88.1815L481.551 84.9578L477.718 84.4969L473.885 83.3916L470.959 81.4575L467.933 82.9307L468.135 85.6935C468.135 85.6935 465.412 86.9832 465.311 87.2588C465.21 87.5354 465.109 92.4166 465.109 92.4166L463.696 93.1532L463.091 90.0216V88.5476L460.973 91.0348L458.551 95.0873L455.827 96.4691L456.433 99.6928L455.928 106.139L456.332 109.455L459.56 113.416L459.156 125.02L454.453 129.095C454.677 129.483 454.851 129.778 454.851 129.778L474.422 128.798Z" stroke="#D3D3D3" stroke-width="0.5" stroke-miterlimit="10"/>
<path d="M450.227 176.828L452.598 175.953L454.868 176.183L456.582 176.644L457.995 176.321L459.206 175.953H462.888L464.149 171.9L465.512 172.039L467.479 174.295L473.329 168.539V166.651L478.474 164.165L478.928 161.126L476.911 144.87L474.758 129.782L474.422 128.8L454.851 129.782C454.851 129.782 454.677 129.487 454.453 129.098L453.204 130.181L450.681 131.286L449.067 130.365L448.607 129.68L451.086 165.638L446.914 178.64L450.229 178.394V176.828H450.227Z" stroke="#D3D3D3" stroke-width="0.5" stroke-miterlimit="10"/>
<path d="M501.525 210.121V209.169L502.669 206.959L487.403 208.094L476.238 209.168L481.753 233.114L486.326 240.236L484.308 248.095L485.384 254.174L485.25 256.446L487.066 258.933L516.927 258.165L518.204 259.762L519.079 259.639L520.155 255.218L526.329 255.525L526.207 255.096L525.199 253.745C525.199 253.745 525.064 251.78 525.064 251.596C525.064 251.413 526.139 250.43 526.139 250.43C526.139 250.43 525.937 246.009 526.139 245.886C526.341 245.763 527.686 245.211 527.686 245.211L528.157 242.203L529.771 241.343L530.645 239.869L530.511 238.641L528.763 238.089L526.879 238.888L525.736 238.089L525.937 234.098L525.063 232.625L501.525 210.121Z" stroke="#D3D3D3" stroke-width="0.5" stroke-miterlimit="10"/>
<path d="M529.267 206.069L524.425 203.214L507.78 204.135L502.669 206.959L501.525 209.169V210.121L525.065 232.625L525.94 234.098L527.823 236.554H530.984L534.616 236.432V235.449L532.397 234.835C532.397 234.835 531.993 234.405 531.993 234.099C531.993 233.792 533.002 233.054 533.002 233.054L535.154 233.361L537.172 233.3L542.082 228.265L542.284 224.949L542.956 224.029L544.436 225.318L544.907 226.608L547.26 223.608L548.135 221.758V219.363L552.895 214.362L537.946 204.78L529.267 206.069Z" stroke="#D3D3D3" stroke-width="0.5" stroke-miterlimit="10"/>
<path d="M496.783 203.214L504.853 196.675L514.739 189.491L515.445 186.821L496.177 188.908L447.35 191.209V193.175L432.581 194.065C432.505 194.876 432.454 195.6 432.454 195.6V198.608L432.218 202.292L428.586 208.094V210.121L448.258 210.765L476.236 209.169L487.4 208.094L488.376 208.022L491.234 204.871L496.783 203.214Z" stroke="#D3D3D3" stroke-width="0.5" stroke-miterlimit="10"/>
<path d="M514.74 189.491L504.853 196.675L496.783 203.214L491.234 204.872L488.376 208.023L502.668 206.959L507.778 204.135L524.423 203.214L529.265 206.069L537.941 204.779L552.891 214.361L553.04 214.204L555.26 213.835V212.791L557.009 213.037L557.479 211.011L559.026 212.423L560.237 213.528C560.237 213.528 560.573 213.528 560.708 213.343C560.843 213.159 560.708 211.011 560.708 211.011L562.187 208.002L564.676 205.239V204.257H563.196L563.129 202.17C563.129 202.17 565.551 201.249 565.751 201.126C565.953 201.003 570.257 200.02 570.257 200.02L572.88 199.223H574.494V196.152H573.553L571.602 197.687L570.66 197.994L568.508 197.319C568.508 197.319 567.23 196.767 568.441 196.767C569.652 196.767 571.467 196.705 571.467 196.705C571.467 196.705 572.476 195.478 572.476 195.232C572.476 194.987 572.005 194.679 572.005 194.679L569.248 195.232L566.423 194.679L567.029 193.083L569.585 193.452L570.391 193.575L570.189 191.364L571.265 191.487L571.803 193.084C571.803 193.084 572.745 193.881 572.947 193.881C573.149 193.881 576.646 190.934 576.646 190.934L574.493 190.32C574.493 190.32 573.418 190.381 573.418 190.32C573.418 190.259 573.754 189.706 573.754 189.706H576.646L578.26 188.355L578.126 185.838L576.982 183.811L575.939 184.118L576.141 187.833L575.166 187.864L574.83 187.035V185.408L573.587 185.284L571.434 186.604L568.711 187.402C568.711 187.402 567.332 187.033 567.399 186.819C567.466 186.604 569.417 185.038 569.417 185.038L571.266 184.885L571.535 183.227L573.419 183.81H574.461L574.898 183.135L573.755 180.955L574.326 180.557L575.402 181.324L578.664 184.118L575.974 179.206L574.965 177.978L574.989 177.768L515.445 186.819L514.74 189.491Z" stroke="#D3D3D3" stroke-width="0.5" stroke-miterlimit="10"/>
<path d="M499.205 182.584L507.074 177.769L507.78 173.026L504.552 170.887L503.947 169.045L504.552 166.098V165.546H501.525L499.003 163.243H497.59H496.279H491.134L488.376 161.953L478.8 160.104L478.927 161.125L478.472 164.164L473.328 166.65V168.538L467.477 174.294L465.51 172.038L464.148 171.899L462.887 175.952H459.204L457.993 176.321L456.581 176.643L454.866 176.182L452.596 175.952L450.225 176.827V178.392L446.91 178.638L445.231 183.872L442.607 186.082L438.421 185.392L436.701 188.664L437.9 190.503L437.16 191.854C437.16 191.854 433.125 191.854 432.923 191.854C432.809 191.854 432.675 193.03 432.579 194.065L447.348 193.175V191.209L494.245 188.998L498.898 184.333L499.205 182.584Z" stroke="#D3D3D3" stroke-width="0.5" stroke-miterlimit="10"/>
<path d="M506.905 162.353V159.161L510.637 158.271L511.31 154.096H512.622L515.514 149.921L516.927 146.729L519.415 146.422L515.781 122.426L515.581 122.538C515.581 122.538 513.765 121.923 513.362 122.108C512.958 122.292 505.224 128.309 505.224 128.309C505.224 128.309 502.735 127.449 502.533 127.449C502.331 127.449 498.834 129.721 498.834 129.721L495.471 131.317L493.318 130.948L494.462 129.904L495.74 129.106L495.471 128.799L492.56 128.123L492.176 128.492L474.757 129.782L476.909 144.871L478.801 160.106L488.377 161.955L491.134 163.245H496.279H497.59H499.003L501.525 165.548H504.552L504.855 163.43L506.905 162.353Z" stroke="#D3D3D3" stroke-width="0.5" stroke-miterlimit="10"/>
<path d="M560.641 160.848C560.489 160.848 557.261 160.104 557.261 160.104C557.261 160.104 556.151 158.316 556.252 157.947C556.353 157.578 557.261 155.829 557.261 155.829L557.16 154.631L556.303 153.48L552.519 152.328L550.754 149.105C550.754 149.105 548.081 148.874 547.93 148.874C547.778 148.874 543.693 153.111 543.693 153.111L542.432 153.388L542.078 155.598L536.782 161.769L535.723 162.276L532.242 160.848L531.284 161.263V164.901L525.735 168.032L524.524 173.026H520.086L518.521 174.479L517.563 173.026H515.849L513.478 177.085H512.267L507.777 173.026L507.072 177.769L499.203 182.584L498.9 184.334L494.246 188.999L496.176 188.907L515.445 186.82L574.988 177.769L575.401 174.08L574.09 174.326L573.686 175.278L570.223 175.001L570.055 175.769L567.902 174.879L565.549 173.251C565.549 173.251 562.623 172.423 562.555 172.515C562.488 172.607 560.302 172.883 560.302 172.883L560.504 171.931L563.059 171.225L565.716 172.699L569.247 173.804C569.247 173.804 570.625 174.234 570.659 173.927C570.693 173.62 569.483 172.269 569.483 172.269L568.037 171.225V168.953L566.221 168.462C566.221 168.462 565.516 168.124 565.516 167.94C565.516 167.756 566.692 167.234 566.692 167.234L567.163 166.712L566.389 166.097L566.591 162.751L563.464 161.308C563.466 161.309 560.792 160.848 560.641 160.848Z" stroke="#D3D3D3" stroke-width="0.5" stroke-miterlimit="10"/>
<path d="M547.426 146.896L540.062 146.942L535.976 148.461L532.697 154.309H531.386L530.781 146.527L520.087 148.092L519.415 146.419L516.926 146.726L515.514 149.918L512.621 154.093H511.31L510.637 158.268L506.905 159.158V162.351L504.853 163.425L504.55 165.543V166.096L503.945 169.043L504.55 170.885L507.778 173.023L512.268 177.082H513.479L515.849 173.023H517.564L518.522 174.476L520.086 173.023H524.525L525.736 168.03L531.285 164.898V161.26L532.243 160.846L535.724 162.273L536.783 161.766L542.079 155.596L542.433 153.385L543.694 153.108C543.694 153.108 547.779 148.872 547.931 148.872C547.97 148.872 548.173 148.887 548.454 148.909L548.234 147.951L547.426 146.896Z" stroke="#D3D3D3" stroke-width="0.5" stroke-miterlimit="10"/>
<path d="M580.185 156.673L581.356 154.954L579.607 153.726L580.346 152.683L579.877 151.024L577.051 148.753L576.715 145.438L574.429 143.288L573.016 141.507L572.007 139.482L571.066 139.236L569.452 140.648L569.437 140.65L575.404 156.673H580.185Z" stroke="#D3D3D3" stroke-width="0.5" stroke-miterlimit="10"/>
<path d="M575.403 156.673L569.435 140.65L530.779 146.527L531.384 154.309H532.696L535.975 148.461L540.06 146.942L547.424 146.896L548.231 147.955L548.452 148.913C549.271 148.978 550.754 149.106 550.754 149.106L552.519 152.33L556.302 153.481L557.16 154.633L557.26 155.83C557.26 155.83 556.353 157.58 556.252 157.949C556.151 158.317 557.26 160.105 557.26 160.105C557.26 160.105 560.489 160.85 560.64 160.85C560.792 160.85 563.464 161.311 563.464 161.311L566.592 162.754L568.34 163.183L568.777 162.017L567.835 160.882L565.885 157.536L565.549 156.615L565.953 154.343L565.549 152.255L566.423 151.641L566.356 151.027L565.078 150.29L564.809 149.922L564.607 148.51L568.171 145.071L568.44 145.624L567.835 147.22C567.835 147.22 567.231 147.895 567.365 148.386C567.5 148.877 568.508 149.737 568.508 149.737L568.979 152.131L568.845 153.298L567.635 154.034L568.038 155.262L568.845 155.446L570.19 156.674L569.585 157.718L570.527 160.665L571.132 161.095L572.006 159.868L573.822 160.052L574.226 162.263L574.562 163.982H575.571L577.992 162.508L578.665 160.236L579.809 159.622V157.227L580.185 156.675H575.403V156.673Z" stroke="#D3D3D3" stroke-width="0.5" stroke-miterlimit="10"/>
<path d="M574.361 134.57V132.237L570.931 129.781V124.255L572.815 122.597C572.815 122.597 572.739 121.347 572.658 119.918L572.244 119.773L567.906 117.932V116.458L564.173 113.972L522.509 121.156L521.766 118.952L521.5 119.222L515.781 122.425L519.415 146.421L520.088 148.095L530.782 146.529L569.452 140.65L570.932 139.356V138.378L574.361 134.57Z" stroke="#D3D3D3" stroke-width="0.5" stroke-miterlimit="10"/>
<path d="M583.187 119.496L582.363 113.97L581.354 110.071V100.37L579.135 91.8713L575.403 88.7043V82.1956C575.403 82.1956 573.266 78.7796 571.081 75.1135L557.008 78.511L548.803 91.4662L549.812 92.0184L551.023 92.0796L550.687 93.6759L551.897 96.4387C551.897 96.4387 552.031 96.8686 551.897 97.053C551.762 97.2374 551.426 98.0971 551.426 98.0971L546.316 101.659L541.944 102.518L538.312 102.273L536.159 101.966L526.474 104.975L526.608 107.369L529.164 109.457L529.097 111.483L521.763 118.949L522.505 121.153L564.169 113.969L567.903 116.456V117.929L572.24 119.771L580.182 122.534V125.839L580.546 125.787L581.89 127.752L584.514 127.446L586.935 126.709C586.935 126.709 587.675 125.113 587.877 125.052C588.079 124.991 592.383 123.64 592.383 123.64L598.502 120.017L600.991 118.298L600.386 117.745L597.897 118.175L595.275 119.895L594.67 120.14L592.249 120.693L589.827 121.552L587.608 123.64L584.851 124.561L583.438 124.437L581.823 124.069V123.148L582.769 122.729L582.226 121.843L583.187 119.496Z" stroke="#D3D3D3" stroke-width="0.5" stroke-miterlimit="10"/>
<path d="M581.354 109.799V110.072L582.363 113.971L583.187 119.496L582.228 121.845L582.771 122.731L584.044 122.167L590.164 117.747L600.173 113.635L597.92 105.616L581.354 109.799Z" stroke="#D3D3D3" stroke-width="0.5" stroke-miterlimit="10"/>
<path d="M606.542 107.615H604.423L601.304 104.76L597.921 105.616L600.174 113.635L602.271 112.773L603.347 109.703L604.894 111.116L606.642 110.87L607.414 108.932L606.542 107.615Z" stroke="#D3D3D3" stroke-width="0.5" stroke-miterlimit="10"/>
<path d="M600.589 96.4715L581.354 100.6V109.8L601.303 104.761L604.422 107.616H606.541L607.413 108.932L607.448 108.844L608.861 107.247L611.147 108.782L615.519 105.835H616.864L617.335 105.099L617.133 103.196L616.797 102.09L614.78 100.31C614.78 100.31 614.04 99.6341 613.838 99.6341C613.636 99.6341 613.165 99.8185 612.829 100.186C612.493 100.555 612.358 100.862 612.358 100.862L613.434 101.168H614.241L615.787 102.58L616.056 103.87L613.837 105.282L612.626 105.896L610.34 104.852C610.34 104.852 609.802 103.501 609.802 103.134C609.802 102.766 609.466 101.23 609.466 101.23L607.65 100.616L604.086 100.985L604.288 99.6341L606.508 97.5467L606.911 95.4593H605.701L605.028 93.6174H602.002L600.589 96.4715Z" stroke="#D3D3D3" stroke-width="0.5" stroke-miterlimit="10"/>
<path d="M626.752 56.8385L621.237 56.2863L614.847 39.9877L610.475 39.377L606.373 37.5591H605.365L604.154 39.377H601.33L599.715 38.1733L598.706 38.8488L594.738 52.6637L596.891 55.9176L596.958 58.0662L596.151 59.5393L596.286 60.3991L595.95 61.6267L595.21 62.3633L594.605 64.2663L594.941 66.3537L592.713 67.0407C596.313 75.7901 603.616 92.5097 603.616 92.5097L604.89 92.7463L606.575 91.0365V88.5192L608.257 87.7826L608.795 87.2916L608.66 85.7564L609.4 83.669L610.61 83.7302L608.727 82.0727C608.727 82.0727 608.256 82.0726 608.727 81.766C609.198 81.4593 610.408 81.1517 610.408 81.1517L611.551 81.766C611.551 81.766 612.762 82.9936 612.964 82.9324C613.166 82.8713 613.233 81.3972 613.233 81.3972L612.224 80.6607L612.493 79.371L612.897 77.7746C612.897 77.7746 614.914 77.2224 615.116 77.6514C615.318 78.0813 615.587 78.6956 615.587 78.6956L616.394 78.5724L615.923 70.0996L617.336 71.4504L617.942 71.8235L618.681 71.1437C618.681 71.1437 619.421 70.5294 619.892 70.5915C620.363 70.6526 621.17 71.4513 621.17 71.4513L622.246 71.8244L622.515 69.7938C622.515 69.7938 623.59 70.1004 623.658 70.1004C623.725 70.1004 624.263 70.837 624.263 70.837L625.003 69.7929L626.886 69.3018V68.3809L625.608 67.3988L626.482 67.0921L626.886 66.6622L628.701 65.9868L630.517 66.2323L631.257 65.0047L631.525 63.9809L626.752 56.8385Z" stroke="#D3D3D3" stroke-width="0.5" stroke-miterlimit="10"/>
<path d="M587.476 90.2396L588.551 80.0472L590.367 78.512L590.765 75.6872L589.56 74.7051V70.6526L571.082 75.1137C573.267 78.7788 575.403 82.1958 575.403 82.1958V88.7044L579.136 91.8714L581.355 100.37V100.6L588.684 99.0262L588.918 94.2912L587.476 90.2396Z" stroke="#D3D3D3" stroke-width="0.5" stroke-miterlimit="10"/>
<path d="M604.759 92.8792L604.89 92.7472L603.616 92.5105C603.616 92.5105 596.313 75.7909 592.713 67.0415L589.964 67.8889L589.56 70.6517V74.7042L590.765 75.6863L590.367 78.5112L588.551 80.0463L587.476 90.2387L588.918 94.2912L588.684 99.0262L600.59 96.4708L602.003 93.6158H605.029L604.759 92.8792Z" stroke="#D3D3D3" stroke-width="0.5" stroke-miterlimit="10"/>
<path d="M579.54 128.737C579.204 128.737 578.396 128.061 578.396 127.877C578.396 127.692 578.8 126.035 578.8 126.035L580.185 125.841V122.536L572.658 119.917C572.738 121.347 572.814 122.597 572.814 122.597L570.931 124.254V129.78L574.361 132.236V134.569L570.931 138.376V139.354L571.065 139.236L572.006 139.481L573.015 141.507H574.697L575.84 142.428L577.993 144.577L578.733 144.086L579.069 141.937L580.884 138.376L581.893 135.613V131.315V129.043C581.893 129.043 579.876 128.737 579.54 128.737Z" stroke="#D3D3D3" stroke-width="0.5" stroke-miterlimit="10"/>
<path d="M158.086 302.795L161.617 257.021L145.879 252.539L134.917 244.496L124.896 245.295L121.063 246.768L116.961 249.961L109.698 250.882V252.171L111.783 255.242L112.387 259.601L114.607 262.364L115.078 265.126L114.271 265.679L110.908 265.188L110.504 260.767L99.8105 262.487V263.531L101.357 264.452L102.164 269.793L107.477 272.74C107.477 272.74 112.252 270.898 112.252 271.083C112.252 271.267 111.714 278.574 111.714 278.574L104.383 279.679L103.173 282.872L102.299 282.933L99.4066 279.249L93.6899 282.196L95.7075 288.397L93.9589 291.344L93.6899 293.064L98.8687 294.721L97.591 299.634L97.3891 300.861L102.5 300.37L104.988 304.484H107.612L110.571 303.01L112.319 302.949L105.594 309.395L93.6899 313.878L91.4705 315.229L90.2598 316.027V317.009L93.286 317.316L109.83 313.632L121.061 307.062L122.272 301.659L126.711 297.73L128.998 297.853L129.602 299.143L127.316 304.668L127.249 306.265L132.697 304.607L138.009 303.317L139.96 297.607L141.171 297.976L148.501 303.871L157.11 305.712L166.055 310.747L168.476 314.861L173.251 314.062L173.587 313.141L174.192 311.238L184.549 322.72L187.71 328.43L191.074 329.167L191.41 328.552L185.76 318.974L174.125 308.045L172.645 308.168L168.677 309.887L167.87 309.089L162.624 304.361L158.522 303.685L158.086 302.795Z" fill="#F1F1F1"/>
<path d="M86.9139 265.31C86.9139 265.31 85.0479 267.429 85.0479 267.567C85.0479 267.705 85.9809 269.317 85.9809 269.317H87.7712L89.6878 272.679L92.0082 273.14L91.3024 270.469L90.2596 268.212L88.5275 267.66L87.4683 265.91L86.9139 265.31Z" fill="#F1F1F1"/>
<path d="M75.464 277.284L74.4048 279.126L74.1523 280.461L75.0601 281.474C75.0601 281.474 77.1786 280.784 77.2291 280.461C77.2796 280.139 76.6747 278.758 76.5233 278.873C76.3718 278.988 75.8679 277.285 75.8679 277.285H75.464V277.284Z" fill="#F1F1F1"/>
<path d="M88.2751 287.967C88.0731 288.059 88.0731 288.013 88.0226 288.336C87.9721 288.659 88.1741 289.855 88.2751 289.993C88.376 290.132 90.2586 290.638 90.2586 290.638L92.0072 289.855L91.4013 287.967L89.1819 287.645L88.2751 287.967Z" fill="#F1F1F1"/>
<path d="M72.3356 295.196L68.9559 296.44C68.9559 296.44 68.7035 297.13 68.9559 297.314C69.2084 297.499 70.59 298.328 70.59 298.328L73.1929 297.13L74.1512 295.979L72.3356 295.196Z" fill="#F1F1F1"/>
<path d="M71.4983 300.906L70.873 302.058L71.4983 302.657L74.1518 302.703V301.183L71.4983 300.906Z" fill="#F1F1F1"/>
<path d="M88.9066 316.771L88.0746 317.691L86.6367 316.863L86.4609 315.827L87.6833 315.297L88.6037 315.573L88.9066 316.771Z" fill="#F1F1F1"/>
<path d="M85.3249 315.573H82.3744L82.2987 316.494L82.0462 316.609L79.9782 316.817L79.9277 317.853L81.7685 318.589L82.0967 317.53C82.0967 317.53 82.954 317.323 83.0298 317.369C83.1055 317.415 85.123 318.174 85.123 318.174L85.5774 317.415L85.3249 315.573Z" fill="#F1F1F1"/>
<path d="M77.6335 317.576L77.9859 318.405L76.65 318.59L75.0102 318.428L73.8499 318.843L72.7654 319.879L70.9499 321.1L69.8401 320.087L69.3867 320.017V319.338L70.6974 318.935L71.2023 318.774L72.1101 317.232H73.4975L74.4053 317.807L75.4645 317.232L76.6752 317.082L77.6335 317.576Z" fill="#F1F1F1"/>
<path d="M68.7801 318.59C68.7801 318.59 66.6868 318.567 66.6616 318.59C66.6363 318.613 65.4509 319.303 65.4509 319.303C65.4509 319.303 63.812 319.672 63.711 319.833C63.6101 319.994 63.913 320.962 63.913 320.962L65.2499 321.192C65.2499 321.192 66.6878 320.548 66.6626 320.34C66.6373 320.133 67.3936 319.627 67.3936 319.627C67.3936 319.627 68.5034 319.765 68.5539 319.696C68.6034 319.626 68.7801 318.59 68.7801 318.59Z" fill="#F1F1F1"/>
<path d="M60.987 320.638L59.4238 320.523L59.55 321.329L61.2142 321.698C61.2142 321.698 61.5928 321.49 61.618 321.192C61.6433 320.892 60.987 320.638 60.987 320.638Z" fill="#F1F1F1"/>
<path d="M57.5328 319.487C57.5328 319.487 56.5493 319.234 56.4988 319.303C56.4483 319.372 56.1201 320.109 56.1201 320.109L57.0153 320.891L57.9862 320.937C57.9862 320.937 58.2386 320.477 58.3143 320.224C58.3901 319.971 57.5328 319.487 57.5328 319.487Z" fill="#F1F1F1"/>
<path d="M50.5454 318.06C50.5454 318.06 49.9153 318.314 49.9658 318.589C50.0163 318.866 50.7978 319.556 50.7978 319.556L52.059 319.741L52.4124 318.727L51.958 318.06H50.5454Z" fill="#F1F1F1"/>
<path d="M47.7211 317.784L46.7628 316.334L43.4841 315.919H42.0967L42.4248 317.082L43.2821 317.645L45.854 317.668L47.1152 319.741H48.6289C48.6289 319.741 48.7298 318.912 48.7046 318.774C48.6794 318.635 48.3007 318.06 48.3007 318.06L47.7211 317.784Z" fill="#F1F1F1"/>
<path d="M40.1806 314.606C40.1806 314.606 38.3902 314.031 38.264 314.1C38.1378 314.169 37.2805 314.745 37.2805 314.745L35.3892 313.639L32.8668 312.833C32.8668 312.833 32.6901 312.35 32.7154 312.235C32.7406 312.12 33.7494 311.245 33.8251 311.245C33.9008 311.245 37.331 312.581 37.331 312.581L37.8096 313.364L39.5747 313.202L40.1806 313.686V314.606Z" fill="#F1F1F1"/>
<path d="M28.5794 308.044C28.5794 308.044 27.4697 307.514 27.4444 307.354C27.4192 307.193 27.293 305.903 27.293 305.903L28.3522 305.765L29.159 306.801L29.2348 307.147L28.5794 308.044Z" fill="#F1F1F1"/>
<path d="M25.5788 308.275L23.9894 307.952L23.1826 306.387L23.7875 305.074L24.6962 305.166L25.2506 306.525L25.8807 307.147L25.5788 308.275Z" fill="#F1F1F1"/>
<path d="M23.1821 303.071L20.4587 302.334L20.0801 301.114L23.1821 300.746L24.3928 302.265L23.1821 303.071Z" fill="#F1F1F1"/>
<path d="M111.176 318.942L109.898 319.556C109.898 319.556 109.326 320.446 109.427 320.6C109.528 320.754 110.873 321.276 110.873 321.276L112.621 320.631L111.915 318.759L111.176 318.942Z" fill="#F1F1F1"/>
<path d="M113.328 316.494C113.328 316.494 113.395 317.637 113.664 317.691C113.933 317.746 115.379 317.899 115.379 317.899L116.051 316.825L115.951 316.118H113.933L113.328 316.494Z" fill="#F1F1F1"/>
<path d="M118.977 312.128L116.253 312.527C116.253 312.527 115.178 313.263 115.178 313.448C115.178 313.632 117.296 316.118 117.296 316.118L119.65 314.736L123.181 313.509L123.988 312.588L121.768 311.483L119.145 311.084L118.842 311.483L118.977 312.128Z" fill="#F1F1F1"/>
<path d="M123.08 308.72L121.735 309.764L122.038 310.563C122.038 310.563 124.291 311.269 124.527 311.085C124.762 310.9 125.333 309.642 125.333 309.642L123.72 308.721H123.08V308.72Z" fill="#F1F1F1"/>
<path d="M173.284 315.719C173.284 315.719 171.871 315.842 171.77 315.904C171.67 315.965 171.098 316.886 171.098 316.886L172.341 318.697C172.341 318.697 174.157 319.526 174.326 319.25C174.494 318.973 174.662 317.592 174.662 317.592V316.518L173.284 315.719Z" fill="#F1F1F1"/>
<path d="M176.815 316.425L176.311 318.543L178.598 319.71L178.732 318.268L177.958 316.825L176.815 316.425Z" fill="#F1F1F1"/>
<path d="M174.495 320.018C174.495 320.018 173.688 320.356 173.587 320.479C173.486 320.602 173.217 321.83 173.217 321.953C173.217 322.075 174.495 323.61 174.495 323.61L176.31 325.114L177.521 324.869L176.983 322.259L176.31 321.001L174.495 320.018Z" fill="#F1F1F1"/>
<path d="M178.732 320.815C178.732 320.815 177.992 321.889 177.992 322.074C177.992 322.258 178.396 323.332 178.396 323.332C178.396 323.332 179.338 323.332 179.54 323.271C179.742 323.21 180.684 322.565 180.684 322.565L180.213 320.969L178.732 320.815Z" fill="#F1F1F1"/>
<path d="M181.825 322.933C181.825 322.933 181.522 323.118 181.489 323.332C181.455 323.547 181.254 324.652 181.254 324.652L180.414 325.113L180.179 327.108L182.398 330.055L183.945 331.621C183.945 331.621 185.626 331.958 185.659 331.621C185.693 331.283 185.323 329.563 185.323 329.563L182.768 327.077C182.768 327.077 182.297 325.573 182.465 325.42C182.633 325.266 183.373 325.174 183.44 324.898C183.507 324.621 182.92 323.332 182.92 323.332L181.825 322.933Z" fill="#F1F1F1"/>
<path d="M158.086 302.795L161.617 257.021L145.879 252.539L134.917 244.496L124.896 245.295L121.063 246.768L116.961 249.961L109.698 250.882V252.171L111.783 255.242L112.387 259.601L114.607 262.364L115.078 265.126L114.271 265.679L110.908 265.188L110.504 260.767L99.8105 262.487V263.531L101.357 264.452L102.164 269.793L107.477 272.74C107.477 272.74 112.252 270.898 112.252 271.083C112.252 271.267 111.714 278.574 111.714 278.574L104.383 279.679L103.173 282.872L102.299 282.933L99.4066 279.249L93.6899 282.196L95.7075 288.397L93.9589 291.344L93.6899 293.064L98.8687 294.721L97.591 299.634L97.3891 300.861L102.5 300.37L104.988 304.484H107.612L110.571 303.01L112.319 302.949L105.594 309.395L93.6899 313.878L91.4705 315.229L90.2598 316.027V317.009L93.286 317.316L109.83 313.632L121.061 307.062L122.272 301.659L126.711 297.73L128.998 297.853L129.602 299.143L127.316 304.668L127.249 306.265L132.697 304.607L138.009 303.317L139.96 297.607L141.171 297.976L148.501 303.871L157.11 305.712L166.055 310.747L168.476 314.861L173.251 314.062L173.587 313.141L174.192 311.238L184.549 322.72L187.71 328.43L191.074 329.167L191.41 328.552L185.76 318.974L174.125 308.045L172.645 308.168L168.677 309.887L167.87 309.089L162.624 304.361L158.522 303.685L158.086 302.795Z" stroke="#D3D3D3" stroke-width="0.5" stroke-miterlimit="10"/>
<path d="M86.9139 265.31C86.9139 265.31 85.0479 267.429 85.0479 267.567C85.0479 267.705 85.9809 269.317 85.9809 269.317H87.7712L89.6878 272.679L92.0082 273.14L91.3024 270.469L90.2596 268.212L88.5275 267.66L87.4683 265.91L86.9139 265.31Z" stroke="#D3D3D3" stroke-width="0.5" stroke-miterlimit="10"/>
<path d="M75.464 277.284L74.4048 279.126L74.1523 280.461L75.0601 281.474C75.0601 281.474 77.1786 280.784 77.2291 280.461C77.2796 280.139 76.6747 278.758 76.5233 278.873C76.3718 278.988 75.8679 277.285 75.8679 277.285H75.464V277.284Z" stroke="#D3D3D3" stroke-width="0.5" stroke-miterlimit="10"/>
<path d="M88.2751 287.967C88.0731 288.059 88.0731 288.013 88.0226 288.336C87.9721 288.659 88.1741 289.855 88.2751 289.993C88.376 290.132 90.2586 290.638 90.2586 290.638L92.0072 289.855L91.4013 287.967L89.1819 287.645L88.2751 287.967Z" stroke="#D3D3D3" stroke-width="0.5" stroke-miterlimit="10"/>
<path d="M72.3356 295.196L68.9559 296.44C68.9559 296.44 68.7035 297.13 68.9559 297.314C69.2084 297.499 70.59 298.328 70.59 298.328L73.1929 297.13L74.1512 295.979L72.3356 295.196Z" stroke="#D3D3D3" stroke-width="0.5" stroke-miterlimit="10"/>
<path d="M71.4983 300.906L70.873 302.058L71.4983 302.657L74.1518 302.703V301.183L71.4983 300.906Z" stroke="#D3D3D3" stroke-width="0.5" stroke-miterlimit="10"/>
<path d="M88.9066 316.771L88.0746 317.691L86.6367 316.863L86.4609 315.827L87.6833 315.297L88.6037 315.573L88.9066 316.771Z" stroke="#D3D3D3" stroke-width="0.5" stroke-miterlimit="10"/>
<path d="M85.3249 315.573H82.3744L82.2987 316.494L82.0462 316.609L79.9782 316.817L79.9277 317.853L81.7685 318.589L82.0967 317.53C82.0967 317.53 82.954 317.323 83.0298 317.369C83.1055 317.415 85.123 318.174 85.123 318.174L85.5774 317.415L85.3249 315.573Z" stroke="#D3D3D3" stroke-width="0.5" stroke-miterlimit="10"/>
<path d="M77.6335 317.576L77.9859 318.405L76.65 318.59L75.0102 318.428L73.8499 318.843L72.7654 319.879L70.9499 321.1L69.8401 320.087L69.3867 320.017V319.338L70.6974 318.935L71.2023 318.774L72.1101 317.232H73.4975L74.4053 317.807L75.4645 317.232L76.6752 317.082L77.6335 317.576Z" stroke="#D3D3D3" stroke-width="0.5" stroke-miterlimit="10"/>
<path d="M68.7801 318.59C68.7801 318.59 66.6868 318.567 66.6616 318.59C66.6363 318.613 65.4509 319.303 65.4509 319.303C65.4509 319.303 63.812 319.672 63.711 319.833C63.6101 319.994 63.913 320.962 63.913 320.962L65.2499 321.192C65.2499 321.192 66.6878 320.548 66.6626 320.34C66.6373 320.133 67.3936 319.627 67.3936 319.627C67.3936 319.627 68.5034 319.765 68.5539 319.696C68.6034 319.626 68.7801 318.59 68.7801 318.59Z" stroke="#D3D3D3" stroke-width="0.5" stroke-miterlimit="10"/>
<path d="M60.987 320.638L59.4238 320.523L59.55 321.329L61.2142 321.698C61.2142 321.698 61.5928 321.49 61.618 321.192C61.6433 320.892 60.987 320.638 60.987 320.638Z" stroke="#D3D3D3" stroke-width="0.5" stroke-miterlimit="10"/>
<path d="M57.5328 319.487C57.5328 319.487 56.5493 319.234 56.4988 319.303C56.4483 319.372 56.1201 320.109 56.1201 320.109L57.0153 320.891L57.9862 320.937C57.9862 320.937 58.2386 320.477 58.3143 320.224C58.3901 319.971 57.5328 319.487 57.5328 319.487Z" stroke="#D3D3D3" stroke-width="0.5" stroke-miterlimit="10"/>
<path d="M50.5454 318.06C50.5454 318.06 49.9153 318.314 49.9658 318.589C50.0163 318.866 50.7978 319.556 50.7978 319.556L52.059 319.741L52.4124 318.727L51.958 318.06H50.5454Z" stroke="#D3D3D3" stroke-width="0.5" stroke-miterlimit="10"/>
<path d="M47.7211 317.784L46.7628 316.334L43.4841 315.919H42.0967L42.4248 317.082L43.2821 317.645L45.854 317.668L47.1152 319.741H48.6289C48.6289 319.741 48.7298 318.912 48.7046 318.774C48.6794 318.635 48.3007 318.06 48.3007 318.06L47.7211 317.784Z" stroke="#D3D3D3" stroke-width="0.5" stroke-miterlimit="10"/>
<path d="M40.1806 314.606C40.1806 314.606 38.3902 314.031 38.264 314.1C38.1378 314.169 37.2805 314.745 37.2805 314.745L35.3892 313.639L32.8668 312.833C32.8668 312.833 32.6901 312.35 32.7154 312.235C32.7406 312.12 33.7494 311.245 33.8251 311.245C33.9008 311.245 37.331 312.581 37.331 312.581L37.8096 313.364L39.5747 313.202L40.1806 313.686V314.606Z" stroke="#D3D3D3" stroke-width="0.5" stroke-miterlimit="10"/>
<path d="M28.5794 308.044C28.5794 308.044 27.4697 307.514 27.4444 307.354C27.4192 307.193 27.293 305.903 27.293 305.903L28.3522 305.765L29.159 306.801L29.2348 307.147L28.5794 308.044Z" stroke="#D3D3D3" stroke-width="0.5" stroke-miterlimit="10"/>
<path d="M25.5788 308.275L23.9894 307.952L23.1826 306.387L23.7875 305.074L24.6962 305.166L25.2506 306.525L25.8807 307.147L25.5788 308.275Z" stroke="#D3D3D3" stroke-width="0.5" stroke-miterlimit="10"/>
<path d="M23.1821 303.071L20.4587 302.334L20.0801 301.114L23.1821 300.746L24.3928 302.265L23.1821 303.071Z" stroke="#D3D3D3" stroke-width="0.5" stroke-miterlimit="10"/>
<path d="M111.176 318.942L109.898 319.556C109.898 319.556 109.326 320.446 109.427 320.6C109.528 320.754 110.873 321.276 110.873 321.276L112.621 320.631L111.915 318.759L111.176 318.942Z" stroke="#D3D3D3" stroke-width="0.5" stroke-miterlimit="10"/>
<path d="M113.328 316.494C113.328 316.494 113.395 317.637 113.664 317.691C113.933 317.746 115.379 317.899 115.379 317.899L116.051 316.825L115.951 316.118H113.933L113.328 316.494Z" stroke="#D3D3D3" stroke-width="0.5" stroke-miterlimit="10"/>
<path d="M118.977 312.128L116.253 312.527C116.253 312.527 115.178 313.263 115.178 313.448C115.178 313.632 117.296 316.118 117.296 316.118L119.65 314.736L123.181 313.509L123.988 312.588L121.768 311.483L119.145 311.084L118.842 311.483L118.977 312.128Z" stroke="#D3D3D3" stroke-width="0.5" stroke-miterlimit="10"/>
<path d="M123.08 308.72L121.735 309.764L122.038 310.563C122.038 310.563 124.291 311.269 124.527 311.085C124.762 310.9 125.333 309.642 125.333 309.642L123.72 308.721H123.08V308.72Z" stroke="#D3D3D3" stroke-width="0.5" stroke-miterlimit="10"/>
<path d="M173.284 315.719C173.284 315.719 171.871 315.842 171.77 315.904C171.67 315.965 171.098 316.886 171.098 316.886L172.341 318.697C172.341 318.697 174.157 319.526 174.326 319.25C174.494 318.973 174.662 317.592 174.662 317.592V316.518L173.284 315.719Z" stroke="#D3D3D3" stroke-width="0.5" stroke-miterlimit="10"/>
<path d="M176.815 316.425L176.311 318.543L178.598 319.71L178.732 318.268L177.958 316.825L176.815 316.425Z" stroke="#D3D3D3" stroke-width="0.5" stroke-miterlimit="10"/>
<path d="M174.495 320.018C174.495 320.018 173.688 320.356 173.587 320.479C173.486 320.602 173.217 321.83 173.217 321.953C173.217 322.075 174.495 323.61 174.495 323.61L176.31 325.114L177.521 324.869L176.983 322.259L176.31 321.001L174.495 320.018Z" stroke="#D3D3D3" stroke-width="0.5" stroke-miterlimit="10"/>
<path d="M178.732 320.815C178.732 320.815 177.992 321.889 177.992 322.074C177.992 322.258 178.396 323.332 178.396 323.332C178.396 323.332 179.338 323.332 179.54 323.271C179.742 323.21 180.684 322.565 180.684 322.565L180.213 320.969L178.732 320.815Z" stroke="#D3D3D3" stroke-width="0.5" stroke-miterlimit="10"/>
<path d="M181.825 322.933C181.825 322.933 181.522 323.118 181.489 323.332C181.455 323.547 181.254 324.652 181.254 324.652L180.414 325.113L180.179 327.108L182.398 330.055L183.945 331.621C183.945 331.621 185.626 331.958 185.659 331.621C185.693 331.283 185.323 329.563 185.323 329.563L182.768 327.077C182.768 327.077 182.297 325.573 182.465 325.42C182.633 325.266 183.373 325.174 183.44 324.898C183.507 324.621 182.92 323.332 182.92 323.332L181.825 322.933Z" stroke="#D3D3D3" stroke-width="0.5" stroke-miterlimit="10"/>
<path d="M459.641 2.59717C459.439 2.59717 457.086 6.15861 457.086 6.15861L458.902 6.7117L460.852 4.65444L459.641 2.59717Z" fill="#F1F1F1"/>
<path d="M465.626 1C465.626 1 463.742 2.1053 463.81 2.59635C463.877 3.0874 465.626 5.42033 465.626 5.42033H469.594L470.334 1H465.626Z" fill="#F1F1F1"/>
<path d="M485.129 9.27442C485.078 9.41269 487.045 13.9713 487.045 13.9713H488.911L489.265 12.5894L492.14 14.247C492.14 14.247 493.552 13.8321 493.603 13.6939C493.653 13.5556 493.603 11.5293 493.603 11.5293L491.484 10.4701L490.122 8.25952L486.995 9.04219L485.129 9.27442Z" fill="#F1F1F1"/>
<path d="M498.496 15.1687L497.538 17.195L504.801 17.7933L505.256 17.4706L507.374 15.6288C507.374 15.6288 506.819 15.1226 506.214 15.1687C505.609 15.2148 504.348 15.6288 504.348 15.6288C504.348 15.6288 502.733 15.9514 502.457 15.8592C502.179 15.767 498.496 15.1687 498.496 15.1687Z" fill="#F1F1F1"/>
<path d="M502.457 18.8064L502.937 21.1092C502.937 21.1092 503.29 21.7997 503.643 21.7997C503.996 21.7997 505.357 21.5692 505.357 21.5692C505.357 21.5692 505.66 20.2795 505.66 20.0039C505.66 19.7273 504.601 18.8064 504.601 18.8064H502.457Z" fill="#F1F1F1"/>
<path d="M508.03 17.3321C507.878 17.4243 506.566 18.8061 506.566 18.8061C506.566 18.8061 509.29 19.8654 509.441 19.9575C509.593 20.0497 510.904 21.569 510.904 21.7994C510.904 22.0299 512.72 23.1352 512.72 23.1352H517.612L517.915 21.1089L515.544 20.0497L512.72 18.3922L511.56 18.5766L509.492 18.2078L508.432 17.1025L508.03 17.3321Z" fill="#F1F1F1"/>
<path d="M507.021 23.5033C507.021 23.5033 507.223 24.4703 507.375 24.6547C507.526 24.8391 508.687 25.1156 508.687 25.1156L510.15 24.3099L509.04 22.5833L507.021 23.5033Z" fill="#F1F1F1"/>
<path d="M519.884 28.1077L519.179 28.4764L519.884 32.7594L516.303 34.1864V36.1666L517.917 38.4233L518.623 44.502L519.531 44.7786L520.489 46.4822L521.649 46.897L523.113 46.1143L526.644 42.5227C526.644 42.5227 530.225 41.8783 530.325 41.7401C530.426 41.6018 532.04 39.8521 532.04 39.8521L534.007 39.346L534.512 37.918C534.512 37.918 531.939 36.4449 531.888 36.3066C531.838 36.1683 530.375 33.7743 530.375 33.7743L523.565 30.367L520.64 27.8799L519.884 28.1077Z" fill="#F1F1F1"/>
<path d="M459.641 2.59717C459.439 2.59717 457.086 6.15861 457.086 6.15861L458.902 6.7117L460.852 4.65444L459.641 2.59717Z" stroke="#A7C2D1" stroke-width="0.5" stroke-miterlimit="10"/>
<path d="M465.626 1C465.626 1 463.742 2.1053 463.81 2.59635C463.877 3.0874 465.626 5.42033 465.626 5.42033H469.594L470.334 1H465.626Z" stroke="#A7C2D1" stroke-width="0.5" stroke-miterlimit="10"/>
<path d="M485.129 9.27442C485.078 9.41269 487.045 13.9713 487.045 13.9713H488.911L489.265 12.5894L492.14 14.247C492.14 14.247 493.552 13.8321 493.603 13.6939C493.653 13.5556 493.603 11.5293 493.603 11.5293L491.484 10.4701L490.122 8.25952L486.995 9.04219L485.129 9.27442Z" stroke="#A7C2D1" stroke-width="0.5" stroke-miterlimit="10"/>
<path d="M498.496 15.1687L497.538 17.195L504.801 17.7933L505.256 17.4706L507.374 15.6288C507.374 15.6288 506.819 15.1226 506.214 15.1687C505.609 15.2148 504.348 15.6288 504.348 15.6288C504.348 15.6288 502.733 15.9514 502.457 15.8592C502.179 15.767 498.496 15.1687 498.496 15.1687Z" stroke="#A7C2D1" stroke-width="0.5" stroke-miterlimit="10"/>
<path d="M502.457 18.8064L502.937 21.1092C502.937 21.1092 503.29 21.7997 503.643 21.7997C503.996 21.7997 505.357 21.5692 505.357 21.5692C505.357 21.5692 505.66 20.2795 505.66 20.0039C505.66 19.7273 504.601 18.8064 504.601 18.8064H502.457Z" stroke="#A7C2D1" stroke-width="0.5" stroke-miterlimit="10"/>
<path d="M508.03 17.3321C507.878 17.4243 506.566 18.8061 506.566 18.8061C506.566 18.8061 509.29 19.8654 509.441 19.9575C509.593 20.0497 510.904 21.569 510.904 21.7994C510.904 22.0299 512.72 23.1352 512.72 23.1352H517.612L517.915 21.1089L515.544 20.0497L512.72 18.3922L511.56 18.5766L509.492 18.2078L508.432 17.1025L508.03 17.3321Z" stroke="#A7C2D1" stroke-width="0.5" stroke-miterlimit="10"/>
<path d="M507.021 23.5033C507.021 23.5033 507.223 24.4703 507.375 24.6547C507.526 24.8391 508.687 25.1156 508.687 25.1156L510.15 24.3099L509.04 22.5833L507.021 23.5033Z" stroke="#A7C2D1" stroke-width="0.5" stroke-miterlimit="10"/>
<path d="M519.884 28.1077L519.179 28.4764L519.884 32.7594L516.303 34.1864V36.1666L517.917 38.4233L518.623 44.502L519.531 44.7786L520.489 46.4822L521.649 46.897L523.113 46.1143L526.644 42.5227C526.644 42.5227 530.225 41.8783 530.325 41.7401C530.426 41.6018 532.04 39.8521 532.04 39.8521L534.007 39.346L534.512 37.918C534.512 37.918 531.939 36.4449 531.888 36.3066C531.838 36.1683 530.375 33.7743 530.375 33.7743L523.565 30.367L520.64 27.8799L519.884 28.1077Z" stroke="#A7C2D1" stroke-width="0.5" stroke-miterlimit="10"/>
</svg>
