<svg width="1090" height="436" viewBox="0 0 1090 436" fill="none" xmlns="http://www.w3.org/2000/svg">
<path d="M238.323 125.001L238.173 124.852L238.015 124.71C221.377 109.73 199.833 95.9112 174.496 94.5137C150.168 93.1718 123.853 100.549 104.413 115.944C87.3773 129.435 75.2325 149.227 69.6176 170.072L60.2911 168.345C66.3956 145.298 79.9353 124.864 98.3388 109.132C120.575 92.7578 146.557 83.9997 173.505 85.4861C200.574 86.9792 225.686 98.3565 246.052 117.367C265.364 136.514 277.014 162.061 278.806 189.201C280.6 216.382 272.382 243.28 255.703 264.817C239.024 286.354 215.037 301.04 188.271 306.103C161.506 311.166 133.812 306.256 110.419 292.299C89.6752 279.922 73.5852 261.191 64.4493 239.007L72.9654 236.506C81.2704 256.354 95.8171 273.149 114.389 284.229C135.628 296.901 161.662 300.885 185.673 296.343C209.54 291.829 233.39 278.67 248.616 259.011C263.309 240.038 273.453 214.965 271.799 189.907L271.742 189.039L271.519 188.199C265.518 165.508 255.881 142.37 238.323 125.001Z" stroke="#FFFEFD" stroke-width="18"/>
<mask id="path-2-inside-1_2111_248" fill="white">
<path d="M235.762 97.5488C211.494 80.8834 181.965 73.6783 152.749 77.2938C123.532 80.9093 96.6503 95.0951 77.1769 117.173C57.7034 139.252 46.986 167.695 47.0478 197.134C47.1095 226.573 57.946 254.971 77.5118 276.968C97.0776 298.964 124.019 313.037 153.25 316.53C182.481 320.023 211.98 312.695 236.178 295.928C260.376 279.161 277.598 254.115 284.595 225.52C291.591 196.924 287.878 166.756 274.155 140.711L248.62 154.165C259.056 173.972 261.88 196.914 256.559 218.66C251.239 240.406 238.141 259.453 219.739 272.204C201.337 284.955 178.904 290.528 156.675 287.872C134.445 285.215 113.957 274.513 99.0775 257.785C84.1982 241.058 75.9573 219.461 75.9104 197.074C75.8634 174.686 84.0138 153.055 98.8228 136.265C113.632 119.475 134.075 108.687 156.293 105.938C178.512 103.189 200.968 108.668 219.423 121.341L235.762 97.5488Z"/>
</mask>
<path d="M235.762 97.5488C211.494 80.8834 181.965 73.6783 152.749 77.2938C123.532 80.9093 96.6503 95.0951 77.1769 117.173C57.7034 139.252 46.986 167.695 47.0478 197.134C47.1095 226.573 57.946 254.971 77.5118 276.968C97.0776 298.964 124.019 313.037 153.25 316.53C182.481 320.023 211.98 312.695 236.178 295.928C260.376 279.161 277.598 254.115 284.595 225.52C291.591 196.924 287.878 166.756 274.155 140.711L248.62 154.165C259.056 173.972 261.88 196.914 256.559 218.66C251.239 240.406 238.141 259.453 219.739 272.204C201.337 284.955 178.904 290.528 156.675 287.872C134.445 285.215 113.957 274.513 99.0775 257.785C84.1982 241.058 75.9573 219.461 75.9104 197.074C75.8634 174.686 84.0138 153.055 98.8228 136.265C113.632 119.475 134.075 108.687 156.293 105.938C178.512 103.189 200.968 108.668 219.423 121.341L235.762 97.5488Z" stroke="#622996" stroke-width="36" mask="url(#path-2-inside-1_2111_248)"/>
<path d="M117.5 194.84C113.5 192.76 111.5 189.54 111.5 185.18C111.5 183.02 112.04 181.06 113.12 179.3C114.24 177.5 115.9 176.08 118.1 175.04C120.34 173.96 123.06 173.42 126.26 173.42C129.46 173.42 132.16 173.96 134.36 175.04C136.6 176.08 138.26 177.5 139.34 179.3C140.46 181.06 141.02 183.02 141.02 185.18C141.02 187.38 140.48 189.32 139.4 191C138.32 192.64 136.88 193.92 135.08 194.84C137.28 195.8 139 197.2 140.24 199.04C141.48 200.88 142.1 203.06 142.1 205.58C142.1 208.3 141.4 210.68 140 212.72C138.64 214.72 136.76 216.26 134.36 217.34C131.96 218.42 129.26 218.96 126.26 218.96C123.26 218.96 120.56 218.42 118.16 217.34C115.8 216.26 113.92 214.72 112.52 212.72C111.16 210.68 110.48 208.3 110.48 205.58C110.48 203.06 111.1 200.88 112.34 199.04C113.58 197.16 115.3 195.76 117.5 194.84ZM132.86 186.38C132.86 184.42 132.26 182.9 131.06 181.82C129.9 180.74 128.3 180.2 126.26 180.2C124.26 180.2 122.66 180.74 121.46 181.82C120.3 182.9 119.72 184.44 119.72 186.44C119.72 188.24 120.32 189.68 121.52 190.76C122.76 191.84 124.34 192.38 126.26 192.38C128.18 192.38 129.76 191.84 131 190.76C132.24 189.64 132.86 188.18 132.86 186.38ZM126.26 198.5C123.98 198.5 122.12 199.08 120.68 200.24C119.28 201.4 118.58 203.06 118.58 205.22C118.58 207.22 119.26 208.86 120.62 210.14C122.02 211.38 123.9 212 126.26 212C128.62 212 130.48 211.36 131.84 210.08C133.2 208.8 133.88 207.18 133.88 205.22C133.88 203.1 133.18 201.46 131.78 200.3C130.38 199.1 128.54 198.5 126.26 198.5ZM148.375 209.48V202.88L167.995 174.8H177.775V202.16H183.055V209.48H177.775V218H169.375V209.48H148.375ZM169.915 183.8L157.615 202.16H169.915V183.8ZM187.443 185C187.443 181.96 188.323 179.58 190.083 177.86C191.883 176.14 194.183 175.28 196.983 175.28C199.783 175.28 202.063 176.14 203.823 177.86C205.623 179.58 206.523 181.96 206.523 185C206.523 188.08 205.623 190.48 203.823 192.2C202.063 193.92 199.783 194.78 196.983 194.78C194.183 194.78 191.883 193.92 190.083 192.2C188.323 190.48 187.443 188.08 187.443 185ZM225.963 176L202.383 218H194.223L217.743 176H225.963ZM196.923 180.32C194.723 180.32 193.623 181.88 193.623 185C193.623 188.16 194.723 189.74 196.923 189.74C198.003 189.74 198.843 189.36 199.443 188.6C200.043 187.8 200.343 186.6 200.343 185C200.343 181.88 199.203 180.32 196.923 180.32ZM213.783 208.94C213.783 205.86 214.663 203.48 216.423 201.8C218.223 200.08 220.523 199.22 223.323 199.22C226.123 199.22 228.383 200.08 230.103 201.8C231.863 203.48 232.743 205.86 232.743 208.94C232.743 212.02 231.863 214.42 230.103 216.14C228.383 217.86 226.123 218.72 223.323 218.72C220.483 218.72 218.183 217.86 216.423 216.14C214.663 214.42 213.783 212.02 213.783 208.94ZM223.263 204.26C220.983 204.26 219.843 205.82 219.843 208.94C219.843 212.1 220.983 213.68 223.263 213.68C225.503 213.68 226.623 212.1 226.623 208.94C226.623 205.82 225.503 204.26 223.263 204.26Z" fill="#FFFEFD"/>
<path d="M124.663 356.872C127.303 356.872 129.619 357.388 131.611 358.42C133.627 359.452 135.175 360.928 136.255 362.848C137.359 364.744 137.911 366.952 137.911 369.472C137.911 371.992 137.359 374.2 136.255 376.096C135.175 377.968 133.627 379.42 131.611 380.452C129.619 381.484 127.303 382 124.663 382H115.879V356.872H124.663ZM124.483 377.716C127.123 377.716 129.163 376.996 130.603 375.556C132.043 374.116 132.763 372.088 132.763 369.472C132.763 366.856 132.043 364.816 130.603 363.352C129.163 361.864 127.123 361.12 124.483 361.12H120.919V377.716H124.483ZM144.239 359.68C143.351 359.68 142.607 359.404 142.007 358.852C141.431 358.276 141.143 357.568 141.143 356.728C141.143 355.888 141.431 355.192 142.007 354.64C142.607 354.064 143.351 353.776 144.239 353.776C145.127 353.776 145.859 354.064 146.435 354.64C147.035 355.192 147.335 355.888 147.335 356.728C147.335 357.568 147.035 358.276 146.435 358.852C145.859 359.404 145.127 359.68 144.239 359.68ZM146.723 362.056V382H141.683V362.056H146.723ZM156.743 365.152C157.391 364.096 158.231 363.268 159.263 362.668C160.319 362.068 161.519 361.768 162.863 361.768V367.06H161.531C159.947 367.06 158.747 367.432 157.931 368.176C157.139 368.92 156.743 370.216 156.743 372.064V382H151.703V362.056H156.743V365.152ZM184.797 371.596C184.797 372.316 184.749 372.964 184.653 373.54H170.073C170.193 374.98 170.697 376.108 171.585 376.924C172.473 377.74 173.565 378.148 174.861 378.148C176.733 378.148 178.065 377.344 178.857 375.736H184.293C183.717 377.656 182.613 379.24 180.981 380.488C179.349 381.712 177.345 382.324 174.969 382.324C173.049 382.324 171.321 381.904 169.785 381.064C168.273 380.2 167.085 378.988 166.221 377.428C165.381 375.868 164.961 374.068 164.961 372.028C164.961 369.964 165.381 368.152 166.221 366.592C167.061 365.032 168.237 363.832 169.749 362.992C171.261 362.152 173.001 361.732 174.969 361.732C176.865 361.732 178.557 362.14 180.045 362.956C181.557 363.772 182.721 364.936 183.537 366.448C184.377 367.936 184.797 369.652 184.797 371.596ZM179.577 370.156C179.553 368.86 179.085 367.828 178.173 367.06C177.261 366.268 176.145 365.872 174.825 365.872C173.577 365.872 172.521 366.256 171.657 367.024C170.817 367.768 170.301 368.812 170.109 370.156H179.577ZM187.18 372.028C187.18 369.964 187.6 368.164 188.44 366.628C189.28 365.068 190.444 363.868 191.932 363.028C193.42 362.164 195.124 361.732 197.044 361.732C199.516 361.732 201.556 362.356 203.164 363.604C204.796 364.828 205.888 366.556 206.44 368.788H201.004C200.716 367.924 200.224 367.252 199.528 366.772C198.856 366.268 198.016 366.016 197.008 366.016C195.568 366.016 194.428 366.544 193.588 367.6C192.748 368.632 192.328 370.108 192.328 372.028C192.328 373.924 192.748 375.4 193.588 376.456C194.428 377.488 195.568 378.004 197.008 378.004C199.048 378.004 200.38 377.092 201.004 375.268H206.44C205.888 377.428 204.796 379.144 203.164 380.416C201.532 381.688 199.492 382.324 197.044 382.324C195.124 382.324 193.42 381.904 191.932 381.064C190.444 380.2 189.28 379 188.44 377.464C187.6 375.904 187.18 374.092 187.18 372.028ZM216 366.196V375.844C216 376.516 216.156 377.008 216.468 377.32C216.804 377.608 217.356 377.752 218.124 377.752H220.464V382H217.296C213.048 382 210.924 379.936 210.924 375.808V366.196H208.548V362.056H210.924V357.124H216V362.056H220.464V366.196H216ZM74.6995 413.4C74.6995 410.928 75.2515 408.72 76.3555 406.776C77.4835 404.808 79.0075 403.284 80.9275 402.204C82.8715 401.1 85.0435 400.548 87.4435 400.548C90.2515 400.548 92.7115 401.268 94.8235 402.708C96.9355 404.148 98.4115 406.14 99.2515 408.684H93.4555C92.8795 407.484 92.0635 406.584 91.0075 405.984C89.9755 405.384 88.7755 405.084 87.4075 405.084C85.9435 405.084 84.6355 405.432 83.4835 406.128C82.3555 406.8 81.4675 407.76 80.8195 409.008C80.1955 410.256 79.8835 411.72 79.8835 413.4C79.8835 415.056 80.1955 416.52 80.8195 417.792C81.4675 419.04 82.3555 420.012 83.4835 420.708C84.6355 421.38 85.9435 421.716 87.4075 421.716C88.7755 421.716 89.9755 421.416 91.0075 420.816C92.0635 420.192 92.8795 419.28 93.4555 418.08H99.2515C98.4115 420.648 96.9355 422.652 94.8235 424.092C92.7355 425.508 90.2755 426.216 87.4435 426.216C85.0435 426.216 82.8715 425.676 80.9275 424.596C79.0075 423.492 77.4835 421.968 76.3555 420.024C75.2515 418.08 74.6995 415.872 74.6995 413.4ZM112.412 426.324C110.492 426.324 108.764 425.904 107.228 425.064C105.692 424.2 104.48 422.988 103.592 421.428C102.728 419.868 102.296 418.068 102.296 416.028C102.296 413.988 102.74 412.188 103.628 410.628C104.54 409.068 105.776 407.868 107.336 407.028C108.896 406.164 110.636 405.732 112.556 405.732C114.476 405.732 116.216 406.164 117.776 407.028C119.336 407.868 120.56 409.068 121.448 410.628C122.36 412.188 122.816 413.988 122.816 416.028C122.816 418.068 122.348 419.868 121.412 421.428C120.5 422.988 119.252 424.2 117.668 425.064C116.108 425.904 114.356 426.324 112.412 426.324ZM112.412 421.932C113.324 421.932 114.176 421.716 114.968 421.284C115.784 420.828 116.432 420.156 116.912 419.268C117.392 418.38 117.632 417.3 117.632 416.028C117.632 414.132 117.128 412.68 116.12 411.672C115.136 410.64 113.924 410.124 112.484 410.124C111.044 410.124 109.832 410.64 108.848 411.672C107.888 412.68 107.408 414.132 107.408 416.028C107.408 417.924 107.876 419.388 108.812 420.42C109.772 421.428 110.972 421.932 112.412 421.932ZM134.145 426.324C132.513 426.324 131.049 426.036 129.753 425.46C128.457 424.86 127.425 424.056 126.657 423.048C125.913 422.04 125.505 420.924 125.433 419.7H130.509C130.605 420.468 130.977 421.104 131.625 421.608C132.297 422.112 133.125 422.364 134.109 422.364C135.069 422.364 135.813 422.172 136.341 421.788C136.893 421.404 137.169 420.912 137.169 420.312C137.169 419.664 136.833 419.184 136.161 418.872C135.513 418.536 134.469 418.176 133.029 417.792C131.541 417.432 130.317 417.06 129.357 416.676C128.421 416.292 127.605 415.704 126.909 414.912C126.237 414.12 125.901 413.052 125.901 411.708C125.901 410.604 126.213 409.596 126.837 408.684C127.485 407.772 128.397 407.052 129.573 406.524C130.773 405.996 132.177 405.732 133.785 405.732C136.161 405.732 138.057 406.332 139.473 407.532C140.889 408.708 141.669 410.304 141.813 412.32H136.989C136.917 411.528 136.581 410.904 135.981 410.448C135.405 409.968 134.625 409.728 133.641 409.728C132.729 409.728 132.021 409.896 131.517 410.232C131.037 410.568 130.797 411.036 130.797 411.636C130.797 412.308 131.133 412.824 131.805 413.184C132.477 413.52 133.521 413.868 134.937 414.228C136.377 414.588 137.565 414.96 138.501 415.344C139.437 415.728 140.241 416.328 140.913 417.144C141.609 417.936 141.969 418.992 141.993 420.312C141.993 421.464 141.669 422.496 141.021 423.408C140.397 424.32 139.485 425.04 138.285 425.568C137.109 426.072 135.729 426.324 134.145 426.324ZM164.958 406.056V426H159.882V423.48C159.234 424.344 158.382 425.028 157.326 425.532C156.294 426.012 155.166 426.252 153.942 426.252C152.382 426.252 151.002 425.928 149.802 425.28C148.602 424.608 147.654 423.636 146.958 422.364C146.286 421.068 145.95 419.532 145.95 417.756V406.056H150.99V417.036C150.99 418.62 151.386 419.844 152.178 420.708C152.97 421.548 154.05 421.968 155.418 421.968C156.81 421.968 157.902 421.548 158.694 420.708C159.486 419.844 159.882 418.62 159.882 417.036V406.056H164.958ZM194.699 405.768C197.147 405.768 199.115 406.524 200.603 408.036C202.115 409.524 202.871 411.612 202.871 414.3V426H197.831V414.984C197.831 413.424 197.435 412.236 196.643 411.42C195.851 410.58 194.771 410.16 193.403 410.16C192.035 410.16 190.943 410.58 190.127 411.42C189.335 412.236 188.939 413.424 188.939 414.984V426H183.899V414.984C183.899 413.424 183.503 412.236 182.711 411.42C181.919 410.58 180.839 410.16 179.471 410.16C178.079 410.16 176.975 410.58 176.159 411.42C175.367 412.236 174.971 413.424 174.971 414.984V426H169.931V406.056H174.971V408.468C175.619 407.628 176.447 406.968 177.455 406.488C178.487 406.008 179.615 405.768 180.839 405.768C182.399 405.768 183.791 406.104 185.015 406.776C186.239 407.424 187.187 408.36 187.859 409.584C188.507 408.432 189.443 407.508 190.667 406.812C191.915 406.116 193.259 405.768 194.699 405.768ZM226.194 415.596C226.194 416.316 226.146 416.964 226.05 417.54H211.47C211.59 418.98 212.094 420.108 212.982 420.924C213.87 421.74 214.962 422.148 216.258 422.148C218.13 422.148 219.462 421.344 220.254 419.736H225.69C225.114 421.656 224.01 423.24 222.378 424.488C220.746 425.712 218.742 426.324 216.366 426.324C214.446 426.324 212.718 425.904 211.182 425.064C209.67 424.2 208.482 422.988 207.618 421.428C206.778 419.868 206.358 418.068 206.358 416.028C206.358 413.964 206.778 412.152 207.618 410.592C208.458 409.032 209.634 407.832 211.146 406.992C212.658 406.152 214.398 405.732 216.366 405.732C218.262 405.732 219.954 406.14 221.442 406.956C222.954 407.772 224.118 408.936 224.934 410.448C225.774 411.936 226.194 413.652 226.194 415.596ZM220.974 414.156C220.95 412.86 220.482 411.828 219.57 411.06C218.658 410.268 217.542 409.872 216.222 409.872C214.974 409.872 213.918 410.256 213.054 411.024C212.214 411.768 211.698 412.812 211.506 414.156H220.974ZM234.913 409.152C235.561 408.096 236.401 407.268 237.433 406.668C238.489 406.068 239.689 405.768 241.033 405.768V411.06H239.701C238.117 411.06 236.917 411.432 236.101 412.176C235.309 412.92 234.913 414.216 234.913 416.064V426H229.873V406.056H234.913V409.152ZM252.059 426.324C250.427 426.324 248.963 426.036 247.667 425.46C246.371 424.86 245.339 424.056 244.571 423.048C243.827 422.04 243.419 420.924 243.347 419.7H248.423C248.519 420.468 248.891 421.104 249.539 421.608C250.211 422.112 251.039 422.364 252.023 422.364C252.983 422.364 253.727 422.172 254.255 421.788C254.807 421.404 255.083 420.912 255.083 420.312C255.083 419.664 254.747 419.184 254.075 418.872C253.427 418.536 252.383 418.176 250.943 417.792C249.455 417.432 248.231 417.06 247.271 416.676C246.335 416.292 245.519 415.704 244.823 414.912C244.151 414.12 243.815 413.052 243.815 411.708C243.815 410.604 244.127 409.596 244.751 408.684C245.399 407.772 246.311 407.052 247.487 406.524C248.687 405.996 250.091 405.732 251.699 405.732C254.075 405.732 255.971 406.332 257.387 407.532C258.803 408.708 259.583 410.304 259.727 412.32H254.903C254.831 411.528 254.495 410.904 253.895 410.448C253.319 409.968 252.539 409.728 251.555 409.728C250.643 409.728 249.935 409.896 249.431 410.232C248.951 410.568 248.711 411.036 248.711 411.636C248.711 412.308 249.047 412.824 249.719 413.184C250.391 413.52 251.435 413.868 252.851 414.228C254.291 414.588 255.479 414.96 256.415 415.344C257.351 415.728 258.155 416.328 258.827 417.144C259.523 417.936 259.883 418.992 259.907 420.312C259.907 421.464 259.583 422.496 258.935 423.408C258.311 424.32 257.399 425.04 256.199 425.568C255.023 426.072 253.643 426.324 252.059 426.324Z" fill="#FFFEFD"/>
<mask id="path-5-inside-2_2111_248" fill="white">
<path d="M540.209 88.2265C511.293 82.6989 481.354 87.9479 456.044 102.983C430.733 118.017 411.802 141.797 402.824 169.834C393.846 197.871 395.442 228.225 407.311 255.165C419.18 282.106 440.5 303.769 467.248 316.067C493.996 328.364 524.32 330.444 552.496 321.915C580.673 313.385 604.752 294.836 620.189 269.768C635.625 244.701 641.352 214.85 636.286 185.85C631.221 156.85 615.714 130.707 592.694 112.357L574.703 134.926C592.209 148.881 604.002 168.762 607.854 190.816C611.706 212.87 607.351 235.571 595.612 254.634C583.873 273.697 565.561 287.804 544.134 294.29C522.706 300.777 499.645 299.195 479.304 289.843C458.963 280.491 442.75 264.016 433.724 243.529C424.698 223.041 423.484 199.958 430.311 178.637C437.139 157.315 451.536 139.231 470.784 127.797C490.032 116.364 512.8 112.372 534.789 116.576L540.209 88.2265Z"/>
</mask>
<path d="M540.209 88.2265C511.293 82.6989 481.354 87.9479 456.044 102.983C430.733 118.017 411.802 141.797 402.824 169.834C393.846 197.871 395.442 228.225 407.311 255.165C419.18 282.106 440.5 303.769 467.248 316.067C493.996 328.364 524.32 330.444 552.496 321.915C580.673 313.385 604.752 294.836 620.189 269.768C635.625 244.701 641.352 214.85 636.286 185.85C631.221 156.85 615.714 130.707 592.694 112.357L574.703 134.926C592.209 148.881 604.002 168.762 607.854 190.816C611.706 212.87 607.351 235.571 595.612 254.634C583.873 273.697 565.561 287.804 544.134 294.29C522.706 300.777 499.645 299.195 479.304 289.843C458.963 280.491 442.75 264.016 433.724 243.529C424.698 223.041 423.484 199.958 430.311 178.637C437.139 157.315 451.536 139.231 470.784 127.797C490.032 116.364 512.8 112.372 534.789 116.576L540.209 88.2265Z" stroke="#FFFEFD" stroke-width="36" mask="url(#path-5-inside-2_2111_248)"/>
<mask id="path-6-inside-3_2111_248" fill="white">
<path d="M595.091 114.312C580.916 102.396 564.185 93.906 546.198 89.503C528.211 85.0999 509.45 84.9019 491.374 88.9242L497.643 117.098C511.39 114.039 525.657 114.19 539.336 117.538C553.015 120.886 565.738 127.342 576.517 136.405L595.091 114.312Z"/>
</mask>
<path d="M595.091 114.312C580.916 102.396 564.185 93.906 546.198 89.503C528.211 85.0999 509.45 84.9019 491.374 88.9242L497.643 117.098C511.39 114.039 525.657 114.19 539.336 117.538C553.015 120.886 565.738 127.342 576.517 136.405L595.091 114.312Z" stroke="#622996" stroke-width="36" mask="url(#path-6-inside-3_2111_248)"/>
<path d="M473.606 192V184.26H488.066V228H479.426V192H473.606ZM495.344 192V184.26H509.804V228H501.164V192H495.344ZM517.142 195C517.142 191.96 518.022 189.58 519.782 187.86C521.582 186.14 523.882 185.28 526.682 185.28C529.482 185.28 531.762 186.14 533.522 187.86C535.322 189.58 536.222 191.96 536.222 195C536.222 198.08 535.322 200.48 533.522 202.2C531.762 203.92 529.482 204.78 526.682 204.78C523.882 204.78 521.582 203.92 519.782 202.2C518.022 200.48 517.142 198.08 517.142 195ZM555.662 186L532.082 228H523.922L547.442 186H555.662ZM526.622 190.32C524.422 190.32 523.322 191.88 523.322 195C523.322 198.16 524.422 199.74 526.622 199.74C527.702 199.74 528.542 199.36 529.142 198.6C529.742 197.8 530.042 196.6 530.042 195C530.042 191.88 528.902 190.32 526.622 190.32ZM543.482 218.94C543.482 215.86 544.362 213.48 546.122 211.8C547.922 210.08 550.222 209.22 553.022 209.22C555.822 209.22 558.082 210.08 559.802 211.8C561.562 213.48 562.442 215.86 562.442 218.94C562.442 222.02 561.562 224.42 559.802 226.14C558.082 227.86 555.822 228.72 553.022 228.72C550.182 228.72 547.882 227.86 546.122 226.14C544.362 224.42 543.482 222.02 543.482 218.94ZM552.962 214.26C550.682 214.26 549.542 215.82 549.542 218.94C549.542 222.1 550.682 223.68 552.962 223.68C555.202 223.68 556.322 222.1 556.322 218.94C556.322 215.82 555.202 214.26 552.962 214.26Z" fill="#FFFEFD"/>
<path d="M436.434 356.872C439.074 356.872 441.39 357.388 443.382 358.42C445.398 359.452 446.946 360.928 448.026 362.848C449.13 364.744 449.682 366.952 449.682 369.472C449.682 371.992 449.13 374.2 448.026 376.096C446.946 377.968 445.398 379.42 443.382 380.452C441.39 381.484 439.074 382 436.434 382H427.65V356.872H436.434ZM436.254 377.716C438.894 377.716 440.934 376.996 442.374 375.556C443.814 374.116 444.534 372.088 444.534 369.472C444.534 366.856 443.814 364.816 442.374 363.352C440.934 361.864 438.894 361.12 436.254 361.12H432.69V377.716H436.254ZM471.995 371.596C471.995 372.316 471.947 372.964 471.851 373.54H457.271C457.391 374.98 457.895 376.108 458.783 376.924C459.671 377.74 460.763 378.148 462.059 378.148C463.931 378.148 465.263 377.344 466.055 375.736H471.491C470.915 377.656 469.811 379.24 468.179 380.488C466.547 381.712 464.543 382.324 462.167 382.324C460.247 382.324 458.519 381.904 456.983 381.064C455.471 380.2 454.283 378.988 453.419 377.428C452.579 375.868 452.159 374.068 452.159 372.028C452.159 369.964 452.579 368.152 453.419 366.592C454.259 365.032 455.435 363.832 456.947 362.992C458.459 362.152 460.199 361.732 462.167 361.732C464.063 361.732 465.755 362.14 467.243 362.956C468.755 363.772 469.919 364.936 470.735 366.448C471.575 367.936 471.995 369.652 471.995 371.596ZM466.775 370.156C466.751 368.86 466.283 367.828 465.371 367.06C464.459 366.268 463.343 365.872 462.023 365.872C460.775 365.872 459.719 366.256 458.855 367.024C458.015 367.768 457.499 368.812 457.307 370.156H466.775ZM474.377 371.956C474.377 369.94 474.773 368.152 475.565 366.592C476.381 365.032 477.473 363.832 478.841 362.992C480.233 362.152 481.781 361.732 483.485 361.732C484.973 361.732 486.269 362.032 487.373 362.632C488.501 363.232 489.401 363.988 490.073 364.9V362.056H495.149V382H490.073V379.084C489.425 380.02 488.525 380.8 487.373 381.424C486.245 382.024 484.937 382.324 483.449 382.324C481.769 382.324 480.233 381.892 478.841 381.028C477.473 380.164 476.381 378.952 475.565 377.392C474.773 375.808 474.377 373.996 474.377 371.956ZM490.073 372.028C490.073 370.804 489.833 369.76 489.353 368.896C488.873 368.008 488.225 367.336 487.409 366.88C486.593 366.4 485.717 366.16 484.781 366.16C483.845 366.16 482.981 366.388 482.189 366.844C481.397 367.3 480.749 367.972 480.245 368.86C479.765 369.724 479.525 370.756 479.525 371.956C479.525 373.156 479.765 374.212 480.245 375.124C480.749 376.012 481.397 376.696 482.189 377.176C483.005 377.656 483.869 377.896 484.781 377.896C485.717 377.896 486.593 377.668 487.409 377.212C488.225 376.732 488.873 376.06 489.353 375.196C489.833 374.308 490.073 373.252 490.073 372.028ZM505.112 355.36V382H500.072V355.36H505.112ZM528.631 371.596C528.631 372.316 528.583 372.964 528.487 373.54H513.907C514.027 374.98 514.531 376.108 515.419 376.924C516.307 377.74 517.399 378.148 518.695 378.148C520.567 378.148 521.899 377.344 522.691 375.736H528.127C527.551 377.656 526.447 379.24 524.815 380.488C523.183 381.712 521.179 382.324 518.803 382.324C516.883 382.324 515.155 381.904 513.619 381.064C512.107 380.2 510.919 378.988 510.055 377.428C509.215 375.868 508.795 374.068 508.795 372.028C508.795 369.964 509.215 368.152 510.055 366.592C510.895 365.032 512.071 363.832 513.583 362.992C515.095 362.152 516.835 361.732 518.803 361.732C520.699 361.732 522.391 362.14 523.879 362.956C525.391 363.772 526.555 364.936 527.371 366.448C528.211 367.936 528.631 369.652 528.631 371.596ZM523.411 370.156C523.387 368.86 522.919 367.828 522.007 367.06C521.095 366.268 519.979 365.872 518.659 365.872C517.411 365.872 516.355 366.256 515.491 367.024C514.651 367.768 514.135 368.812 513.943 370.156H523.411ZM537.35 365.152C537.998 364.096 538.838 363.268 539.87 362.668C540.926 362.068 542.126 361.768 543.47 361.768V367.06H542.138C540.554 367.06 539.354 367.432 538.538 368.176C537.746 368.92 537.35 370.216 537.35 372.064V382H532.31V362.056H537.35V365.152ZM554.497 382.324C552.865 382.324 551.401 382.036 550.105 381.46C548.809 380.86 547.777 380.056 547.009 379.048C546.265 378.04 545.857 376.924 545.785 375.7H550.861C550.957 376.468 551.329 377.104 551.977 377.608C552.649 378.112 553.477 378.364 554.461 378.364C555.421 378.364 556.165 378.172 556.693 377.788C557.245 377.404 557.521 376.912 557.521 376.312C557.521 375.664 557.185 375.184 556.513 374.872C555.865 374.536 554.821 374.176 553.381 373.792C551.893 373.432 550.669 373.06 549.709 372.676C548.773 372.292 547.957 371.704 547.261 370.912C546.589 370.12 546.253 369.052 546.253 367.708C546.253 366.604 546.565 365.596 547.189 364.684C547.837 363.772 548.749 363.052 549.925 362.524C551.125 361.996 552.529 361.732 554.137 361.732C556.513 361.732 558.409 362.332 559.825 363.532C561.241 364.708 562.021 366.304 562.165 368.32H557.341C557.269 367.528 556.933 366.904 556.333 366.448C555.757 365.968 554.977 365.728 553.993 365.728C553.081 365.728 552.373 365.896 551.869 366.232C551.389 366.568 551.149 367.036 551.149 367.636C551.149 368.308 551.485 368.824 552.157 369.184C552.829 369.52 553.873 369.868 555.289 370.228C556.729 370.588 557.917 370.96 558.853 371.344C559.789 371.728 560.593 372.328 561.265 373.144C561.961 373.936 562.321 374.992 562.345 376.312C562.345 377.464 562.021 378.496 561.373 379.408C560.749 380.32 559.837 381.04 558.637 381.568C557.461 382.072 556.081 382.324 554.497 382.324ZM577.714 361.768C579.226 361.768 580.57 362.104 581.746 362.776C582.922 363.424 583.834 364.396 584.482 365.692C585.154 366.964 585.49 368.5 585.49 370.3V382H580.45V370.984C580.45 369.4 580.054 368.188 579.262 367.348C578.47 366.484 577.39 366.052 576.022 366.052C574.63 366.052 573.526 366.484 572.71 367.348C571.918 368.188 571.522 369.4 571.522 370.984V382H566.482V355.36H571.522V364.54C572.17 363.676 573.034 363.004 574.114 362.524C575.194 362.02 576.394 361.768 577.714 361.768ZM592.839 359.68C591.951 359.68 591.207 359.404 590.607 358.852C590.031 358.276 589.743 357.568 589.743 356.728C589.743 355.888 590.031 355.192 590.607 354.64C591.207 354.064 591.951 353.776 592.839 353.776C593.727 353.776 594.459 354.064 595.035 354.64C595.635 355.192 595.935 355.888 595.935 356.728C595.935 357.568 595.635 358.276 595.035 358.852C594.459 359.404 593.727 359.68 592.839 359.68ZM595.323 362.056V382H590.283V362.056H595.323ZM605.342 364.936C605.99 364.024 606.878 363.268 608.006 362.668C609.158 362.044 610.466 361.732 611.93 361.732C613.634 361.732 615.17 362.152 616.538 362.992C617.93 363.832 619.022 365.032 619.814 366.592C620.63 368.128 621.038 369.916 621.038 371.956C621.038 373.996 620.63 375.808 619.814 377.392C619.022 378.952 617.93 380.164 616.538 381.028C615.17 381.892 613.634 382.324 611.93 382.324C610.466 382.324 609.17 382.024 608.042 381.424C606.938 380.824 606.038 380.068 605.342 379.156V391.504H600.302V362.056H605.342V364.936ZM615.89 371.956C615.89 370.756 615.638 369.724 615.134 368.86C614.654 367.972 614.006 367.3 613.19 366.844C612.398 366.388 611.534 366.16 610.598 366.16C609.686 366.16 608.822 366.4 608.006 366.88C607.214 367.336 606.566 368.008 606.062 368.896C605.582 369.784 605.342 370.828 605.342 372.028C605.342 373.228 605.582 374.272 606.062 375.16C606.566 376.048 607.214 376.732 608.006 377.212C608.822 377.668 609.686 377.896 610.598 377.896C611.534 377.896 612.398 377.656 613.19 377.176C614.006 376.696 614.654 376.012 615.134 375.124C615.638 374.236 615.89 373.18 615.89 371.956ZM632.333 382.324C630.701 382.324 629.237 382.036 627.941 381.46C626.645 380.86 625.613 380.056 624.845 379.048C624.101 378.04 623.693 376.924 623.621 375.7H628.697C628.793 376.468 629.165 377.104 629.813 377.608C630.485 378.112 631.313 378.364 632.297 378.364C633.257 378.364 634.001 378.172 634.529 377.788C635.081 377.404 635.357 376.912 635.357 376.312C635.357 375.664 635.021 375.184 634.349 374.872C633.701 374.536 632.657 374.176 631.217 373.792C629.729 373.432 628.505 373.06 627.545 372.676C626.609 372.292 625.793 371.704 625.097 370.912C624.425 370.12 624.089 369.052 624.089 367.708C624.089 366.604 624.401 365.596 625.025 364.684C625.673 363.772 626.585 363.052 627.761 362.524C628.961 361.996 630.365 361.732 631.973 361.732C634.349 361.732 636.245 362.332 637.661 363.532C639.077 364.708 639.857 366.304 640.001 368.32H635.177C635.105 367.528 634.769 366.904 634.169 366.448C633.593 365.968 632.813 365.728 631.829 365.728C630.917 365.728 630.209 365.896 629.705 366.232C629.225 366.568 628.985 367.036 628.985 367.636C628.985 368.308 629.321 368.824 629.993 369.184C630.665 369.52 631.709 369.868 633.125 370.228C634.565 370.588 635.753 370.96 636.689 371.344C637.625 371.728 638.429 372.328 639.101 373.144C639.797 373.936 640.157 374.992 640.181 376.312C640.181 377.464 639.857 378.496 639.209 379.408C638.585 380.32 637.673 381.04 636.473 381.568C635.297 382.072 633.917 382.324 632.333 382.324Z" fill="#FFFEFD"/>
<mask id="path-9-inside-4_2111_248" fill="white">
<path d="M911.209 82.2265C882.293 76.6989 852.354 81.9479 827.044 96.9826C801.733 112.017 782.802 135.797 773.824 163.834C764.846 191.871 766.442 222.225 778.311 249.165C790.18 276.106 811.5 297.769 838.248 310.067C864.996 322.364 895.32 324.444 923.496 315.915C951.673 307.385 975.752 288.836 991.189 263.768C1006.63 238.701 1012.35 208.85 1007.29 179.85C1002.22 150.85 986.714 124.707 963.694 106.357L945.703 128.926C963.209 142.881 975.002 162.762 978.854 184.816C982.706 206.87 978.351 229.571 966.612 248.634C954.873 267.697 936.561 281.804 915.134 288.29C893.706 294.777 870.645 293.195 850.304 283.843C829.963 274.491 813.75 258.016 804.724 237.529C795.698 217.041 794.484 193.958 801.311 172.637C808.139 151.315 822.536 133.231 841.784 121.797C861.032 110.364 883.8 106.372 905.789 110.576L911.209 82.2265Z"/>
</mask>
<path d="M911.209 82.2265C882.293 76.6989 852.354 81.9479 827.044 96.9826C801.733 112.017 782.802 135.797 773.824 163.834C764.846 191.871 766.442 222.225 778.311 249.165C790.18 276.106 811.5 297.769 838.248 310.067C864.996 322.364 895.32 324.444 923.496 315.915C951.673 307.385 975.752 288.836 991.189 263.768C1006.63 238.701 1012.35 208.85 1007.29 179.85C1002.22 150.85 986.714 124.707 963.694 106.357L945.703 128.926C963.209 142.881 975.002 162.762 978.854 184.816C982.706 206.87 978.351 229.571 966.612 248.634C954.873 267.697 936.561 281.804 915.134 288.29C893.706 294.777 870.645 293.195 850.304 283.843C829.963 274.491 813.75 258.016 804.724 237.529C795.698 217.041 794.484 193.958 801.311 172.637C808.139 151.315 822.536 133.231 841.784 121.797C861.032 110.364 883.8 106.372 905.789 110.576L911.209 82.2265Z" stroke="#FFFEFD" stroke-width="36" mask="url(#path-9-inside-4_2111_248)"/>
<mask id="path-10-inside-5_2111_248" fill="white">
<path d="M966.091 108.312C951.916 96.3955 935.185 87.906 917.198 83.503C899.211 79.0999 880.45 78.9019 862.374 82.9242L868.643 111.098C882.39 108.039 896.657 108.19 910.336 111.538C924.015 114.886 936.738 121.342 947.517 130.405L966.091 108.312Z"/>
</mask>
<path d="M966.091 108.312C951.916 96.3955 935.185 87.906 917.198 83.503C899.211 79.0999 880.45 78.9019 862.374 82.9242L868.643 111.098C882.39 108.039 896.657 108.19 910.336 111.538C924.015 114.886 936.738 121.342 947.517 130.405L966.091 108.312Z" stroke="#622996" stroke-width="36" mask="url(#path-10-inside-5_2111_248)"/>
<path d="M876.89 186.221H857.45V196.481C858.29 195.441 859.49 194.601 861.05 193.961C862.61 193.281 864.27 192.941 866.03 192.941C869.23 192.941 871.85 193.641 873.89 195.041C875.93 196.441 877.41 198.241 878.33 200.441C879.25 202.601 879.71 204.921 879.71 207.401C879.71 212.001 878.39 215.701 875.75 218.501C873.15 221.301 869.43 222.701 864.59 222.701C860.03 222.701 856.39 221.561 853.67 219.281C850.95 217.001 849.41 214.021 849.05 210.341H857.21C857.57 211.941 858.37 213.221 859.61 214.181C860.89 215.141 862.51 215.621 864.47 215.621C866.83 215.621 868.61 214.881 869.81 213.401C871.01 211.921 871.61 209.961 871.61 207.521C871.61 205.041 870.99 203.161 869.75 201.881C868.55 200.561 866.77 199.901 864.41 199.901C862.73 199.901 861.33 200.321 860.21 201.161C859.09 202.001 858.29 203.121 857.81 204.521H849.77V178.841H876.89V186.221ZM885.143 189.701C885.143 186.661 886.023 184.281 887.783 182.561C889.583 180.841 891.883 179.981 894.683 179.981C897.483 179.981 899.763 180.841 901.523 182.561C903.323 184.281 904.223 186.661 904.223 189.701C904.223 192.781 903.323 195.181 901.523 196.901C899.763 198.621 897.483 199.481 894.683 199.481C891.883 199.481 889.583 198.621 887.783 196.901C886.023 195.181 885.143 192.781 885.143 189.701ZM923.663 180.701L900.083 222.701H891.923L915.443 180.701H923.663ZM894.623 185.021C892.423 185.021 891.323 186.581 891.323 189.701C891.323 192.861 892.423 194.441 894.623 194.441C895.703 194.441 896.543 194.061 897.143 193.301C897.743 192.501 898.043 191.301 898.043 189.701C898.043 186.581 896.903 185.021 894.623 185.021ZM911.483 213.641C911.483 210.561 912.363 208.181 914.123 206.501C915.923 204.781 918.223 203.921 921.023 203.921C923.823 203.921 926.083 204.781 927.803 206.501C929.563 208.181 930.443 210.561 930.443 213.641C930.443 216.721 929.563 219.121 927.803 220.841C926.083 222.561 923.823 223.421 921.023 223.421C918.183 223.421 915.883 222.561 914.123 220.841C912.363 219.121 911.483 216.721 911.483 213.641ZM920.963 208.961C918.683 208.961 917.543 210.521 917.543 213.641C917.543 216.801 918.683 218.381 920.963 218.381C923.203 218.381 924.323 216.801 924.323 213.641C924.323 210.521 923.203 208.961 920.963 208.961Z" fill="#FFFEFD"/>
<path d="M845.477 378.004H853.757V382H840.437V356.872H845.477V378.004ZM855.665 371.956C855.665 369.94 856.061 368.152 856.853 366.592C857.669 365.032 858.761 363.832 860.129 362.992C861.521 362.152 863.069 361.732 864.773 361.732C866.261 361.732 867.557 362.032 868.661 362.632C869.789 363.232 870.689 363.988 871.361 364.9V362.056H876.437V382H871.361V379.084C870.713 380.02 869.813 380.8 868.661 381.424C867.533 382.024 866.225 382.324 864.737 382.324C863.057 382.324 861.521 381.892 860.129 381.028C858.761 380.164 857.669 378.952 856.853 377.392C856.061 375.808 855.665 373.996 855.665 371.956ZM871.361 372.028C871.361 370.804 871.121 369.76 870.641 368.896C870.161 368.008 869.513 367.336 868.697 366.88C867.881 366.4 867.005 366.16 866.069 366.16C865.133 366.16 864.269 366.388 863.477 366.844C862.685 367.3 862.037 367.972 861.533 368.86C861.053 369.724 860.813 370.756 860.813 371.956C860.813 373.156 861.053 374.212 861.533 375.124C862.037 376.012 862.685 376.696 863.477 377.176C864.293 377.656 865.157 377.896 866.069 377.896C867.005 377.896 867.881 377.668 868.697 377.212C869.513 376.732 870.161 376.06 870.641 375.196C871.121 374.308 871.361 373.252 871.361 372.028ZM886.399 365.152C887.047 364.096 887.887 363.268 888.919 362.668C889.975 362.068 891.175 361.768 892.519 361.768V367.06H891.187C889.603 367.06 888.403 367.432 887.587 368.176C886.795 368.92 886.399 370.216 886.399 372.064V382H881.359V362.056H886.399V365.152ZM903.726 361.732C905.214 361.732 906.522 362.032 907.65 362.632C908.778 363.208 909.666 363.964 910.314 364.9V362.056H915.39V382.144C915.39 383.992 915.018 385.636 914.274 387.076C913.53 388.54 912.414 389.692 910.926 390.532C909.438 391.396 907.638 391.828 905.526 391.828C902.694 391.828 900.366 391.168 898.542 389.848C896.742 388.528 895.722 386.728 895.482 384.448H900.486C900.75 385.36 901.314 386.08 902.178 386.608C903.066 387.16 904.134 387.436 905.382 387.436C906.846 387.436 908.034 386.992 908.946 386.104C909.858 385.24 910.314 383.92 910.314 382.144V379.048C909.666 379.984 908.766 380.764 907.614 381.388C906.486 382.012 905.19 382.324 903.726 382.324C902.046 382.324 900.51 381.892 899.118 381.028C897.726 380.164 896.622 378.952 895.806 377.392C895.014 375.808 894.618 373.996 894.618 371.956C894.618 369.94 895.014 368.152 895.806 366.592C896.622 365.032 897.714 363.832 899.082 362.992C900.474 362.152 902.022 361.732 903.726 361.732ZM910.314 372.028C910.314 370.804 910.074 369.76 909.594 368.896C909.114 368.008 908.466 367.336 907.65 366.88C906.834 366.4 905.958 366.16 905.022 366.16C904.086 366.16 903.222 366.388 902.43 366.844C901.638 367.3 900.99 367.972 900.486 368.86C900.006 369.724 899.766 370.756 899.766 371.956C899.766 373.156 900.006 374.212 900.486 375.124C900.99 376.012 901.638 376.696 902.43 377.176C903.246 377.656 904.11 377.896 905.022 377.896C905.958 377.896 906.834 377.668 907.65 377.212C908.466 376.732 909.114 376.06 909.594 375.196C910.074 374.308 910.314 373.252 910.314 372.028ZM938.852 371.596C938.852 372.316 938.804 372.964 938.708 373.54H924.128C924.248 374.98 924.752 376.108 925.64 376.924C926.528 377.74 927.62 378.148 928.916 378.148C930.788 378.148 932.12 377.344 932.912 375.736H938.348C937.772 377.656 936.668 379.24 935.036 380.488C933.404 381.712 931.4 382.324 929.024 382.324C927.104 382.324 925.376 381.904 923.84 381.064C922.328 380.2 921.14 378.988 920.276 377.428C919.436 375.868 919.016 374.068 919.016 372.028C919.016 369.964 919.436 368.152 920.276 366.592C921.116 365.032 922.292 363.832 923.804 362.992C925.316 362.152 927.056 361.732 929.024 361.732C930.92 361.732 932.612 362.14 934.1 362.956C935.612 363.772 936.776 364.936 937.592 366.448C938.432 367.936 938.852 369.652 938.852 371.596ZM933.632 370.156C933.608 368.86 933.14 367.828 932.228 367.06C931.316 366.268 930.2 365.872 928.88 365.872C927.632 365.872 926.576 366.256 925.712 367.024C924.872 367.768 924.356 368.812 924.164 370.156H933.632ZM769.358 413.4C769.358 410.928 769.91 408.72 771.014 406.776C772.142 404.808 773.666 403.284 775.586 402.204C777.53 401.1 779.702 400.548 782.102 400.548C784.91 400.548 787.37 401.268 789.482 402.708C791.594 404.148 793.07 406.14 793.91 408.684H788.114C787.538 407.484 786.722 406.584 785.666 405.984C784.634 405.384 783.434 405.084 782.066 405.084C780.602 405.084 779.294 405.432 778.142 406.128C777.014 406.8 776.126 407.76 775.478 409.008C774.854 410.256 774.542 411.72 774.542 413.4C774.542 415.056 774.854 416.52 775.478 417.792C776.126 419.04 777.014 420.012 778.142 420.708C779.294 421.38 780.602 421.716 782.066 421.716C783.434 421.716 784.634 421.416 785.666 420.816C786.722 420.192 787.538 419.28 788.114 418.08H793.91C793.07 420.648 791.594 422.652 789.482 424.092C787.394 425.508 784.934 426.216 782.102 426.216C779.702 426.216 777.53 425.676 775.586 424.596C773.666 423.492 772.142 421.968 771.014 420.024C769.91 418.08 769.358 415.872 769.358 413.4ZM807.07 426.324C805.15 426.324 803.422 425.904 801.886 425.064C800.35 424.2 799.138 422.988 798.25 421.428C797.386 419.868 796.954 418.068 796.954 416.028C796.954 413.988 797.398 412.188 798.286 410.628C799.198 409.068 800.434 407.868 801.994 407.028C803.554 406.164 805.294 405.732 807.214 405.732C809.134 405.732 810.874 406.164 812.434 407.028C813.994 407.868 815.218 409.068 816.106 410.628C817.018 412.188 817.474 413.988 817.474 416.028C817.474 418.068 817.006 419.868 816.07 421.428C815.158 422.988 813.91 424.2 812.326 425.064C810.766 425.904 809.014 426.324 807.07 426.324ZM807.07 421.932C807.982 421.932 808.834 421.716 809.626 421.284C810.442 420.828 811.09 420.156 811.57 419.268C812.05 418.38 812.29 417.3 812.29 416.028C812.29 414.132 811.786 412.68 810.778 411.672C809.794 410.64 808.582 410.124 807.142 410.124C805.702 410.124 804.49 410.64 803.506 411.672C802.546 412.68 802.066 414.132 802.066 416.028C802.066 417.924 802.534 419.388 803.47 420.42C804.43 421.428 805.63 421.932 807.07 421.932ZM826.212 409.152C826.86 408.096 827.7 407.268 828.732 406.668C829.788 406.068 830.988 405.768 832.332 405.768V411.06H831C829.416 411.06 828.216 411.432 827.4 412.176C826.608 412.92 826.212 414.216 826.212 416.064V426H821.172V406.056H826.212V409.152ZM840.766 408.936C841.414 408.024 842.302 407.268 843.43 406.668C844.582 406.044 845.89 405.732 847.354 405.732C849.058 405.732 850.594 406.152 851.962 406.992C853.354 407.832 854.446 409.032 855.238 410.592C856.054 412.128 856.462 413.916 856.462 415.956C856.462 417.996 856.054 419.808 855.238 421.392C854.446 422.952 853.354 424.164 851.962 425.028C850.594 425.892 849.058 426.324 847.354 426.324C845.89 426.324 844.594 426.024 843.466 425.424C842.362 424.824 841.462 424.068 840.766 423.156V435.504H835.726V406.056H840.766V408.936ZM851.314 415.956C851.314 414.756 851.062 413.724 850.558 412.86C850.078 411.972 849.43 411.3 848.614 410.844C847.822 410.388 846.958 410.16 846.022 410.16C845.11 410.16 844.246 410.4 843.43 410.88C842.638 411.336 841.99 412.008 841.486 412.896C841.006 413.784 840.766 414.828 840.766 416.028C840.766 417.228 841.006 418.272 841.486 419.16C841.99 420.048 842.638 420.732 843.43 421.212C844.246 421.668 845.11 421.896 846.022 421.896C846.958 421.896 847.822 421.656 848.614 421.176C849.43 420.696 850.078 420.012 850.558 419.124C851.062 418.236 851.314 417.18 851.314 415.956ZM868.981 426.324C867.061 426.324 865.333 425.904 863.797 425.064C862.261 424.2 861.049 422.988 860.161 421.428C859.297 419.868 858.865 418.068 858.865 416.028C858.865 413.988 859.309 412.188 860.197 410.628C861.109 409.068 862.345 407.868 863.905 407.028C865.465 406.164 867.205 405.732 869.125 405.732C871.045 405.732 872.785 406.164 874.345 407.028C875.905 407.868 877.129 409.068 878.017 410.628C878.929 412.188 879.385 413.988 879.385 416.028C879.385 418.068 878.917 419.868 877.981 421.428C877.069 422.988 875.821 424.2 874.237 425.064C872.677 425.904 870.925 426.324 868.981 426.324ZM868.981 421.932C869.893 421.932 870.745 421.716 871.537 421.284C872.353 420.828 873.001 420.156 873.481 419.268C873.961 418.38 874.201 417.3 874.201 416.028C874.201 414.132 873.697 412.68 872.689 411.672C871.705 410.64 870.493 410.124 869.053 410.124C867.613 410.124 866.401 410.64 865.417 411.672C864.457 412.68 863.977 414.132 863.977 416.028C863.977 417.924 864.445 419.388 865.381 420.42C866.341 421.428 867.541 421.932 868.981 421.932ZM888.122 409.152C888.77 408.096 889.61 407.268 890.642 406.668C891.698 406.068 892.898 405.768 894.242 405.768V411.06H892.91C891.326 411.06 890.126 411.432 889.31 412.176C888.518 412.92 888.122 414.216 888.122 416.064V426H883.082V406.056H888.122V409.152ZM896.34 415.956C896.34 413.94 896.736 412.152 897.528 410.592C898.344 409.032 899.436 407.832 900.804 406.992C902.196 406.152 903.744 405.732 905.448 405.732C906.936 405.732 908.232 406.032 909.336 406.632C910.464 407.232 911.364 407.988 912.036 408.9V406.056H917.112V426H912.036V423.084C911.388 424.02 910.488 424.8 909.336 425.424C908.208 426.024 906.9 426.324 905.412 426.324C903.732 426.324 902.196 425.892 900.804 425.028C899.436 424.164 898.344 422.952 897.528 421.392C896.736 419.808 896.34 417.996 896.34 415.956ZM912.036 416.028C912.036 414.804 911.796 413.76 911.316 412.896C910.836 412.008 910.188 411.336 909.372 410.88C908.556 410.4 907.68 410.16 906.744 410.16C905.808 410.16 904.944 410.388 904.152 410.844C903.36 411.3 902.712 411.972 902.208 412.86C901.728 413.724 901.488 414.756 901.488 415.956C901.488 417.156 901.728 418.212 902.208 419.124C902.712 420.012 903.36 420.696 904.152 421.176C904.968 421.656 905.832 421.896 906.744 421.896C907.68 421.896 908.556 421.668 909.372 421.212C910.188 420.732 910.836 420.06 911.316 419.196C911.796 418.308 912.036 417.252 912.036 416.028ZM927.903 410.196V419.844C927.903 420.516 928.059 421.008 928.371 421.32C928.707 421.608 929.259 421.752 930.027 421.752H932.367V426H929.199C924.951 426 922.827 423.936 922.827 419.808V410.196H920.451V406.056H922.827V401.124H927.903V406.056H932.367V410.196H927.903ZM938.548 403.68C937.66 403.68 936.916 403.404 936.316 402.852C935.74 402.276 935.452 401.568 935.452 400.728C935.452 399.888 935.74 399.192 936.316 398.64C936.916 398.064 937.66 397.776 938.548 397.776C939.436 397.776 940.168 398.064 940.744 398.64C941.344 399.192 941.644 399.888 941.644 400.728C941.644 401.568 941.344 402.276 940.744 402.852C940.168 403.404 939.436 403.68 938.548 403.68ZM941.032 406.056V426H935.992V406.056H941.032ZM954.867 426.324C952.947 426.324 951.219 425.904 949.683 425.064C948.147 424.2 946.935 422.988 946.047 421.428C945.183 419.868 944.751 418.068 944.751 416.028C944.751 413.988 945.195 412.188 946.083 410.628C946.995 409.068 948.231 407.868 949.791 407.028C951.351 406.164 953.091 405.732 955.011 405.732C956.931 405.732 958.671 406.164 960.231 407.028C961.791 407.868 963.015 409.068 963.903 410.628C964.815 412.188 965.271 413.988 965.271 416.028C965.271 418.068 964.803 419.868 963.867 421.428C962.955 422.988 961.707 424.2 960.123 425.064C958.563 425.904 956.811 426.324 954.867 426.324ZM954.867 421.932C955.779 421.932 956.631 421.716 957.423 421.284C958.239 420.828 958.887 420.156 959.367 419.268C959.847 418.38 960.087 417.3 960.087 416.028C960.087 414.132 959.583 412.68 958.575 411.672C957.591 410.64 956.379 410.124 954.939 410.124C953.499 410.124 952.287 410.64 951.303 411.672C950.343 412.68 949.863 414.132 949.863 416.028C949.863 417.924 950.331 419.388 951.267 420.42C952.227 421.428 953.427 421.932 954.867 421.932ZM980.02 405.768C982.396 405.768 984.316 406.524 985.78 408.036C987.244 409.524 987.976 411.612 987.976 414.3V426H982.936V414.984C982.936 413.4 982.54 412.188 981.748 411.348C980.956 410.484 979.876 410.052 978.508 410.052C977.116 410.052 976.012 410.484 975.196 411.348C974.404 412.188 974.008 413.4 974.008 414.984V426H968.968V406.056H974.008V408.54C974.68 407.676 975.532 407.004 976.564 406.524C977.62 406.02 978.772 405.768 980.02 405.768ZM1000.4 426.324C998.769 426.324 997.305 426.036 996.009 425.46C994.713 424.86 993.681 424.056 992.913 423.048C992.169 422.04 991.761 420.924 991.689 419.7H996.765C996.861 420.468 997.233 421.104 997.881 421.608C998.553 422.112 999.381 422.364 1000.37 422.364C1001.33 422.364 1002.07 422.172 1002.6 421.788C1003.15 421.404 1003.43 420.912 1003.43 420.312C1003.43 419.664 1003.09 419.184 1002.42 418.872C1001.77 418.536 1000.73 418.176 999.285 417.792C997.797 417.432 996.573 417.06 995.613 416.676C994.677 416.292 993.861 415.704 993.165 414.912C992.493 414.12 992.157 413.052 992.157 411.708C992.157 410.604 992.469 409.596 993.093 408.684C993.741 407.772 994.653 407.052 995.829 406.524C997.029 405.996 998.433 405.732 1000.04 405.732C1002.42 405.732 1004.31 406.332 1005.73 407.532C1007.15 408.708 1007.93 410.304 1008.07 412.32H1003.25C1003.17 411.528 1002.84 410.904 1002.24 410.448C1001.66 409.968 1000.88 409.728 999.897 409.728C998.985 409.728 998.277 409.896 997.773 410.232C997.293 410.568 997.053 411.036 997.053 411.636C997.053 412.308 997.389 412.824 998.061 413.184C998.733 413.52 999.777 413.868 1001.19 414.228C1002.63 414.588 1003.82 414.96 1004.76 415.344C1005.69 415.728 1006.5 416.328 1007.17 417.144C1007.87 417.936 1008.23 418.992 1008.25 420.312C1008.25 421.464 1007.93 422.496 1007.28 423.408C1006.65 424.32 1005.74 425.04 1004.54 425.568C1003.37 426.072 1001.99 426.324 1000.4 426.324Z" fill="#FFFEFD"/>
</svg>
