<svg width="236" height="85" viewBox="0 0 236 85" fill="none" xmlns="http://www.w3.org/2000/svg">
<path fill-rule="evenodd" clip-rule="evenodd" d="M18.2636 27.3589H45.4311C50.8868 19.0097 64.052 0.758828 74.9087 0.520934C88.9921 0.21784 146.548 0.320049 146.548 0.320049C146.548 0.320049 162.003 1.7615 175.413 27.3589H231.959V42.8044C229.337 44.5736 227.607 47.5746 227.607 50.9579V67.674C226.363 68.3806 224.921 68.7859 223.395 68.7859H217.224C217.19 65.4272 217.164 61.3953 217.164 57.0568C217.164 45.3278 204.408 44.5049 191.753 47.1552C181.954 49.2134 175.702 62.7769 173.383 68.7859H92.3578L90.9075 68.6925C89.1824 65.6528 86.71 61.4799 84.5989 58.6129C80.9248 53.6136 57.5601 54.7343 50.5185 57.4921C45.609 59.4146 44.0231 63.3655 43.512 65.5858L18.2636 63.9276C13.5709 63.621 9.70117 60.0754 9.70117 55.3651V35.916C9.70117 31.2128 13.5551 27.3589 18.2636 27.3589Z" fill="#848484"/>
<path fill-rule="evenodd" clip-rule="evenodd" d="M73.2757 11.2402C73.2757 11.2402 80.3896 5.32111 84.7792 5.32111V27.3606H68.5831C68.5831 27.3589 57.5606 26.2381 73.2757 11.2402ZM89.1688 5.31933H118.992V27.3589H89.1688V5.31933ZM123.381 5.31933L142.156 5.2171C142.156 5.2171 153.194 7.92382 159.196 18.481C163.637 26.2892 156.967 27.3589 153.89 27.3589H123.381V5.31933Z" fill="#1A5575"/>
<path fill-rule="evenodd" clip-rule="evenodd" d="M18.2633 27.3588C14.8623 27.3588 11.9036 29.366 10.5273 32.2594H231.955V27.3588H175.409C158.053 27.3588 140.749 27.3588 123.381 27.3588H118.991H89.1697H84.7802H68.584H45.4308H18.2633Z" fill="#A3A3A3"/>
<path fill-rule="evenodd" clip-rule="evenodd" d="M50.5191 57.4921C45.6097 59.4146 44.0237 63.3654 43.5127 65.5858L90.9082 68.6925C89.183 65.6528 86.7107 61.4799 84.5996 58.6129C80.9254 53.6136 57.5608 54.7343 50.5191 57.4921Z" fill="#10110C"/>
<path fill-rule="evenodd" clip-rule="evenodd" d="M68.1611 84.485C77.0988 84.485 84.3872 77.1967 84.3872 68.259C84.3872 59.3212 77.0988 52.0328 68.1611 52.0328C59.2233 52.0328 51.9385 59.3212 51.9385 68.259C51.9385 77.1967 59.2233 84.485 68.1611 84.485Z" fill="#2D2A33"/>
<path fill-rule="evenodd" clip-rule="evenodd" d="M68.1611 79.1282C74.149 79.1282 79.0337 74.2434 79.0337 68.2591C79.0337 62.2712 74.149 57.3864 68.1611 57.3864C62.1732 57.3864 57.292 62.2712 57.292 68.2591C57.292 74.2434 62.1732 79.1282 68.1611 79.1282Z" fill="#605C5D"/>
<path d="M68.1617 75.8241C72.3397 75.8241 75.7267 72.4371 75.7267 68.2591C75.7267 64.081 72.3397 60.694 68.1617 60.694C63.9837 60.694 60.5967 64.081 60.5967 68.2591C60.5967 72.4371 63.9837 75.8241 68.1617 75.8241Z" fill="#E3E2DD"/>
<path fill-rule="evenodd" clip-rule="evenodd" d="M51.4368 50.528C41.5316 51.7862 39.2302 60.5389 38.7139 65.2703L43.5123 65.5858C44.0233 63.3655 45.6093 59.4146 50.5187 57.4921C57.5604 54.7343 80.925 53.6136 84.5992 58.6129C86.7085 61.4817 89.1808 65.6545 90.9078 68.6925L92.358 68.7859H94.566C94.5837 58.7062 88.6169 53.3897 85.4204 51.7492C81.8484 49.9147 65.1095 48.794 51.4368 50.528Z" fill="#A3A3A3"/>
<path fill-rule="evenodd" clip-rule="evenodd" d="M38.7139 65.2704L43.5123 65.5858C44.0233 63.3655 45.6093 59.4146 50.5187 57.4921C56.6775 55.0797 75.3284 53.9202 82.3665 57.0146C81.2405 56.0172 79.4166 55.2753 77.1663 54.7608C72.5582 53.7035 66.1615 53.5766 60.3305 54.0453C55.088 54.4718 50.3019 55.3793 47.6851 56.5353C42.9713 58.6146 41.2073 62.7328 40.5501 65.392L38.7139 65.2704Z" fill="#727272"/>
<path fill-rule="evenodd" clip-rule="evenodd" d="M182.976 45.7331C174.771 50.1438 169.444 62.8844 167.351 68.7877H173.381C175.7 62.7786 181.952 49.2152 191.751 47.157C204.406 44.5066 217.162 45.3278 217.162 57.0586C217.162 61.3971 217.187 65.4289 217.222 68.7877H222.78C223.062 66.5197 223.257 63.9751 223.282 61.2438C223.384 50.7324 221.344 46.5472 215.729 43.1797C210.122 39.8139 193.794 39.9161 182.976 45.7331Z" fill="#A3A3A3"/>
<path fill-rule="evenodd" clip-rule="evenodd" d="M221.391 68.7877H228.151C230.443 68.7877 232.315 66.9162 232.315 64.6237V58.9812C232.315 56.6886 230.443 54.8171 228.151 54.8171H221.391C219.098 54.8171 217.222 56.6886 217.222 58.9812V64.6237C217.222 66.9162 219.097 68.7877 221.391 68.7877Z" fill="#E2DDD9"/>
<path fill-rule="evenodd" clip-rule="evenodd" d="M10.4209 58.7468C11.7513 61.6914 14.7805 63.7003 18.2643 63.9293L38.7144 65.2721C38.91 63.4694 39.3664 61.0816 40.4061 58.7468H10.4209ZM92.1859 58.7468C93.5798 61.3513 94.5736 64.6712 94.5648 68.7876H167.35C168.236 66.2854 169.706 62.5513 171.73 58.7468H92.1859Z" fill="#7A7A7A"/>
<path fill-rule="evenodd" clip-rule="evenodd" d="M84.7783 32.2613V48.9897L118.991 41.5057V32.2613H84.7783ZM123.382 32.2613V48.9897L160.705 41.5057V32.2613H123.382Z" fill="#727272"/>
<path fill-rule="evenodd" clip-rule="evenodd" d="M92.8893 37.6747C96.0647 37.6747 98.6569 36.6649 98.6569 35.4279C98.6569 34.1926 96.0647 33.1864 92.8893 33.1864C89.7138 33.1864 87.127 34.1926 87.127 35.4279C87.127 36.6632 89.7156 37.6747 92.8893 37.6747Z" fill="#848484"/>
<path fill-rule="evenodd" clip-rule="evenodd" d="M132.372 37.8914C135.551 37.8914 138.138 36.8816 138.138 35.6446C138.138 34.4093 135.551 33.3978 132.372 33.3978C129.196 33.3978 126.609 34.4075 126.609 35.6446C126.609 36.8799 129.196 37.8914 132.372 37.8914Z" fill="#848484"/>
<path fill-rule="evenodd" clip-rule="evenodd" d="M86.2913 34.434H95.2802C95.7912 34.434 96.2089 34.8517 96.2089 35.3627V35.4984C96.2089 36.0059 95.7912 36.4235 95.2802 36.4235H86.2913C85.7838 36.4235 85.3662 36.0059 85.3662 35.4984V35.3627C85.3662 34.8517 85.7838 34.434 86.2913 34.434Z" fill="#E3BFBF"/>
<path fill-rule="evenodd" clip-rule="evenodd" d="M125.773 34.6526H134.768C135.275 34.6526 135.693 35.0667 135.693 35.5777V35.7187C135.693 36.2262 135.275 36.6439 134.768 36.6439H125.773C125.262 36.6439 124.845 36.2262 124.845 35.7187V35.5777C124.843 35.0649 125.261 34.6526 125.773 34.6526Z" fill="#E3BFBF"/>
<path fill-rule="evenodd" clip-rule="evenodd" d="M217.222 64.6236C217.222 66.9162 219.097 68.7876 221.391 68.7876H222.781H228.151C230.44 68.7876 232.315 66.9162 232.315 64.6236V64.2958C231.557 65.0835 230.494 65.5734 229.319 65.5734H227.606H223.1H220.219C219.047 65.5734 217.981 65.0835 217.222 64.2958V64.6236Z" fill="#B2AEAB"/>
<path fill-rule="evenodd" clip-rule="evenodd" d="M4.78609 63.3408H11.5458C13.8384 63.3408 15.7098 61.4658 15.7098 59.1768V53.529C15.7098 51.24 13.8384 49.365 11.5458 49.365H4.78609C2.4935 49.365 0.62207 51.24 0.62207 53.529V59.1768C0.62207 61.4658 2.4935 63.3408 4.78609 63.3408Z" fill="#E2DDD9"/>
<path fill-rule="evenodd" clip-rule="evenodd" d="M0.62207 59.1715C0.62207 61.464 2.4935 63.3408 4.78609 63.3408H6.17645H11.5458C13.8384 63.3408 15.7098 61.4658 15.7098 59.1715V58.8472C14.9556 59.6314 13.8895 60.1213 12.7177 60.1213H10.9995H6.4954H3.61425C2.4424 60.1213 1.37981 59.6314 0.62207 58.8472V59.1715Z" fill="#B2AEAB"/>
<path fill-rule="evenodd" clip-rule="evenodd" d="M140.438 5.22592L127.661 27.3589H136.5L147.906 7.5996C144.646 5.82685 142.156 5.2171 142.156 5.2171L140.438 5.22592ZM74.9469 9.94854L65.6885 25.9826C66.707 27.0822 68.3018 27.3201 68.5485 27.3554L80.5982 6.48415C78.466 7.47978 76.3496 8.91767 74.9469 9.94854ZM84.1913 5.34929C84.3922 5.33167 84.5878 5.31933 84.7799 5.31933V19.6405L80.3216 27.3589H71.486L84.1913 5.34929ZM99.9135 5.31933L89.1695 23.9315V27.3589H90.8453L103.568 5.31933H99.9135ZM106.508 5.31933H115.343L102.62 27.3589H93.7793L106.508 5.31933ZM133.828 5.2647L137.49 5.24356L124.725 27.3606H123.382V23.3587L133.828 5.2647Z" fill="#2F6580"/>
<path fill-rule="evenodd" clip-rule="evenodd" d="M191.752 47.1569C181.952 49.2151 175.7 62.7786 173.381 68.7876H217.222C217.189 65.4289 217.162 61.397 217.162 57.0586C217.164 45.3278 204.406 44.5066 191.752 47.1569Z" fill="#10110C"/>
<path fill-rule="evenodd" clip-rule="evenodd" d="M197.893 84.485C206.831 84.485 214.119 77.1967 214.119 68.259C214.119 59.3212 206.831 52.0328 197.893 52.0328C188.955 52.0328 181.667 59.3212 181.667 68.259C181.669 77.1967 188.957 84.485 197.893 84.485Z" fill="#2D2A33"/>
<path fill-rule="evenodd" clip-rule="evenodd" d="M197.893 79.1282C203.881 79.1282 208.766 74.2434 208.766 68.2591C208.766 62.2712 203.881 57.3864 197.893 57.3864C191.905 57.3864 187.021 62.2712 187.021 68.2591C187.021 74.2434 191.905 79.1282 197.893 79.1282Z" fill="#605C5D"/>
<path d="M197.893 75.8241C202.071 75.8241 205.458 72.4371 205.458 68.2591C205.458 64.081 202.071 60.694 197.893 60.694C193.715 60.694 190.328 64.081 190.328 68.2591C190.328 72.4371 193.715 75.8241 197.893 75.8241Z" fill="#E3E2DD"/>
<path fill-rule="evenodd" clip-rule="evenodd" d="M5.20508 37.4773V49.365H9.70215V35.9179C9.70215 35.509 9.73211 35.1002 9.79202 34.7037H7.97874C6.44917 34.7037 5.20508 35.9513 5.20508 37.4773Z" fill="#606060"/>
<path d="M231.957 27.3588H229.71V42.8043H231.957V27.3588Z" fill="#B2B2B2"/>
<path fill-rule="evenodd" clip-rule="evenodd" d="M231.958 27.3588V32.2594V42.8043C234.073 42.8043 235.782 39.3487 235.782 35.0807C235.78 30.8162 234.071 27.3588 231.958 27.3588Z" fill="#F8CB65"/>
<path fill-rule="evenodd" clip-rule="evenodd" d="M74.9071 0.520934C71.8515 0.589659 68.6108 2.08574 65.416 4.38185C66.7165 4.00298 68.0029 3.7845 69.2646 3.76336C85.0766 3.45674 149.704 3.55895 149.704 3.55895C149.704 3.55895 154.09 3.92019 160.36 7.53089C152.57 0.876915 146.547 0.320049 146.547 0.320049C146.547 0.320049 88.9886 0.21784 74.9071 0.520934Z" fill="#A3A3A3"/>
<path fill-rule="evenodd" clip-rule="evenodd" d="M189.083 46.7516C179.472 48.8397 173.274 62.3891 170.85 68.7876H173.382C175.701 62.7786 181.953 49.2151 191.753 47.1569C196.62 46.1383 201.501 45.6308 205.668 46.0608C201.009 44.9612 195.034 45.4599 189.083 46.7516Z" fill="#727272"/>
<path fill-rule="evenodd" clip-rule="evenodd" d="M4.65013 49.3649H5.74972C6.38939 49.3649 6.90924 48.8451 6.90924 48.2089V44.0203C6.90924 43.3806 6.38939 42.8607 5.74972 42.8607H4.65013C4.01574 42.8607 3.49414 43.3806 3.49414 44.0203V48.2089C3.4959 48.8451 4.01574 49.3649 4.65013 49.3649Z" fill="#901016"/>
<path fill-rule="evenodd" clip-rule="evenodd" d="M68.1608 70.5692C69.4349 70.5692 70.4745 69.5296 70.4745 68.2591C70.4745 66.985 69.4349 65.9489 68.1608 65.9489C66.8903 65.9489 65.8506 66.985 65.8506 68.2591C65.8506 69.5296 66.8903 70.5692 68.1608 70.5692Z" fill="#2D2A33"/>
<path fill-rule="evenodd" clip-rule="evenodd" d="M197.892 70.467C199.166 70.467 200.206 69.4308 200.206 68.1568C200.206 66.8862 199.166 65.8466 197.892 65.8466C196.618 65.8466 195.582 66.8862 195.582 68.1568C195.582 69.4308 196.618 70.467 197.892 70.467Z" fill="#2D2A33"/>
<path fill-rule="evenodd" clip-rule="evenodd" d="M72.9598 65.6598C73.5995 65.6598 74.1158 66.1796 74.1158 66.8193C74.1158 67.459 73.5995 67.9788 72.9598 67.9788C72.3166 67.9788 71.8003 67.459 71.8003 66.8193C71.8021 66.1796 72.3166 65.6598 72.9598 65.6598ZM68.1614 62.1777C68.8011 62.1777 69.3209 62.6941 69.3209 63.3337C69.3209 63.9769 68.8011 64.4932 68.1614 64.4932C67.5218 64.4932 67.0072 63.9769 67.0072 63.3337C67.0072 62.6923 67.5218 62.1777 68.1614 62.1777ZM63.3666 65.6598C64.0062 65.6598 64.5261 66.1796 64.5261 66.8193C64.5261 67.459 64.0062 67.9788 63.3666 67.9788C62.7269 67.9788 62.207 67.459 62.207 66.8193C62.207 66.1796 62.7269 65.6598 63.3666 65.6598ZM65.1992 71.3023C65.8389 71.3023 66.3587 71.8186 66.3587 72.4583C66.3587 73.098 65.8389 73.6178 65.1992 73.6178C64.5595 73.6178 64.0397 73.098 64.0397 72.4583C64.0397 71.8186 64.5595 71.3023 65.1992 71.3023ZM71.1272 71.3023C71.7668 71.3023 72.2832 71.8186 72.2832 72.4583C72.2832 73.098 71.7668 73.6178 71.1272 73.6178C70.4875 73.6178 69.9677 73.098 69.9677 72.4583C69.9694 71.8186 70.4893 71.3023 71.1272 71.3023Z" fill="#B2AEAB"/>
<path fill-rule="evenodd" clip-rule="evenodd" d="M202.69 65.5611C203.329 65.5611 203.849 66.0809 203.849 66.7206C203.849 67.3602 203.329 67.8766 202.69 67.8766C202.05 67.8766 201.534 67.3602 201.534 66.7206C201.534 66.0809 202.05 65.5611 202.69 65.5611ZM197.893 62.0737C198.533 62.0737 199.053 62.5936 199.053 63.2332C199.053 63.8729 198.533 64.3928 197.893 64.3928C197.253 64.3928 196.734 63.8729 196.734 63.2332C196.735 62.5953 197.255 62.0737 197.893 62.0737ZM193.1 65.5611C193.74 65.5611 194.259 66.0809 194.259 66.7206C194.259 67.3602 193.74 67.8766 193.1 67.8766C192.46 67.8766 191.94 67.3602 191.94 66.7206C191.94 66.0809 192.46 65.5611 193.1 65.5611ZM194.931 71.2C195.571 71.2 196.087 71.7199 196.087 72.3596C196.087 72.9992 195.571 73.5156 194.931 73.5156C194.291 73.5156 193.771 72.9992 193.771 72.3596C193.773 71.7199 194.293 71.2 194.931 71.2ZM200.855 71.2C201.495 71.2 202.015 71.7199 202.015 72.3596C202.015 72.9992 201.495 73.5156 200.855 73.5156C200.216 73.5156 199.701 72.9992 199.701 72.3596C199.701 71.7199 200.217 71.2 200.855 71.2Z" fill="#B2AEAB"/>
<path d="M231.957 35.8279H229.71V42.8044H231.957V35.8279Z" fill="#A29D98"/>
<path fill-rule="evenodd" clip-rule="evenodd" d="M94.2031 64.6025C94.4375 65.8977 94.5696 67.288 94.5661 68.7876H167.351C167.763 67.6246 168.306 66.1884 168.967 64.6025H94.2031Z" fill="#686868"/>
<path fill-rule="evenodd" clip-rule="evenodd" d="M37.234 38.1593H43.5127C44.177 38.1593 44.7145 38.7003 44.7145 39.3611V44.1771C44.7145 44.838 44.177 45.379 43.5127 45.379H37.234C36.5679 45.379 36.0322 44.838 36.0322 44.1771V39.3611C36.0322 38.7003 36.5697 38.1593 37.234 38.1593Z" fill="#7A7A7A"/>
<path fill-rule="evenodd" clip-rule="evenodd" d="M40.3705 44.0379C41.6198 44.0379 42.6419 43.0194 42.6419 41.77C42.6419 40.5171 41.6198 39.4985 40.3705 39.4985C39.1211 39.4985 38.1025 40.5171 38.1025 41.77C38.1025 43.0194 39.1228 44.0379 40.3705 44.0379Z" fill="#4F4F4F"/>
<path fill-rule="evenodd" clip-rule="evenodd" d="M28.2838 38.1593H34.5625C35.2268 38.1593 35.7643 38.7003 35.7643 39.3611V44.1771C35.7643 44.838 35.2268 45.379 34.5625 45.379H28.2838C27.623 45.379 27.082 44.838 27.082 44.1771V39.3611C27.082 38.7003 27.623 38.1593 28.2838 38.1593Z" fill="#7A7A7A"/>
</svg>
