<svg width="210" height="86" viewBox="0 0 210 86" fill="none" xmlns="http://www.w3.org/2000/svg">
<path fill-rule="evenodd" clip-rule="evenodd" d="M2.13927 69.1444C2.13927 69.1444 9.33777 71.0722 20.6316 71.9181C20.1822 70.355 19.9408 68.7021 19.9408 66.9928C19.9408 57.1686 27.9058 49.2036 37.7282 49.2036C47.5541 49.2036 55.5174 57.1686 55.5174 66.9928C55.5174 68.0571 55.4222 69.1003 55.2425 70.1136C55.5861 70.0501 55.9297 69.985 56.2751 69.918H149.859L150.946 69.8475C150.668 68.5963 150.52 67.2959 150.52 65.9584C150.52 56.1342 158.485 48.171 168.309 48.171C178.133 48.171 186.096 56.1342 186.096 65.9584C186.096 66.5064 186.07 67.0474 186.022 67.5831L206.897 66.05L208.636 47.1013C208.636 47.1013 203.803 36.4666 192.008 32.9863C180.212 29.506 160.298 25.8319 160.298 25.8319C160.298 25.8319 127.234 2.24336 94.5584 0.310252C61.8823 -1.62286 24.7568 6.10957 24.7568 6.10957L2.90759 30.6655C2.90759 30.6655 -0.185027 42.6536 3.10143 54.0619L0.297803 56.3827C0.301328 56.3827 -0.858187 64.8905 2.13927 69.1444Z" fill="#FA6E52"/>
<path fill-rule="evenodd" clip-rule="evenodd" d="M150.523 65.9584C150.523 56.1343 158.488 48.171 168.312 48.171C178.136 48.171 186.099 56.1343 186.099 65.9584C186.099 66.5065 186.073 67.0475 186.025 67.5832L206.9 66.0501L208.639 47.1014C208.639 47.1014 206.588 42.5867 201.896 38.4773C83.0386 43.7955 23.8629 39.8694 1.81812 37.5962C1.41282 42.0704 1.40049 48.1446 3.10628 54.062L0.302647 56.3828C0.302647 56.3828 -0.856866 64.8905 2.1406 69.1444C2.1406 69.1444 9.33909 71.0723 20.6329 71.9181C20.1835 70.3551 19.9421 68.7021 19.9421 66.9928C19.9421 57.1687 27.9071 49.2037 37.7295 49.2037C47.5554 49.2037 55.5187 57.1687 55.5187 66.9928C55.5187 68.0572 55.4235 69.1004 55.2438 70.1136L56.2764 69.918H149.86L150.948 69.8475C150.671 68.5964 150.523 67.2959 150.523 65.9584Z" fill="#E7563F"/>
<path fill-rule="evenodd" clip-rule="evenodd" d="M81.7031 4.27518C81.7031 4.27518 123.467 0.794891 152.858 31.1501C152.858 31.1501 115.637 31.5378 85.668 28.8293L81.7031 4.27518Z" fill="#49A9C9"/>
<path fill-rule="evenodd" clip-rule="evenodd" d="M76.2911 4.66107L79.4823 28.3465C79.4823 28.3465 70.2979 30.3765 46.8046 27.7667C46.8046 27.7667 36.3637 22.2564 37.1355 11.8155C37.1355 11.8155 46.5138 5.43467 76.2911 4.66107Z" fill="#49A9C9"/>
<path fill-rule="evenodd" clip-rule="evenodd" d="M21.9951 39.2208L22.4409 32.1175C11.0326 23.222 2.91072 30.6655 2.91072 30.6655C2.91072 30.6655 2.19351 33.4426 1.81641 37.5961C6.66768 38.0966 13.3129 38.6763 21.9951 39.2208Z" fill="#F4FDFA"/>
<path fill-rule="evenodd" clip-rule="evenodd" d="M55.4076 39.1327C59.4817 39.1327 62.8016 38.1882 62.8016 37.0304C62.8016 35.8727 59.4799 34.9282 55.4076 34.9282C51.3334 34.9282 48.0117 35.8727 48.0117 37.0304C48.0117 38.1899 51.3334 39.1327 55.4076 39.1327Z" fill="#FB9480"/>
<path fill-rule="evenodd" clip-rule="evenodd" d="M101.91 39.3936C105.983 39.3936 109.305 38.449 109.305 37.2913C109.305 36.1318 105.983 35.1873 101.91 35.1873C97.8381 35.1873 94.5146 36.1318 94.5146 37.2913C94.5146 38.449 97.8363 39.3936 101.91 39.3936Z" fill="#FB9480"/>
<path fill-rule="evenodd" clip-rule="evenodd" d="M55.4076 39.1327C59.4923 39.1327 62.8034 38.1917 62.8034 37.0304H48.0117C48.0117 38.1917 51.3228 39.1327 55.4076 39.1327Z" fill="#E7563F"/>
<path fill-rule="evenodd" clip-rule="evenodd" d="M101.91 39.3935C105.995 39.3935 109.304 38.4525 109.304 37.2913H94.5127C94.5145 38.4525 97.8256 39.3935 101.91 39.3935Z" fill="#E7563F"/>
<path fill-rule="evenodd" clip-rule="evenodd" d="M38.1707 85.3881C47.0362 85.3881 54.2664 78.158 54.2664 69.2924C54.2664 60.4269 47.0362 53.1949 38.1707 53.1949C29.3052 53.1949 22.0732 60.4269 22.0732 69.2924C22.075 78.158 29.3052 85.3881 38.1707 85.3881Z" fill="#1A1A1A"/>
<path fill-rule="evenodd" clip-rule="evenodd" d="M168.133 84.7608C176.998 84.7608 184.23 77.5288 184.23 68.6633C184.23 59.7978 176.998 52.5659 168.133 52.5659C159.267 52.5659 152.037 59.7978 152.037 68.6633C152.037 77.5306 159.267 84.7608 168.133 84.7608Z" fill="#1A1A1A"/>
<path fill-rule="evenodd" clip-rule="evenodd" d="M38.1701 78.988C43.5113 78.988 47.8656 74.6336 47.8656 69.2925C47.8656 63.9513 43.5095 59.5952 38.1701 59.5952C32.8307 59.5952 28.4746 63.9513 28.4746 69.2925C28.4746 74.6319 32.8307 78.988 38.1701 78.988Z" fill="#BBB9BC"/>
<path fill-rule="evenodd" clip-rule="evenodd" d="M168.134 78.3606C173.473 78.3606 177.829 74.0045 177.829 68.6651C177.829 63.3239 173.473 58.9678 168.134 58.9678C162.793 58.9678 158.437 63.3239 158.437 68.6651C158.437 74.0045 162.793 78.3606 168.134 78.3606Z" fill="#BBB9BC"/>
<path fill-rule="evenodd" clip-rule="evenodd" d="M42.6458 66.524C43.2996 66.524 43.8318 67.0545 43.8318 67.7082C43.8318 68.362 43.3013 68.8924 42.6458 68.8924C41.992 68.8924 41.4616 68.362 41.4616 67.7082C41.4616 67.0562 41.992 66.524 42.6458 66.524ZM38.1699 66.4465C39.6801 66.4465 40.9065 67.6712 40.9065 69.1814C40.9065 70.6933 39.6818 71.918 38.1699 71.918C36.6597 71.918 35.435 70.6933 35.435 69.1814C35.435 67.6712 36.6597 66.4465 38.1699 66.4465ZM38.1699 63.2728C38.8237 63.2728 39.3558 63.8032 39.3558 64.457C39.3558 65.1108 38.8254 65.6412 38.1699 65.6412C37.5161 65.6412 36.9857 65.1108 36.9857 64.457C36.9857 63.8032 37.5144 63.2728 38.1699 63.2728ZM33.694 66.524C34.3477 66.524 34.8781 67.0545 34.8781 67.7082C34.8781 68.362 34.3495 68.8924 33.694 68.8924C33.0402 68.8924 32.5098 68.362 32.5098 67.7082C32.5098 67.0562 33.0402 66.524 33.694 66.524ZM35.4033 71.7876C34.7495 71.7876 34.2191 72.3181 34.2191 72.9718C34.2191 73.6256 34.7477 74.156 35.4033 74.156C36.057 74.156 36.5892 73.6256 36.5892 72.9718C36.5892 72.3163 36.057 71.7876 35.4033 71.7876ZM40.9365 71.7876C40.2827 71.7876 39.7523 72.3181 39.7523 72.9718C39.7523 73.6256 40.281 74.156 40.9365 74.156C41.5903 74.156 42.1207 73.6256 42.1207 72.9718C42.1207 72.3163 41.5903 71.7876 40.9365 71.7876Z" fill="#394241"/>
<path fill-rule="evenodd" clip-rule="evenodd" d="M172.61 65.8984C173.264 65.8984 173.795 66.4288 173.795 67.0826C173.795 67.7363 173.266 68.2668 172.61 68.2668C171.955 68.2668 171.426 67.7363 171.426 67.0826C171.426 66.4288 171.955 65.8984 172.61 65.8984ZM168.133 65.8191C169.645 65.8191 170.869 67.0438 170.869 68.554C170.869 70.0659 169.645 71.2906 168.133 71.2906C166.623 71.2906 165.398 70.0659 165.398 68.554C165.398 67.0438 166.624 65.8191 168.133 65.8191ZM168.133 62.6472C168.787 62.6472 169.319 63.1776 169.319 63.8313C169.319 64.4851 168.788 65.0155 168.133 65.0155C167.479 65.0155 166.949 64.4851 166.949 63.8313C166.95 63.1776 167.481 62.6472 168.133 62.6472ZM163.659 65.8984C164.312 65.8984 164.843 66.4288 164.843 67.0826C164.843 67.7363 164.312 68.2668 163.659 68.2668C163.005 68.2668 162.473 67.7363 162.473 67.0826C162.473 66.4288 163.005 65.8984 163.659 65.8984ZM165.368 71.1602C164.714 71.1602 164.184 71.6907 164.184 72.3444C164.184 72.9982 164.714 73.5286 165.368 73.5286C166.022 73.5286 166.552 72.9982 166.552 72.3444C166.552 71.6907 166.022 71.1602 165.368 71.1602ZM170.901 71.1602C170.247 71.1602 169.715 71.6907 169.715 72.3444C169.715 72.9982 170.246 73.5286 170.901 73.5286C171.555 73.5286 172.085 72.9982 172.085 72.3444C172.084 71.6907 171.553 71.1602 170.901 71.1602Z" fill="#394241"/>
<path fill-rule="evenodd" clip-rule="evenodd" d="M23.6125 76.1649C22.6257 74.0802 22.0741 71.7506 22.0741 69.2906C22.0741 60.4005 29.2814 53.1932 38.1698 53.1932C47.0618 53.1932 54.2673 60.4005 54.2673 69.2906C54.2673 72.2529 53.4673 75.0265 52.0734 77.4108C57.5344 77.5376 63.0306 77.5852 68.2678 77.5112C83.4401 77.2944 122.418 76.5314 153.753 75.9023C152.655 73.726 152.038 71.2678 152.038 68.6651C152.038 59.7749 159.244 52.5676 168.134 52.5676C177.024 52.5676 184.231 59.7749 184.231 68.6651C184.231 71.037 183.719 73.2873 182.799 75.3138C192.233 75.1217 198.202 74.9983 198.202 74.9983L203.973 66.2667L186.027 67.5831C186.075 67.0492 186.101 66.5064 186.101 65.9584C186.101 56.1342 178.136 48.171 168.314 48.171C158.488 48.171 150.524 56.1342 150.524 65.9584C150.524 67.2941 150.674 68.5963 150.951 69.8475L149.864 69.918H56.2797L55.2471 70.1136C55.4268 69.1003 55.522 68.0571 55.522 66.9928C55.522 57.1686 47.557 49.2036 37.7328 49.2036C27.9087 49.2036 19.9454 57.1686 19.9454 66.9928C19.9454 68.7021 20.1868 70.3532 20.6362 71.918C13.6227 71.3912 8.18817 70.4501 5.07617 69.8105L7.17142 74.9966C7.16789 74.9966 13.8342 75.5658 23.6125 76.1649Z" fill="#394241"/>
<path fill-rule="evenodd" clip-rule="evenodd" d="M208.641 47.1014C208.641 47.1014 206.59 42.5867 201.897 38.4773C194.876 38.7927 188.062 39.0729 181.452 39.3249C183.852 43.0043 190.6 49.0557 208.641 47.1014Z" fill="#F7F9F8"/>
<path fill-rule="evenodd" clip-rule="evenodd" d="M198.009 53.9879L207.966 53.1491C208.866 53.0733 209.61 53.8892 209.61 54.7932V61.9458C209.61 62.8498 208.868 63.59 207.966 63.59H198.009C197.105 63.59 196.365 62.8498 196.365 61.9458V55.632C196.365 54.728 197.109 54.0636 198.009 53.9879Z" fill="#394241"/>
<path fill-rule="evenodd" clip-rule="evenodd" d="M43.8632 23.9692L61.2894 6.54306C56.6496 7.05056 52.8591 7.7149 49.807 8.40744L39.8701 18.3444C40.8534 20.6986 42.4006 22.5789 43.8632 23.9692ZM76.6785 19.5708L68.1583 28.0909C63.7564 28.1244 57.7051 27.9042 49.7383 27.0847L71.0201 5.80295C72.2395 5.74656 73.503 5.70075 74.807 5.66727L76.6785 19.5708ZM47.807 26.8768C47.7876 26.875 47.7664 26.8733 47.747 26.8698C47.747 26.8698 46.5311 26.2283 44.9981 24.9701L63.6648 6.3034C65.2701 6.15538 66.9671 6.02675 68.7628 5.92102L47.807 26.8768Z" fill="#61B6D4"/>
<path fill-rule="evenodd" clip-rule="evenodd" d="M88.5148 27.6434L108.53 7.62684C105.717 6.95193 103.032 6.44442 100.535 6.06555L85.7764 20.8255L86.853 27.4971C87.4046 27.5465 87.9579 27.594 88.5148 27.6434ZM115.24 29.1536C109.3 28.9509 103.021 28.6655 96.8287 28.2637L115.501 9.5899C119.906 11.0226 124.491 12.8922 129.069 15.3258L115.24 29.1536ZM94.8357 28.1298C93.3731 28.0275 91.9193 27.9201 90.4761 27.8038L110.228 8.04975C111.428 8.36165 112.646 8.70353 113.883 9.08063L94.8357 28.1298Z" fill="#61B6D4"/>
<path fill-rule="evenodd" clip-rule="evenodd" d="M134.853 24.9209C139.592 24.9209 143.433 26.8469 143.433 29.2223C143.433 31.5977 139.592 33.5238 134.853 33.5238C130.115 33.5238 127.773 32.9617 127.868 29.2805C127.967 25.5993 130.117 24.9209 134.853 24.9209Z" fill="#FA6E52"/>
<path fill-rule="evenodd" clip-rule="evenodd" d="M134.853 33.5238C139.551 33.5238 143.37 31.6295 143.432 29.2805H127.868C127.773 32.9617 130.117 33.5238 134.853 33.5238Z" fill="#E7563F"/>
<path fill-rule="evenodd" clip-rule="evenodd" d="M181.452 39.3267C100.787 42.4017 50.4535 41.0043 21.9961 39.2209C13.3139 38.6764 6.66872 38.0966 1.81921 37.5962C1.78396 37.9997 1.74871 38.4174 1.71875 38.8456C9.72255 40.7981 34.5552 45.4009 94.3264 46.6925C130.121 47.4661 160.709 44.6326 183.128 41.3972C182.414 40.673 181.87 39.9646 181.452 39.3267Z" fill="#D54D37"/>
<path fill-rule="evenodd" clip-rule="evenodd" d="M103.404 66.05C86.2144 66.05 69.916 65.3945 55.3041 64.2209C55.4468 65.1231 55.5191 66.05 55.5191 66.991C55.5191 68.0554 55.4239 69.0986 55.2441 70.1118L56.2768 69.9162H149.861L150.948 69.8458C150.67 68.5946 150.521 67.2941 150.521 65.9584C150.521 65.3962 150.548 64.8412 150.599 64.2931C136.221 65.4227 120.239 66.05 103.404 66.05Z" fill="#D54D37"/>
<path fill-rule="evenodd" clip-rule="evenodd" d="M191.308 38.9354C187.974 39.0729 184.689 39.2033 181.452 39.3266C181.868 39.9645 182.414 40.6729 183.126 41.3972C185.371 43.6845 189.273 46.141 195.955 47.082C194.464 43.4642 192.82 40.8315 191.308 38.9354Z" fill="#FFBB63"/>
<path fill-rule="evenodd" clip-rule="evenodd" d="M196.055 41.8871C195.174 41.8871 194.323 41.984 193.521 42.162C194.348 43.5541 195.174 45.1824 195.955 47.082C198.466 47.4344 201.37 47.5754 204.725 47.4115C204.084 44.2836 200.445 41.8871 196.055 41.8871Z" fill="#9E9FA3"/>
<path fill-rule="evenodd" clip-rule="evenodd" d="M37.8352 46.3083C29.6851 46.3083 22.6734 51.1684 19.5332 58.1467L21.6355 59.4049C24.4832 53.3765 30.6191 49.2054 37.7294 49.2054C45.483 49.2054 52.0788 54.1659 54.5142 61.0877L56.8332 59.9229C54.1494 52.0055 46.6584 46.3083 37.8352 46.3083Z" fill="#D54D37"/>
<path fill-rule="evenodd" clip-rule="evenodd" d="M168.416 45.274C160.268 45.274 153.253 50.1341 150.114 57.114L152.218 58.3722C155.066 52.3421 161.202 48.1728 168.312 48.1728C176.066 48.1728 182.66 53.1333 185.097 60.0551L187.416 58.8903C184.732 50.9711 177.239 45.274 168.416 45.274Z" fill="#D54D37"/>
<path fill-rule="evenodd" clip-rule="evenodd" d="M79.7868 4.53247L83.4046 28.8417C83.4733 29.2382 87.9087 54.1271 89.84 66.1875L88.5272 65.9954C86.617 54.0637 82.1763 29.1201 82.164 29.0478L78.4053 4.6276L79.7868 4.53247Z" fill="#D54D37"/>
<path fill-rule="evenodd" clip-rule="evenodd" d="M35.0864 13.0649L39.8636 40.1354C47.9908 41.7901 53.3038 44.4263 56.955 48.7207C60.6644 53.0821 62.6081 58.8568 63.5878 64.9804L62.2556 64.8711C61.3093 58.9572 59.5348 53.6936 55.9964 49.5314C52.4632 45.3761 47.2718 42.9972 39.2187 41.4289L38.7922 41.346L33.9551 13.8949L35.0864 13.0649Z" fill="#D54D37"/>
<path fill-rule="evenodd" clip-rule="evenodd" d="M152.858 31.1501L152.033 40.6817L151.795 40.8368C146.257 44.4369 142.267 48.8494 139.61 53.5614C136.612 58.8744 135.308 64.5733 135.384 69.9109L134.131 69.925C134.054 64.3812 135.409 58.4638 138.519 52.9464C141.234 48.1322 144.949 44.021 150.542 40.3328L151.441 31.1589L152.858 31.1501Z" fill="#D54D37"/>
<path fill-rule="evenodd" clip-rule="evenodd" d="M22.0742 69.2907C22.0742 71.7489 22.6258 74.0803 23.6126 76.1649C26.1907 81.6171 31.7398 85.3881 38.1717 85.3881C42.6177 85.3881 46.6407 83.5872 49.5536 80.6743L45.0283 76.1491C43.2732 77.9042 40.8485 78.9897 38.1717 78.9897C32.8182 78.9897 28.4762 74.6477 28.4762 69.2942C28.4762 66.6174 29.5617 64.1927 31.3151 62.4375L26.7898 57.9123C23.8752 60.8216 22.0742 64.8465 22.0742 69.2907Z" fill="black"/>
<path fill-rule="evenodd" clip-rule="evenodd" d="M152.037 68.665C152.037 71.2677 152.654 73.726 153.752 75.9022C156.402 81.1571 161.847 84.7625 168.133 84.7625C172.579 84.7625 176.602 82.9598 179.516 80.0486L174.991 75.5234C173.236 77.2785 170.811 78.364 168.135 78.364C162.781 78.364 158.439 74.022 158.439 68.6685C158.439 65.99 159.525 63.567 161.28 61.8119L156.754 57.2866C153.838 60.1942 152.037 64.219 152.037 68.665Z" fill="black"/>
<path fill-rule="evenodd" clip-rule="evenodd" d="M123.528 24.3764C122.647 24.831 121.921 25.4248 121.331 26.1315L117.671 25.3597L118.982 20.8714C119.114 20.4185 118.852 19.941 118.399 19.8088L117.867 19.6537C117.414 19.5216 116.936 19.7841 116.804 20.2353L113.796 30.5404C114.58 30.5704 115.361 30.5986 116.134 30.625L117.213 26.928L120.369 27.5923C119.884 28.5333 119.551 29.5924 119.345 30.729C122.357 30.8224 125.275 30.8964 128.048 30.9546C127.913 30.4841 127.853 29.9308 127.87 29.2787C127.967 25.5976 130.117 24.9174 134.856 24.9174C139.594 24.9174 143.436 26.8434 143.436 29.2206C143.436 29.24 143.436 29.2594 143.434 29.2787C143.416 29.9519 143.09 30.5863 142.525 31.1519C146.645 31.1766 149.757 31.1678 151.441 31.159C152.365 31.1537 152.86 31.1484 152.86 31.1484C149.771 27.9571 146.546 25.1412 143.245 22.6547C137.592 21.8001 129.398 21.3454 123.528 24.3764Z" fill="#375561"/>
<path fill-rule="evenodd" clip-rule="evenodd" d="M93.4703 21.9093L94.1329 29.5043C96.9171 29.6999 99.7261 29.8708 102.528 30.0241L101.756 21.1868C101.687 20.4027 100.988 19.8159 100.204 19.8846L98.4044 20.0414L98.1753 17.4052L98.8221 17.3224C99.5252 17.2325 100.086 16.6298 99.9922 15.9303L99.2608 10.538C99.1657 9.83842 98.5718 9.30801 97.8687 9.36969L95.2519 9.59878C94.5488 9.66045 94.0642 10.2843 94.0818 10.9909L94.2281 16.4184C94.2475 17.125 94.9135 17.6061 95.6202 17.5867L96.3392 17.5673L96.57 20.2035L94.7708 20.3604C93.9884 20.4273 93.4016 21.1252 93.4703 21.9093Z" fill="#375561"/>
</svg>
