<svg width="141" height="51" viewBox="0 0 141 51" fill="none" xmlns="http://www.w3.org/2000/svg">
<path fill-rule="evenodd" clip-rule="evenodd" d="M10.5477 16.1779H26.7917C30.0537 11.1849 37.9257 0.272896 44.4177 0.129896C52.8377 -0.051104 87.2537 0.00988558 87.2537 0.00988558C87.2537 0.00988558 96.4947 0.871901 104.513 16.1779H138.324V25.4139C136.757 26.4719 135.722 28.2659 135.722 30.2889V40.2839C134.978 40.7069 134.117 40.9489 133.204 40.9489H129.514C129.494 38.9399 129.478 36.5299 129.478 33.9349C129.478 26.9219 121.85 26.4299 114.284 28.0149C108.425 29.2459 104.686 37.3549 103.3 40.9489H54.8527L53.9857 40.8929C52.9537 39.0759 51.4757 36.5809 50.2137 34.8659C48.0167 31.8769 34.0457 32.5469 29.8357 34.1959C26.8997 35.3449 25.9517 37.7079 25.6457 39.0359L10.5477 38.0449C7.74173 37.8609 5.42773 35.7409 5.42773 32.9249V21.2959C5.42773 18.4819 7.73173 16.1779 10.5477 16.1779Z" fill="#77B72C"/>
<path fill-rule="evenodd" clip-rule="evenodd" d="M43.4417 6.53899C43.4417 6.53899 47.6947 2.99899 50.3197 2.99899V16.177H40.6357C40.6357 16.177 34.0457 15.508 43.4417 6.53899ZM52.9457 2.99899H70.7777V16.177H52.9457V2.99899ZM73.4027 2.99899L84.6287 2.93799C84.6287 2.93799 91.2297 4.55697 94.8177 10.869C97.4737 15.538 93.4847 16.178 91.6447 16.178H73.4027V2.99899Z" fill="#1A5575"/>
<path fill-rule="evenodd" clip-rule="evenodd" d="M10.5479 16.178C8.51388 16.178 6.74588 17.378 5.92188 19.109H138.323V16.178H104.512C94.1339 16.178 83.7869 16.178 73.4019 16.178H70.7769H52.9449H50.3199H40.6359H26.7919H10.5479Z" fill="#A2EA73"/>
<path fill-rule="evenodd" clip-rule="evenodd" d="M29.8365 34.1961C26.9005 35.3451 25.9525 37.7081 25.6465 39.0361L53.9855 40.8941C52.9535 39.0771 51.4755 36.5821 50.2135 34.8671C48.0175 31.8771 34.0465 32.5471 29.8365 34.1961Z" fill="#10110C"/>
<path fill-rule="evenodd" clip-rule="evenodd" d="M40.3836 50.3361C45.7276 50.3361 50.0856 45.9781 50.0856 40.6341C50.0856 35.2901 45.7276 30.9321 40.3836 30.9321C35.0396 30.9321 30.6836 35.2901 30.6836 40.6341C30.6836 45.9781 35.0396 50.3361 40.3836 50.3361Z" fill="#2D2A33"/>
<path fill-rule="evenodd" clip-rule="evenodd" d="M40.3838 47.1318C43.9648 47.1318 46.8848 44.2108 46.8848 40.6328C46.8848 37.0518 43.9638 34.1318 40.3838 34.1318C36.8038 34.1318 33.8848 37.0528 33.8848 40.6328C33.8848 44.2118 36.8038 47.1318 40.3838 47.1318Z" fill="#605C5D"/>
<path fill-rule="evenodd" clip-rule="evenodd" d="M40.3844 45.1569C42.8774 45.1569 44.9084 43.1259 44.9084 40.6329C44.9084 38.1399 42.8774 36.1089 40.3844 36.1089C37.8944 36.1089 35.8604 38.1399 35.8604 40.6329C35.8604 43.1259 37.8944 45.1569 40.3844 45.1569Z" fill="#E3E2DD"/>
<path fill-rule="evenodd" clip-rule="evenodd" d="M30.3843 30.032C24.4613 30.784 23.0853 36.018 22.7773 38.847L25.6473 39.036C25.9533 37.708 26.9013 35.346 29.8373 34.196C34.0473 32.547 48.0183 31.877 50.2153 34.866C51.4773 36.581 52.9553 39.076 53.9873 40.893L54.8543 40.949H56.1743C56.1843 34.922 52.6163 31.743 50.7053 30.762C48.5683 29.665 38.5593 28.994 30.3843 30.032Z" fill="#A2EA73"/>
<path fill-rule="evenodd" clip-rule="evenodd" d="M22.7773 38.8471L25.6473 39.0361C25.9533 37.7081 26.9013 35.3461 29.8373 34.1961C33.5203 32.7531 44.6723 32.0601 48.8803 33.9111C48.2073 33.3151 47.1163 32.8711 45.7713 32.5631C43.0163 31.9311 39.1913 31.8541 35.7043 32.1351C32.5693 32.3901 29.7073 32.9331 28.1423 33.6241C25.3233 34.8671 24.2683 37.3301 23.8763 38.9201L22.7773 38.8471Z" fill="#8ACC5E"/>
<path fill-rule="evenodd" clip-rule="evenodd" d="M109.036 27.1637C104.13 29.8017 100.944 37.4187 99.6934 40.9487H103.299C104.686 37.3547 108.424 29.2457 114.283 28.0147C121.85 26.4297 129.477 26.9217 129.477 33.9347C129.477 36.5287 129.492 38.9397 129.513 40.9487H132.836C133.004 39.5927 133.121 38.0707 133.137 36.4377C133.198 30.1527 131.978 27.6507 128.621 25.6367C125.268 23.6247 115.504 23.6857 109.036 27.1637Z" fill="#A2EA73"/>
<path fill-rule="evenodd" clip-rule="evenodd" d="M132.006 40.9497H136.048C137.419 40.9497 138.538 39.8307 138.538 38.4597V35.0857C138.538 33.7147 137.419 32.5957 136.048 32.5957H132.006C130.635 32.5957 129.514 33.7147 129.514 35.0857V38.4597C129.514 39.8307 130.635 40.9497 132.006 40.9497Z" fill="#E2DDD9"/>
<path fill-rule="evenodd" clip-rule="evenodd" d="M5.85938 34.9448C6.65438 36.7058 8.46637 37.9068 10.5484 38.0438L22.7764 38.8468C22.8934 37.7688 23.1664 36.3418 23.7884 34.9448H5.85938ZM54.7504 34.9448C55.5834 36.5018 56.1774 38.4868 56.1724 40.9488H99.6934C100.223 39.4528 101.102 37.2198 102.313 34.9448H54.7504Z" fill="#5BB229"/>
<path fill-rule="evenodd" clip-rule="evenodd" d="M50.3213 19.1079V29.1109L70.7783 24.6359V19.1079H50.3213ZM73.4033 19.1079V29.1109L95.7203 24.6359V19.1079H73.4033Z" fill="#48A024"/>
<path fill-rule="evenodd" clip-rule="evenodd" d="M55.1706 22.3451C57.0696 22.3451 58.6186 21.7411 58.6186 21.0021C58.6186 20.2631 57.0696 19.6611 55.1706 19.6611C53.2716 19.6611 51.7246 20.2631 51.7246 21.0021C51.7246 21.7411 53.2716 22.3451 55.1706 22.3451Z" fill="#4B8E20"/>
<path fill-rule="evenodd" clip-rule="evenodd" d="M78.778 22.4748C80.679 22.4748 82.226 21.8708 82.226 21.1318C82.226 20.3928 80.679 19.7888 78.778 19.7888C76.879 19.7888 75.332 20.3928 75.332 21.1318C75.332 21.8708 76.879 22.4748 78.778 22.4748Z" fill="#4B8E20"/>
<path fill-rule="evenodd" clip-rule="evenodd" d="M51.2249 20.408H56.5999C56.9059 20.408 57.1559 20.658 57.1559 20.964V21.045C57.1559 21.348 56.9059 21.598 56.5999 21.598H51.2249C50.9219 21.598 50.6719 21.348 50.6719 21.045V20.964C50.6719 20.658 50.9219 20.408 51.2249 20.408Z" fill="#E3BFBF"/>
<path fill-rule="evenodd" clip-rule="evenodd" d="M74.8324 20.5381H80.2104C80.5134 20.5381 80.7634 20.7851 80.7634 21.0911V21.1751C80.7634 21.4781 80.5134 21.7281 80.2104 21.7281H74.8324C74.5264 21.7281 74.2764 21.4781 74.2764 21.1751V21.0911C74.2774 20.7851 74.5274 20.5381 74.8324 20.5381Z" fill="#E3BFBF"/>
<path fill-rule="evenodd" clip-rule="evenodd" d="M129.514 38.4597C129.514 39.8307 130.635 40.9497 132.006 40.9497H132.837H136.048C137.417 40.9497 138.538 39.8307 138.538 38.4597V38.2637C138.084 38.7347 137.45 39.0277 136.746 39.0277H135.721H133.027H131.304C130.603 39.0277 129.966 38.7347 129.512 38.2637V38.4597H129.514Z" fill="#B2AEAB"/>
<path fill-rule="evenodd" clip-rule="evenodd" d="M2.49001 37.692H6.532C7.903 37.692 9.022 36.571 9.022 35.202V31.825C9.022 30.457 7.903 29.335 6.532 29.335H2.49001C1.11901 29.335 0 30.456 0 31.825V35.202C0 36.571 1.11901 37.692 2.49001 37.692Z" fill="#E2DDD9"/>
<path fill-rule="evenodd" clip-rule="evenodd" d="M0 35.1999C0 36.5709 1.11901 37.6928 2.49001 37.6928H3.321H6.532C7.903 37.6928 9.022 36.5719 9.022 35.1999V35.0059C8.571 35.4749 7.934 35.7679 7.233 35.7679H6.20601H3.51201H1.789C1.088 35.7679 0.453 35.4749 0 35.0059V35.1999Z" fill="#B2AEAB"/>
<path fill-rule="evenodd" clip-rule="evenodd" d="M83.6022 2.94302L75.9612 16.177H81.2473L88.0673 4.36201C86.1173 3.30201 84.6292 2.93701 84.6292 2.93701L83.6022 2.94302ZM44.4413 5.76701L38.9062 15.355C39.5153 16.012 40.4682 16.155 40.6162 16.175L47.8203 3.69502C46.5463 4.29202 45.2803 5.15001 44.4413 5.76701ZM49.9693 3.01701C50.0893 3.00701 50.2062 2.99902 50.3212 2.99902V11.562L47.6562 16.178H42.3732L49.9693 3.01701ZM59.3712 2.99902L52.9462 14.128V16.177H53.9482L61.5553 2.99902H59.3712ZM63.3132 2.99902H68.5963L60.9892 16.177H55.7032L63.3132 2.99902ZM79.6493 2.96602L81.8383 2.95302L74.2053 16.177H73.4023V13.784L79.6493 2.96602Z" fill="#2F6580"/>
<path fill-rule="evenodd" clip-rule="evenodd" d="M114.284 28.0158C108.425 29.2468 104.686 37.3559 103.3 40.9499H129.514C129.494 38.9409 129.478 36.5308 129.478 33.9358C129.478 26.9228 121.85 26.4308 114.284 28.0158Z" fill="#10110C"/>
<path fill-rule="evenodd" clip-rule="evenodd" d="M117.956 50.3359C123.3 50.3359 127.658 45.9779 127.658 40.6339C127.658 35.2899 123.3 30.9319 117.956 30.9319C112.612 30.9319 108.254 35.2899 108.254 40.6339C108.254 45.9779 112.612 50.3359 117.956 50.3359Z" fill="#2D2A33"/>
<path fill-rule="evenodd" clip-rule="evenodd" d="M117.956 47.1318C121.537 47.1318 124.457 44.2108 124.457 40.6328C124.457 37.0518 121.536 34.1318 117.956 34.1318C114.376 34.1318 111.455 37.0528 111.455 40.6328C111.455 44.2118 114.376 47.1318 117.956 47.1318Z" fill="#605C5D"/>
<path fill-rule="evenodd" clip-rule="evenodd" d="M117.956 45.1569C120.449 45.1569 122.48 43.1259 122.48 40.6329C122.48 38.1399 120.449 36.1089 117.956 36.1089C115.466 36.1089 113.432 38.1399 113.432 40.6329C113.432 43.1259 115.466 45.1569 117.956 45.1569Z" fill="#E3E2DD"/>
<path fill-rule="evenodd" clip-rule="evenodd" d="M2.74023 22.2278V29.3358H5.42923V21.2949C5.42923 21.0499 5.44723 20.8058 5.48323 20.5688H4.40024C3.48424 20.5688 2.74023 21.3148 2.74023 22.2278Z" fill="#5BB229"/>
<path d="M138.324 16.1777H136.981V25.4137H138.324V16.1777Z" fill="#B2B2B2"/>
<path fill-rule="evenodd" clip-rule="evenodd" d="M138.324 16.178V19.109V25.414C139.588 25.414 140.61 23.347 140.61 20.796C140.61 18.245 139.588 16.178 138.324 16.178Z" fill="#F8CB65"/>
<path fill-rule="evenodd" clip-rule="evenodd" d="M44.4182 0.129982C42.5912 0.170982 40.6542 1.06497 38.7422 2.43897C39.5192 2.21197 40.2892 2.08198 41.0432 2.06998C50.4982 1.88598 89.1412 1.94798 89.1412 1.94798C89.1412 1.94798 91.7642 2.16498 95.5122 4.32298C90.8532 0.344976 87.2522 0.0109791 87.2522 0.0109791C87.2522 0.0109791 52.8392 -0.0510176 44.4182 0.129982Z" fill="#A2EA73"/>
<path fill-rule="evenodd" clip-rule="evenodd" d="M112.688 27.773C106.941 29.022 103.236 37.124 101.785 40.9489H103.299C104.686 37.3549 108.424 29.246 114.283 28.015C117.193 27.406 120.111 27.103 122.604 27.36C119.819 26.703 116.246 27.001 112.688 27.773Z" fill="#8ACC5E"/>
<path fill-rule="evenodd" clip-rule="evenodd" d="M2.40877 29.3358H3.06578C3.44778 29.3358 3.75877 29.0248 3.75877 28.6448V26.1398C3.75877 25.7578 3.44778 25.4468 3.06578 25.4468H2.40877C2.02877 25.4468 1.71777 25.7578 1.71777 26.1398V28.6448C1.71777 29.0248 2.02877 29.3358 2.40877 29.3358Z" fill="#901016"/>
<path fill-rule="evenodd" clip-rule="evenodd" d="M40.3839 42.015C41.1459 42.015 41.7679 41.3929 41.7679 40.6339C41.7679 39.8719 41.1459 39.2529 40.3839 39.2529C39.6249 39.2529 39.0029 39.8719 39.0029 40.6339C39.0029 41.3929 39.6249 42.015 40.3839 42.015Z" fill="#2D2A33"/>
<path fill-rule="evenodd" clip-rule="evenodd" d="M117.956 41.9529C118.718 41.9529 119.34 41.3339 119.34 40.5719C119.34 39.8129 118.718 39.1909 117.956 39.1909C117.194 39.1909 116.575 39.8129 116.575 40.5719C116.575 41.3339 117.194 41.9529 117.956 41.9529Z" fill="#2D2A33"/>
<path fill-rule="evenodd" clip-rule="evenodd" d="M43.2542 39.0788C43.6362 39.0788 43.9452 39.3898 43.9452 39.7718C43.9452 40.1538 43.6362 40.4648 43.2542 40.4648C42.8692 40.4648 42.5612 40.1538 42.5612 39.7718C42.5602 39.3898 42.8692 39.0788 43.2542 39.0788ZM40.3842 36.9968C40.7662 36.9968 41.0772 37.3048 41.0772 37.6878C41.0772 38.0728 40.7662 38.3808 40.3842 38.3808C40.0022 38.3808 39.6932 38.0718 39.6932 37.6878C39.6932 37.3048 40.0022 36.9968 40.3842 36.9968ZM37.5172 39.0788C37.8992 39.0788 38.2102 39.3898 38.2102 39.7718C38.2102 40.1538 37.8992 40.4648 37.5172 40.4648C37.1352 40.4648 36.8242 40.1538 36.8242 39.7718C36.8242 39.3898 37.1352 39.0788 37.5172 39.0788ZM38.6132 42.4528C38.9952 42.4528 39.3062 42.7618 39.3062 43.1438C39.3062 43.5258 38.9952 43.8368 38.6132 43.8368C38.2312 43.8368 37.9202 43.5258 37.9202 43.1438C37.9202 42.7618 38.2302 42.4528 38.6132 42.4528ZM42.1582 42.4528C42.5402 42.4528 42.8492 42.7618 42.8492 43.1438C42.8492 43.5258 42.5412 43.8368 42.1582 43.8368C41.7762 43.8368 41.4652 43.5258 41.4652 43.1438C41.4652 42.7618 41.7752 42.4528 42.1582 42.4528Z" fill="#B2AEAB"/>
<path fill-rule="evenodd" clip-rule="evenodd" d="M120.823 39.02C121.205 39.02 121.516 39.331 121.516 39.713C121.516 40.095 121.205 40.404 120.823 40.404C120.441 40.404 120.132 40.096 120.132 39.713C120.133 39.331 120.441 39.02 120.823 39.02ZM117.956 36.936C118.338 36.936 118.65 37.247 118.65 37.629C118.65 38.011 118.338 38.322 117.956 38.322C117.574 38.322 117.263 38.011 117.263 37.629C117.263 37.247 117.574 36.936 117.956 36.936ZM115.089 39.02C115.471 39.02 115.783 39.331 115.783 39.713C115.783 40.095 115.471 40.404 115.089 40.404C114.707 40.404 114.396 40.096 114.396 39.713C114.396 39.331 114.707 39.02 115.089 39.02ZM116.185 42.392C116.567 42.392 116.876 42.703 116.876 43.085C116.876 43.467 116.567 43.776 116.185 43.776C115.803 43.776 115.492 43.468 115.492 43.085C115.492 42.703 115.803 42.392 116.185 42.392ZM119.727 42.392C120.109 42.392 120.421 42.703 120.421 43.085C120.421 43.467 120.109 43.776 119.727 43.776C119.345 43.776 119.036 43.468 119.036 43.085C119.037 42.703 119.345 42.392 119.727 42.392Z" fill="#B2AEAB"/>
<path d="M138.324 21.2417H136.981V25.4137H138.324V21.2417Z" fill="#A29D98"/>
<path fill-rule="evenodd" clip-rule="evenodd" d="M55.9561 38.4468C56.0961 39.2218 56.175 40.0518 56.173 40.9498H99.694C99.941 40.2538 100.265 39.3948 100.66 38.4468H55.9561Z" fill="#4B8E20"/>
<path fill-rule="evenodd" clip-rule="evenodd" d="M21.8918 22.636H25.6458C26.0428 22.636 26.3649 22.96 26.3649 23.355V26.235C26.3649 26.63 26.0438 26.954 25.6458 26.954H21.8918C21.4938 26.954 21.1729 26.63 21.1729 26.235V23.355C21.1729 22.959 21.4938 22.636 21.8918 22.636Z" fill="#5BB229"/>
<path fill-rule="evenodd" clip-rule="evenodd" d="M23.7681 26.1498C24.5151 26.1498 25.1261 25.5408 25.1261 24.7938C25.1261 24.0448 24.5141 23.4358 23.7681 23.4358C23.0211 23.4358 22.4121 24.0448 22.4121 24.7938C22.4121 25.5408 23.0211 26.1498 23.7681 26.1498Z" fill="#4B8E20"/>
<path fill-rule="evenodd" clip-rule="evenodd" d="M16.5403 22.6357H20.2943C20.6923 22.6357 21.0133 22.9598 21.0133 23.3548V26.2348C21.0133 26.6298 20.6923 26.9538 20.2943 26.9538H16.5403C16.1453 26.9538 15.8213 26.6298 15.8213 26.2348V23.3548C15.8213 22.9588 16.1453 22.6357 16.5403 22.6357Z" fill="#5BB229"/>
</svg>
