<svg width="119" height="49" viewBox="0 0 119 49" fill="none" xmlns="http://www.w3.org/2000/svg">
<path fill-rule="evenodd" clip-rule="evenodd" d="M1.16813 39.2383C1.16813 39.2383 5.25315 40.3313 11.6621 40.8123C11.4071 39.9243 11.2691 38.9873 11.2691 38.0183C11.2691 32.4423 15.7891 27.9233 21.3641 27.9233C26.9391 27.9233 31.4581 32.4433 31.4581 38.0183C31.4581 38.6223 31.4051 39.2143 31.3031 39.7893C31.4981 39.7533 31.6931 39.7163 31.8891 39.6783H84.9961L85.6131 39.6383C85.4551 38.9283 85.3711 38.1893 85.3711 37.4313C85.3711 31.8563 89.8912 27.3363 95.4652 27.3363C101.041 27.3363 105.559 31.8563 105.559 37.4313C105.559 37.7423 105.545 38.0493 105.517 38.3523L117.364 37.4833L118.351 26.7303C118.351 26.7303 115.608 20.6953 108.915 18.7203C102.221 16.7453 90.9201 14.6603 90.9201 14.6603C90.9201 14.6603 72.1571 1.27429 53.6141 0.176291C35.0701 -0.921709 14.0042 3.46828 14.0042 3.46828L1.60514 17.4033C1.60514 17.4033 -0.150852 24.2063 1.71415 30.6803L0.123145 31.9963C0.126145 31.9963 -0.532872 36.8243 1.16813 39.2383Z" fill="#307BBD"/>
<path fill-rule="evenodd" clip-rule="evenodd" d="M85.3735 37.4312C85.3735 31.8562 89.8935 27.3362 95.4675 27.3362C101.044 27.3362 105.562 31.8562 105.562 37.4312C105.562 37.7422 105.548 38.0492 105.52 38.3522L117.367 37.4832L118.354 26.7302C118.354 26.7302 117.19 24.1682 114.527 21.8372C47.0775 24.8542 13.4965 22.6272 0.98654 21.3362C0.75554 23.8762 0.748521 27.3222 1.71652 30.6802L0.125517 31.9962C0.125517 31.9962 -0.533484 36.8242 1.16852 39.2382C1.16852 39.2382 5.25353 40.3312 11.6625 40.8122C11.4075 39.9242 11.2695 38.9872 11.2695 38.0182C11.2695 32.4422 15.7895 27.9232 21.3645 27.9232C26.9395 27.9232 31.4585 32.4432 31.4585 38.0182C31.4585 38.6222 31.4055 39.2142 31.3035 39.7892L31.8895 39.6782H84.9965L85.6135 39.6382C85.4575 38.9272 85.3735 38.1892 85.3735 37.4312Z" fill="#28679D"/>
<path fill-rule="evenodd" clip-rule="evenodd" d="M46.3193 2.42638C46.3193 2.42638 70.0204 0.451378 86.6984 17.6784C86.6984 17.6784 65.5763 17.8984 48.5693 16.3614L46.3193 2.42638Z" fill="#49A9C9"/>
<path fill-rule="evenodd" clip-rule="evenodd" d="M43.247 2.64526L45.057 16.0863C45.057 16.0863 39.845 17.2383 26.514 15.7573C26.514 15.7573 20.589 12.6303 21.027 6.70526C21.027 6.70526 26.35 3.08426 43.247 2.64526Z" fill="#49A9C9"/>
<path fill-rule="evenodd" clip-rule="evenodd" d="M12.4363 22.2573L12.6884 18.2263C6.21535 13.1783 1.60635 17.4033 1.60635 17.4033C1.60635 17.4033 1.19935 18.9793 0.985352 21.3353C3.73835 21.6193 7.50934 21.9493 12.4363 22.2573Z" fill="#F4FDFA"/>
<path fill-rule="evenodd" clip-rule="evenodd" d="M31.3972 22.2073C33.7082 22.2073 35.5942 21.6713 35.5942 21.0143C35.5942 20.3573 33.7082 19.8213 31.3972 19.8213C29.0862 19.8213 27.2002 20.3573 27.2002 21.0143C27.2002 21.6713 29.0852 22.2073 31.3972 22.2073Z" fill="#3786CB"/>
<path fill-rule="evenodd" clip-rule="evenodd" d="M57.7868 22.3553C60.0978 22.3553 61.9828 21.8193 61.9828 21.1613C61.9828 20.5033 60.0978 19.9683 57.7868 19.9683C55.4748 19.9683 53.5898 20.5043 53.5898 21.1613C53.5898 21.8183 55.4748 22.3553 57.7868 22.3553Z" fill="#3786CB"/>
<path fill-rule="evenodd" clip-rule="evenodd" d="M31.3972 22.2072C33.7152 22.2072 35.5942 21.6732 35.5942 21.0142H27.2002C27.2002 21.6732 29.0792 22.2072 31.3972 22.2072Z" fill="#28679D"/>
<path fill-rule="evenodd" clip-rule="evenodd" d="M57.7869 22.3554C60.1039 22.3554 61.9829 21.8204 61.9829 21.1614H53.5889C53.5899 21.8214 55.4689 22.3554 57.7869 22.3554Z" fill="#28679D"/>
<path fill-rule="evenodd" clip-rule="evenodd" d="M21.6154 48.4563C26.6464 48.4563 30.7504 44.3523 30.7504 39.3213C30.7504 34.2903 26.6464 30.1873 21.6154 30.1873C16.5844 30.1873 12.4814 34.2913 12.4814 39.3213C12.4814 44.3533 16.5844 48.4563 21.6154 48.4563Z" fill="#1A1A1A"/>
<path fill-rule="evenodd" clip-rule="evenodd" d="M95.3674 48.1003C100.398 48.1003 104.502 43.9973 104.502 38.9653C104.502 33.9343 100.398 29.8313 95.3674 29.8313C90.3364 29.8313 86.2334 33.9353 86.2334 38.9653C86.2334 43.9973 90.3354 48.1003 95.3674 48.1003Z" fill="#1A1A1A"/>
<path fill-rule="evenodd" clip-rule="evenodd" d="M21.6153 44.8243C24.6463 44.8243 27.1183 42.3523 27.1183 39.3213C27.1183 36.2913 24.6463 33.8193 21.6153 33.8193C18.5853 33.8193 16.1133 36.2913 16.1133 39.3213C16.1133 42.3523 18.5853 44.8243 21.6153 44.8243Z" fill="#BBB9BC"/>
<path fill-rule="evenodd" clip-rule="evenodd" d="M95.3672 44.4684C98.3982 44.4684 100.869 41.9964 100.869 38.9654C100.869 35.9354 98.3982 33.4634 95.3672 33.4634C92.3372 33.4634 89.8652 35.9354 89.8652 38.9654C89.8642 41.9974 92.3372 44.4684 95.3672 44.4684Z" fill="#BBB9BC"/>
<path fill-rule="evenodd" clip-rule="evenodd" d="M24.1553 37.7522C24.5263 37.7522 24.8273 38.0532 24.8273 38.4242C24.8273 38.7952 24.5263 39.0963 24.1553 39.0963C23.7843 39.0963 23.4823 38.7952 23.4823 38.4242C23.4823 38.0532 23.7843 37.7522 24.1553 37.7522ZM21.6153 37.7072C22.4733 37.7072 23.1683 38.4022 23.1683 39.2592C23.1683 40.1162 22.4733 40.8122 21.6153 40.8122C20.7573 40.8122 20.0633 40.1172 20.0633 39.2592C20.0633 38.4022 20.7583 37.7072 21.6153 37.7072ZM21.6153 35.9062C21.9863 35.9062 22.2873 36.2072 22.2873 36.5782C22.2873 36.9492 21.9863 37.2502 21.6153 37.2502C21.2443 37.2502 20.9433 36.9492 20.9433 36.5782C20.9433 36.2072 21.2443 35.9062 21.6153 35.9062ZM19.0763 37.7522C19.4473 37.7522 19.7483 38.0532 19.7483 38.4242C19.7483 38.7952 19.4473 39.0963 19.0763 39.0963C18.7053 39.0963 18.4043 38.7952 18.4043 38.4242C18.4043 38.0532 18.7043 37.7522 19.0763 37.7522ZM20.0453 40.7372C19.6743 40.7372 19.3733 41.0382 19.3733 41.4092C19.3733 41.7802 19.6743 42.0813 20.0453 42.0813C20.4163 42.0813 20.7183 41.7802 20.7183 41.4092C20.7183 41.0382 20.4163 40.7372 20.0453 40.7372ZM23.1853 40.7372C22.8143 40.7372 22.5123 41.0382 22.5123 41.4092C22.5123 41.7802 22.8133 42.0813 23.1853 42.0813C23.5563 42.0813 23.8573 41.7802 23.8573 41.4092C23.8573 41.0382 23.5563 40.7372 23.1853 40.7372Z" fill="#394241"/>
<path fill-rule="evenodd" clip-rule="evenodd" d="M97.9073 37.3963C98.2783 37.3963 98.5793 37.6973 98.5793 38.0683C98.5793 38.4393 98.2793 38.7403 97.9073 38.7403C97.5363 38.7403 97.2353 38.4393 97.2353 38.0683C97.2353 37.6973 97.5363 37.3963 97.9073 37.3963ZM95.3673 37.3513C96.2253 37.3513 96.9203 38.0463 96.9203 38.9033C96.9203 39.7613 96.2253 40.4563 95.3673 40.4563C94.5103 40.4563 93.8143 39.7613 93.8143 38.9033C93.8143 38.0463 94.5093 37.3513 95.3673 37.3513ZM95.3673 35.5513C95.7383 35.5513 96.0403 35.8523 96.0403 36.2233C96.0403 36.5943 95.7393 36.8953 95.3673 36.8953C94.9963 36.8953 94.6953 36.5943 94.6953 36.2233C94.6953 35.8513 94.9963 35.5513 95.3673 35.5513ZM92.8273 37.3963C93.1983 37.3963 93.5003 37.6973 93.5003 38.0683C93.5003 38.4393 93.1993 38.7403 92.8273 38.7403C92.4563 38.7403 92.1553 38.4393 92.1553 38.0683C92.1553 37.6973 92.4563 37.3963 92.8273 37.3963ZM93.7983 40.3823C93.4273 40.3823 93.1253 40.6833 93.1253 41.0543C93.1253 41.4253 93.4263 41.7263 93.7983 41.7263C94.1683 41.7263 94.4703 41.4253 94.4703 41.0543C94.4693 40.6833 94.1683 40.3823 93.7983 40.3823ZM96.9363 40.3823C96.5653 40.3823 96.2643 40.6833 96.2643 41.0543C96.2643 41.4253 96.5653 41.7263 96.9363 41.7263C97.3083 41.7263 97.6093 41.4253 97.6093 41.0543C97.6093 40.6833 97.3083 40.3823 96.9363 40.3823Z" fill="#394241"/>
<path fill-rule="evenodd" clip-rule="evenodd" d="M13.354 43.2222C12.795 42.0392 12.481 40.7172 12.481 39.3212C12.481 34.2772 16.571 30.1872 21.616 30.1872C26.661 30.1872 30.751 34.2772 30.751 39.3212C30.751 41.0022 30.297 42.5772 29.505 43.9292C32.604 44.0002 35.723 44.0282 38.695 43.9852C47.305 43.8622 69.424 43.4292 87.206 43.0722C86.583 41.8372 86.232 40.4422 86.232 38.9652C86.232 33.9202 90.322 29.8312 95.367 29.8312C100.412 29.8312 104.502 33.9212 104.502 38.9652C104.502 40.3112 104.211 41.5882 103.688 42.7382C109.043 42.6292 112.43 42.5592 112.43 42.5592L115.705 37.6042L105.52 38.3522C105.548 38.0492 105.562 37.7412 105.562 37.4312C105.562 31.8562 101.043 27.3362 95.468 27.3362C89.893 27.3362 85.374 31.8562 85.374 37.4312C85.374 38.1892 85.459 38.9272 85.616 39.6382L84.999 39.6782H31.892L31.306 39.7892C31.408 39.2142 31.461 38.6222 31.461 38.0182C31.461 32.4422 26.941 27.9232 21.367 27.9232C15.792 27.9232 11.272 32.4432 11.272 38.0182C11.272 38.9872 11.409 39.9242 11.665 40.8122C7.68498 40.5142 4.60098 39.9792 2.83398 39.6172L4.02399 42.5602C4.02399 42.5602 7.805 42.8822 13.354 43.2222Z" fill="#394241"/>
<path fill-rule="evenodd" clip-rule="evenodd" d="M118.355 26.7292C118.355 26.7292 117.19 24.1672 114.528 21.8362C110.544 22.0142 106.677 22.1742 102.926 22.3172C104.287 24.4052 108.116 27.8382 118.355 26.7292Z" fill="#F7F9F8"/>
<path fill-rule="evenodd" clip-rule="evenodd" d="M112.32 30.6372L117.97 30.1612C118.481 30.1182 118.903 30.5812 118.903 31.0942V35.1532C118.903 35.6662 118.483 36.0862 117.97 36.0862H112.32C111.808 36.0862 111.388 35.6662 111.388 35.1532V31.5702C111.388 31.0572 111.809 30.6802 112.32 30.6372Z" fill="#394241"/>
<path fill-rule="evenodd" clip-rule="evenodd" d="M24.8461 13.6013L34.7351 3.71234C32.1021 4.00034 29.9511 4.37634 28.2181 4.77034L22.5791 10.4093C23.1391 11.7463 24.0161 12.8133 24.8461 13.6013ZM43.4681 11.1053L38.6331 15.9403C36.1341 15.9593 32.7011 15.8343 28.1801 15.3693L40.2571 3.29234C40.9491 3.26034 41.6651 3.23433 42.4051 3.21533L43.4681 11.1053ZM27.0841 15.2533C27.0731 15.2513 27.0611 15.2503 27.0501 15.2493C27.0501 15.2493 26.3601 14.8853 25.4901 14.1713L36.0831 3.57735C36.9941 3.49435 37.9571 3.42034 38.9761 3.36034L27.0841 15.2533Z" fill="#61B6D4"/>
<path fill-rule="evenodd" clip-rule="evenodd" d="M50.1849 15.6874L61.5439 4.32838C59.9479 3.94538 58.4239 3.65738 57.0069 3.44238L48.6309 11.8184L49.2429 15.6044C49.5539 15.6324 49.8689 15.6604 50.1849 15.6874ZM65.3509 16.5444C61.9799 16.4294 58.4169 16.2674 54.9029 16.0394L65.4989 5.44238C67.9989 6.25538 70.6009 7.31639 73.1989 8.69739L65.3509 16.5444ZM53.7729 15.9634C52.9429 15.9064 52.1169 15.8444 51.2989 15.7794L62.5089 4.56938C63.1899 4.74638 63.8809 4.94039 64.5829 5.15439L53.7729 15.9634Z" fill="#61B6D4"/>
<path fill-rule="evenodd" clip-rule="evenodd" d="M76.4813 14.1423C79.1713 14.1423 81.3512 15.2353 81.3512 16.5833C81.3512 17.9313 79.1713 19.0243 76.4813 19.0243C73.7923 19.0243 72.4632 18.7053 72.5182 16.6163C72.5732 14.5273 73.7923 14.1423 76.4813 14.1423Z" fill="#307BBD"/>
<path fill-rule="evenodd" clip-rule="evenodd" d="M76.4813 19.0242C79.1483 19.0242 81.3142 17.9492 81.3502 16.6162H72.5182C72.4632 18.7052 73.7923 19.0242 76.4813 19.0242Z" fill="#28679D"/>
<path fill-rule="evenodd" clip-rule="evenodd" d="M102.926 22.3182C57.1497 24.0622 28.5867 23.2702 12.4377 22.2582C7.51065 21.9492 3.73964 21.6202 0.98764 21.3362C0.96664 21.5652 0.947664 21.8012 0.930664 22.0452C5.47166 23.1532 19.5646 25.7662 53.4836 26.4992C73.7966 26.9382 91.1536 25.3292 103.877 23.4932C103.471 23.0812 103.162 22.6792 102.926 22.3182Z" fill="#215784"/>
<path fill-rule="evenodd" clip-rule="evenodd" d="M58.6337 37.4823C48.8797 37.4823 39.6297 37.1103 31.3387 36.4443C31.4187 36.9563 31.4607 37.4823 31.4607 38.0163C31.4607 38.6203 31.4067 39.2123 31.3047 39.7873L31.8907 39.6763H84.9977L85.6147 39.6363C85.4567 38.9263 85.3727 38.1873 85.3727 37.4293C85.3727 37.1113 85.3867 36.7953 85.4167 36.4843C77.2567 37.1263 68.1877 37.4823 58.6337 37.4823Z" fill="#215784"/>
<path fill-rule="evenodd" clip-rule="evenodd" d="M108.519 22.0952C106.627 22.1732 104.763 22.2472 102.926 22.3172C103.162 22.6782 103.472 23.0802 103.876 23.4922C105.15 24.7902 107.363 26.1842 111.156 26.7182C110.309 24.6652 109.376 23.1712 108.519 22.0952Z" fill="#FFBB63"/>
<path fill-rule="evenodd" clip-rule="evenodd" d="M111.212 23.7703C110.711 23.7703 110.229 23.8253 109.774 23.9273C110.242 24.7173 110.711 25.6413 111.156 26.7193C112.58 26.9193 114.228 26.9993 116.132 26.9063C115.768 25.1313 113.704 23.7703 111.212 23.7703Z" fill="#9E9FA3"/>
<path fill-rule="evenodd" clip-rule="evenodd" d="M21.4251 26.2793C16.8011 26.2793 12.8211 29.0373 11.0391 32.9983L12.2321 33.7123C13.8481 30.2913 17.3301 27.9243 21.3651 27.9243C25.7651 27.9243 29.5081 30.7393 30.8891 34.6673L32.2051 34.0063C30.6841 29.5123 26.4321 26.2793 21.4251 26.2793Z" fill="#215784"/>
<path fill-rule="evenodd" clip-rule="evenodd" d="M95.5276 25.6924C90.9026 25.6924 86.9226 28.4504 85.1416 32.4114L86.3346 33.1254C87.9506 29.7044 91.4326 27.3374 95.4676 27.3374C99.8676 27.3374 103.611 30.1524 104.993 34.0804L106.309 33.4194C104.787 28.9254 100.535 25.6924 95.5276 25.6924Z" fill="#215784"/>
<path fill-rule="evenodd" clip-rule="evenodd" d="M45.2322 2.57227L47.2852 16.3673C47.3252 16.5923 49.8412 30.7163 50.9362 37.5613L50.1922 37.4523C49.1082 30.6813 46.5882 16.5263 46.5812 16.4853L44.4482 2.62726L45.2322 2.57227Z" fill="#215784"/>
<path fill-rule="evenodd" clip-rule="evenodd" d="M19.8656 7.41431L22.5766 22.7763C27.1886 23.7153 30.2046 25.2123 32.2766 27.6483C34.3816 30.1233 35.4846 33.4003 36.0406 36.8753L35.2846 36.8133C34.7476 33.4583 33.7406 30.4703 31.7326 28.1083C29.7276 25.7503 26.7816 24.4003 22.2106 23.5103L21.9686 23.4633L19.2236 7.88631L19.8656 7.41431Z" fill="#215784"/>
<path fill-rule="evenodd" clip-rule="evenodd" d="M86.6991 17.6782L86.2301 23.0862L86.0951 23.1742C82.9531 25.2162 80.6891 27.7212 79.1811 30.3952C77.4801 33.4102 76.7401 36.6442 76.7831 39.6732L76.0711 39.6812C76.0271 36.5352 76.7961 33.1772 78.5611 30.0462C80.1021 27.3152 82.2101 24.9812 85.3841 22.8892L85.8941 17.6832L86.6991 17.6782Z" fill="#215784"/>
<path fill-rule="evenodd" clip-rule="evenodd" d="M12.4814 39.3213C12.4814 40.7173 12.7945 42.0393 13.3535 43.2223C14.8175 46.3163 17.9664 48.4563 21.6154 48.4563C24.1384 48.4563 26.4214 47.4343 28.0754 45.7803L25.5064 43.2123C24.5114 44.2083 23.1354 44.8243 21.6154 44.8243C18.5764 44.8243 16.1134 42.3603 16.1134 39.3213C16.1134 37.8023 16.7294 36.4263 17.7254 35.4303L15.1574 32.8623C13.5034 34.5153 12.4814 36.7993 12.4814 39.3213Z" fill="black"/>
<path fill-rule="evenodd" clip-rule="evenodd" d="M86.2334 38.9663C86.2334 40.4433 86.5834 41.8383 87.2064 43.0733C88.7104 46.0553 91.8004 48.1013 95.3674 48.1013C97.8904 48.1013 100.173 47.0793 101.827 45.4263L99.2584 42.8583C98.2624 43.8543 96.8874 44.4693 95.3674 44.4693C92.3294 44.4693 89.8654 42.0053 89.8654 38.9673C89.8654 37.4473 90.4814 36.0723 91.4774 35.0763L88.9094 32.5073C87.2554 34.1603 86.2334 36.4433 86.2334 38.9663Z" fill="black"/>
<path fill-rule="evenodd" clip-rule="evenodd" d="M70.0543 13.8332C69.5553 14.0912 69.1433 14.4282 68.8083 14.8292L66.7313 14.3912L67.4742 11.8442C67.5492 11.5872 67.4002 11.3162 67.1432 11.2412L66.8403 11.1532C66.5833 11.0782 66.3123 11.2272 66.2383 11.4842L64.5312 17.3322C64.9762 17.3492 65.4183 17.3652 65.8573 17.3802L66.4702 15.2822L68.2603 15.6592C67.9843 16.1932 67.7963 16.7942 67.6793 17.4402C69.3893 17.4932 71.0453 17.5352 72.6193 17.5682C72.5423 17.3012 72.5082 16.9872 72.5182 16.6172C72.5732 14.5282 73.7923 14.1422 76.4823 14.1422C79.1713 14.1422 81.3513 15.2352 81.3513 16.5832C81.3513 16.5942 81.3512 16.6062 81.3503 16.6172C81.3403 16.9992 81.1553 17.3592 80.8343 17.6802C83.1723 17.6942 84.9383 17.6892 85.8943 17.6842C86.4173 17.6812 86.6992 17.6782 86.6992 17.6782C84.9452 15.8672 83.1153 14.2692 81.2433 12.8582C78.0353 12.3712 73.3853 12.1132 70.0543 13.8332Z" fill="#375561"/>
<path fill-rule="evenodd" clip-rule="evenodd" d="M52.9973 12.4342L53.3733 16.7442C54.9533 16.8552 56.5473 16.9522 58.1363 17.0392L57.6983 12.0242C57.6603 11.5792 57.2633 11.2462 56.8183 11.2852L55.7973 11.3742L55.6663 9.87823L56.0343 9.83123C56.4323 9.78023 56.7513 9.43823 56.6983 9.04023L56.2823 5.98023C56.2283 5.58323 55.8922 5.28222 55.4922 5.31722L54.0073 5.44723C53.6083 5.48123 53.3323 5.83622 53.3433 6.23722L53.4263 9.31722C53.4373 9.71822 53.8162 9.99123 54.2162 9.98023L54.6243 9.96822L54.7543 11.4642L53.7343 11.5532C53.2903 11.5922 52.9583 11.9882 52.9973 12.4342Z" fill="#375561"/>
</svg>
