<svg width="119" height="49" viewBox="0 0 119 49" fill="none" xmlns="http://www.w3.org/2000/svg">
<path fill-rule="evenodd" clip-rule="evenodd" d="M1.16855 39.2381C1.16855 39.2381 5.25356 40.3321 11.6626 40.8121C11.4076 39.9251 11.2706 38.9871 11.2706 38.0171C11.2706 32.4421 15.7906 27.9221 21.3646 27.9221C26.9406 27.9221 31.4596 32.4421 31.4596 38.0171C31.4596 38.6211 31.4056 39.2131 31.3036 39.7881C31.4986 39.7521 31.6936 39.7151 31.8896 39.6771H84.9966L85.6135 39.6371C85.4556 38.9271 85.3716 38.1891 85.3716 37.4301C85.3716 31.8551 89.8916 27.3361 95.4666 27.3361C101.042 27.3361 105.561 31.8551 105.561 37.4301C105.561 37.7411 105.546 38.0481 105.519 38.3521L117.365 37.4821L118.352 26.7291C118.352 26.7291 115.609 20.6941 108.916 18.7191C102.222 16.7441 90.9206 14.6591 90.9206 14.6591C90.9206 14.6591 72.1575 1.27306 53.6146 0.176062C35.0716 -0.920938 14.0036 3.46706 14.0036 3.46706L1.60456 17.4021C1.60456 17.4021 -0.150442 24.2051 1.71456 30.6791L0.123555 31.9961C0.125555 31.9961 -0.532447 36.8241 1.16855 39.2381Z" fill="#FA6E52"/>
<path fill-rule="evenodd" clip-rule="evenodd" d="M85.3732 37.43C85.3732 31.855 89.8932 27.336 95.4682 27.336C101.043 27.336 105.562 31.855 105.562 37.43C105.562 37.741 105.547 38.048 105.52 38.352L117.366 37.482L118.353 26.729C118.353 26.729 117.189 24.167 114.526 21.835C47.0772 24.853 13.4962 22.625 0.986172 21.335C0.756172 23.874 0.749175 27.321 1.71718 30.679L0.126172 31.996C0.126172 31.996 -0.531829 36.824 1.16917 39.238C1.16917 39.238 5.25417 40.332 11.6632 40.812C11.4082 39.925 11.2712 38.987 11.2712 38.017C11.2712 32.442 15.7912 27.922 21.3652 27.922C26.9412 27.922 31.4602 32.442 31.4602 38.017C31.4602 38.621 31.4062 39.213 31.3042 39.788L31.8902 39.677H84.9972L85.6142 39.637C85.4572 38.927 85.3732 38.189 85.3732 37.43Z" fill="#E7563F"/>
<path fill-rule="evenodd" clip-rule="evenodd" d="M46.3193 2.42614C46.3193 2.42614 70.0193 0.451147 86.6983 17.6771C86.6983 17.6771 65.5763 17.8971 48.5693 16.3601L46.3193 2.42614Z" fill="#49A9C9"/>
<path fill-rule="evenodd" clip-rule="evenodd" d="M43.248 2.64502L45.059 16.086C45.059 16.086 39.847 17.238 26.515 15.757C26.515 15.757 20.59 12.63 21.028 6.70502C21.028 6.70502 26.35 3.08402 43.248 2.64502Z" fill="#49A9C9"/>
<path fill-rule="evenodd" clip-rule="evenodd" d="M12.4364 22.2572L12.6894 18.2262C6.21536 13.1782 1.60635 17.4022 1.60635 17.4022C1.60635 17.4022 1.19935 18.9782 0.985352 21.3352C3.73835 21.6192 7.50936 21.9482 12.4364 22.2572Z" fill="#F4FDFA"/>
<path fill-rule="evenodd" clip-rule="evenodd" d="M31.3972 22.2073C33.7092 22.2073 35.5932 21.6713 35.5932 21.0143C35.5932 20.3573 33.7082 19.8213 31.3972 19.8213C29.0852 19.8213 27.2002 20.3573 27.2002 21.0143C27.2002 21.6723 29.0852 22.2073 31.3972 22.2073Z" fill="#FB9480"/>
<path fill-rule="evenodd" clip-rule="evenodd" d="M57.7868 22.3553C60.0978 22.3553 61.9828 21.8193 61.9828 21.1623C61.9828 20.5043 60.0978 19.9683 57.7868 19.9683C55.4758 19.9683 53.5898 20.5043 53.5898 21.1623C53.5898 21.8193 55.4748 22.3553 57.7868 22.3553Z" fill="#FB9480"/>
<path fill-rule="evenodd" clip-rule="evenodd" d="M31.3972 22.2072C33.7152 22.2072 35.5942 21.6732 35.5942 21.0142H27.2002C27.2002 21.6732 29.0792 22.2072 31.3972 22.2072Z" fill="#E7563F"/>
<path fill-rule="evenodd" clip-rule="evenodd" d="M57.7869 22.3551C60.1049 22.3551 61.9829 21.8211 61.9829 21.1621H53.5889C53.5899 21.8211 55.4689 22.3551 57.7869 22.3551Z" fill="#E7563F"/>
<path fill-rule="evenodd" clip-rule="evenodd" d="M21.6155 48.456C26.6465 48.456 30.7495 44.353 30.7495 39.322C30.7495 34.291 26.6465 30.187 21.6155 30.187C16.5845 30.187 12.4805 34.291 12.4805 39.322C12.4815 44.353 16.5845 48.456 21.6155 48.456Z" fill="#1A1A1A"/>
<path fill-rule="evenodd" clip-rule="evenodd" d="M95.3664 48.1001C100.397 48.1001 104.501 43.9961 104.501 38.9651C104.501 33.9341 100.397 29.8301 95.3664 29.8301C90.3354 29.8301 86.2324 33.9341 86.2324 38.9651C86.2324 43.9971 90.3354 48.1001 95.3664 48.1001Z" fill="#1A1A1A"/>
<path fill-rule="evenodd" clip-rule="evenodd" d="M21.6153 44.8239C24.6463 44.8239 27.1173 42.3529 27.1173 39.3219C27.1173 36.2909 24.6453 33.8188 21.6153 33.8188C18.5853 33.8188 16.1133 36.2909 16.1133 39.3219C16.1133 42.3519 18.5853 44.8239 21.6153 44.8239Z" fill="#BBB9BC"/>
<path fill-rule="evenodd" clip-rule="evenodd" d="M95.3673 44.4679C98.3973 44.4679 100.869 41.9959 100.869 38.9659C100.869 35.9349 98.3973 33.4629 95.3673 33.4629C92.3363 33.4629 89.8643 35.9349 89.8643 38.9659C89.8643 41.9959 92.3363 44.4679 95.3673 44.4679Z" fill="#BBB9BC"/>
<path fill-rule="evenodd" clip-rule="evenodd" d="M24.1553 37.751C24.5263 37.751 24.8283 38.052 24.8283 38.423C24.8283 38.794 24.5273 39.095 24.1553 39.095C23.7843 39.095 23.4833 38.794 23.4833 38.423C23.4833 38.053 23.7843 37.751 24.1553 37.751ZM21.6153 37.707C22.4723 37.707 23.1683 38.402 23.1683 39.259C23.1683 40.117 22.4733 40.812 21.6153 40.812C20.7583 40.812 20.0633 40.117 20.0633 39.259C20.0633 38.402 20.7583 37.707 21.6153 37.707ZM21.6153 35.906C21.9863 35.906 22.2883 36.207 22.2883 36.578C22.2883 36.949 21.9873 37.25 21.6153 37.25C21.2443 37.25 20.9433 36.949 20.9433 36.578C20.9433 36.207 21.2433 35.906 21.6153 35.906ZM19.0753 37.751C19.4463 37.751 19.7473 38.052 19.7473 38.423C19.7473 38.794 19.4473 39.095 19.0753 39.095C18.7043 39.095 18.4033 38.794 18.4033 38.423C18.4033 38.053 18.7043 37.751 19.0753 37.751ZM20.0453 40.738C19.6743 40.738 19.3733 41.039 19.3733 41.41C19.3733 41.781 19.6733 42.082 20.0453 42.082C20.4163 42.082 20.7183 41.781 20.7183 41.41C20.7183 41.038 20.4163 40.738 20.0453 40.738ZM23.1853 40.738C22.8143 40.738 22.5133 41.039 22.5133 41.41C22.5133 41.781 22.8133 42.082 23.1853 42.082C23.5563 42.082 23.8573 41.781 23.8573 41.41C23.8573 41.038 23.5563 40.738 23.1853 40.738Z" fill="#394241"/>
<path fill-rule="evenodd" clip-rule="evenodd" d="M97.9073 37.3963C98.2783 37.3963 98.5793 37.6973 98.5793 38.0683C98.5793 38.4393 98.2793 38.7403 97.9073 38.7403C97.5353 38.7403 97.2353 38.4393 97.2353 38.0683C97.2353 37.6973 97.5353 37.3963 97.9073 37.3963ZM95.3663 37.3513C96.2243 37.3513 96.9193 38.0463 96.9193 38.9033C96.9193 39.7613 96.2243 40.4563 95.3663 40.4563C94.5093 40.4563 93.8143 39.7613 93.8143 38.9033C93.8143 38.0463 94.5103 37.3513 95.3663 37.3513ZM95.3663 35.5513C95.7373 35.5513 96.0393 35.8523 96.0393 36.2233C96.0393 36.5943 95.7383 36.8953 95.3663 36.8953C94.9953 36.8953 94.6943 36.5943 94.6943 36.2233C94.6953 35.8523 94.9963 35.5513 95.3663 35.5513ZM92.8273 37.3963C93.1983 37.3963 93.4993 37.6973 93.4993 38.0683C93.4993 38.4393 93.1983 38.7403 92.8273 38.7403C92.4563 38.7403 92.1543 38.4393 92.1543 38.0683C92.1543 37.6973 92.4563 37.3963 92.8273 37.3963ZM93.7973 40.3823C93.4263 40.3823 93.1253 40.6833 93.1253 41.0543C93.1253 41.4253 93.4263 41.7263 93.7973 41.7263C94.1683 41.7263 94.4693 41.4253 94.4693 41.0543C94.4693 40.6833 94.1683 40.3823 93.7973 40.3823ZM96.9373 40.3823C96.5663 40.3823 96.2643 40.6833 96.2643 41.0543C96.2643 41.4253 96.5653 41.7263 96.9373 41.7263C97.3083 41.7263 97.6093 41.4253 97.6093 41.0543C97.6083 40.6833 97.3073 40.3823 96.9373 40.3823Z" fill="#394241"/>
<path fill-rule="evenodd" clip-rule="evenodd" d="M13.354 43.2219C12.794 42.0389 12.481 40.7169 12.481 39.3209C12.481 34.2759 16.571 30.1859 21.615 30.1859C26.661 30.1859 30.75 34.2759 30.75 39.3209C30.75 41.0019 30.296 42.5759 29.505 43.9289C32.604 44.0009 35.723 44.0279 38.695 43.9859C47.305 43.8629 69.424 43.4299 87.206 43.0729C86.583 41.8379 86.233 40.4429 86.233 38.9659C86.233 33.9209 90.322 29.8309 95.367 29.8309C100.412 29.8309 104.502 33.9209 104.502 38.9659C104.502 40.3119 104.211 41.5889 103.689 42.7389C109.043 42.6299 112.43 42.5599 112.43 42.5599L115.705 37.6049L105.521 38.3519C105.548 38.0489 105.563 37.7409 105.563 37.4299C105.563 31.8549 101.043 27.3359 95.469 27.3359C89.893 27.3359 85.374 31.8549 85.374 37.4299C85.374 38.1879 85.459 38.9269 85.616 39.6369L84.999 39.6769H31.892L31.306 39.7879C31.408 39.2129 31.462 38.6209 31.462 38.0169C31.462 32.4419 26.942 27.9219 21.367 27.9219C15.792 27.9219 11.273 32.4419 11.273 38.0169C11.273 38.9869 11.41 39.9239 11.665 40.8119C7.68496 40.5129 4.60096 39.9789 2.83496 39.6159L4.02397 42.5589C4.02197 42.5589 7.80497 42.8819 13.354 43.2219Z" fill="#394241"/>
<path fill-rule="evenodd" clip-rule="evenodd" d="M118.354 26.729C118.354 26.729 117.19 24.167 114.527 21.835C110.543 22.014 106.676 22.173 102.925 22.316C104.287 24.404 108.116 27.838 118.354 26.729Z" fill="#F7F9F8"/>
<path fill-rule="evenodd" clip-rule="evenodd" d="M112.321 30.637L117.971 30.161C118.482 30.118 118.904 30.581 118.904 31.094V35.153C118.904 35.666 118.483 36.086 117.971 36.086H112.321C111.808 36.086 111.388 35.666 111.388 35.153V31.57C111.388 31.057 111.81 30.68 112.321 30.637Z" fill="#394241"/>
<path fill-rule="evenodd" clip-rule="evenodd" d="M24.8461 13.6018L34.7351 3.71281C32.1021 4.00081 29.9511 4.37781 28.2191 4.77081L22.5801 10.4098C23.1381 11.7458 24.0161 12.8128 24.8461 13.6018ZM43.4681 11.1058L38.6331 15.9408C36.1351 15.9598 32.7011 15.8348 28.1801 15.3698L40.2571 3.29282C40.9491 3.26082 41.6661 3.23482 42.4061 3.21582L43.4681 11.1058ZM27.0841 15.2518C27.0731 15.2508 27.0611 15.2498 27.0501 15.2478C27.0501 15.2478 26.3601 14.8838 25.4901 14.1698L36.0831 3.57681C36.9941 3.49281 37.9571 3.41982 38.9761 3.35982L27.0841 15.2518Z" fill="#61B6D4"/>
<path fill-rule="evenodd" clip-rule="evenodd" d="M50.1848 15.6869L61.5428 4.3279C59.9468 3.9449 58.4229 3.65689 57.0059 3.44189L48.6309 11.8179L49.2419 15.6039C49.5549 15.6319 49.8688 15.6589 50.1848 15.6869ZM65.3508 16.5439C61.9798 16.4289 58.4168 16.2669 54.9028 16.0389L65.4988 5.44189C67.9988 6.25489 70.6009 7.3159 73.1989 8.6969L65.3508 16.5439ZM53.7719 15.9629C52.9419 15.9049 52.1169 15.8439 51.2979 15.7779L62.5068 4.56789C63.1878 4.74489 63.8788 4.93889 64.5808 5.15289L53.7719 15.9629Z" fill="#61B6D4"/>
<path fill-rule="evenodd" clip-rule="evenodd" d="M76.4812 14.1421C79.1702 14.1421 81.3502 15.2351 81.3502 16.5831C81.3502 17.9311 79.1702 19.0241 76.4812 19.0241C73.7922 19.0241 72.4632 18.7051 72.5172 16.6161C72.5732 14.5271 73.7932 14.1421 76.4812 14.1421Z" fill="#FA6E52"/>
<path fill-rule="evenodd" clip-rule="evenodd" d="M76.4812 19.0242C79.1472 19.0242 81.3142 17.9492 81.3492 16.6162H72.5172C72.4632 18.7052 73.7932 19.0242 76.4812 19.0242Z" fill="#E7563F"/>
<path fill-rule="evenodd" clip-rule="evenodd" d="M102.925 22.317C57.1487 24.062 28.5857 23.269 12.4367 22.257C7.50969 21.948 3.73869 21.619 0.986694 21.335C0.966694 21.564 0.946688 21.801 0.929688 22.044C5.47169 23.152 19.5637 25.764 53.4827 26.497C73.7957 26.936 91.1537 25.328 103.876 23.492C103.471 23.081 103.162 22.679 102.925 22.317Z" fill="#D54D37"/>
<path fill-rule="evenodd" clip-rule="evenodd" d="M58.6347 37.4821C48.8797 37.4821 39.6307 37.1101 31.3387 36.4441C31.4197 36.9561 31.4607 37.4821 31.4607 38.0161C31.4607 38.6201 31.4067 39.2121 31.3047 39.7871L31.8907 39.6761H84.9977L85.6147 39.6361C85.4567 38.9261 85.3727 38.1881 85.3727 37.4301C85.3727 37.1111 85.3877 36.7961 85.4167 36.4851C77.2577 37.1261 68.1877 37.4821 58.6347 37.4821Z" fill="#D54D37"/>
<path fill-rule="evenodd" clip-rule="evenodd" d="M108.518 22.0952C106.626 22.1732 104.762 22.2472 102.925 22.3172C103.161 22.6792 103.471 23.0812 103.875 23.4922C105.149 24.7902 107.363 26.1842 111.155 26.7182C110.309 24.6652 109.376 23.1712 108.518 22.0952Z" fill="#FFBB63"/>
<path fill-rule="evenodd" clip-rule="evenodd" d="M111.212 23.77C110.712 23.77 110.229 23.825 109.774 23.926C110.243 24.716 110.712 25.64 111.155 26.718C112.58 26.918 114.228 26.998 116.132 26.905C115.768 25.13 113.703 23.77 111.212 23.77Z" fill="#9E9FA3"/>
<path fill-rule="evenodd" clip-rule="evenodd" d="M21.4251 26.2793C16.8001 26.2793 12.8211 29.0373 11.0391 32.9973L12.2321 33.7113C13.8481 30.2903 17.3301 27.9233 21.3651 27.9233C25.7651 27.9233 29.5081 30.7383 30.8901 34.6663L32.2061 34.0053C30.6831 29.5123 26.4321 26.2793 21.4251 26.2793Z" fill="#D54D37"/>
<path fill-rule="evenodd" clip-rule="evenodd" d="M95.5276 25.6921C90.9036 25.6921 86.9226 28.4501 85.1416 32.4111L86.3356 33.1251C87.9516 29.7031 91.4336 27.3371 95.4686 27.3371C99.8686 27.3371 103.611 30.1521 104.994 34.0801L106.31 33.4191C104.787 28.9251 100.535 25.6921 95.5276 25.6921Z" fill="#D54D37"/>
<path fill-rule="evenodd" clip-rule="evenodd" d="M45.2323 2.57227L47.2853 16.3673C47.3243 16.5923 49.8412 30.7163 50.9372 37.5603L50.1922 37.4513C49.1082 30.6803 46.5883 16.5253 46.5813 16.4843L44.4482 2.62625L45.2323 2.57227Z" fill="#D54D37"/>
<path fill-rule="evenodd" clip-rule="evenodd" d="M19.8656 7.41406L22.5766 22.7761C27.1886 23.7151 30.2036 25.2111 32.2756 27.6481C34.3806 30.1231 35.4836 33.4001 36.0396 36.8751L35.2836 36.8131C34.7466 33.4571 33.7396 30.4701 31.7316 28.1081C29.7266 25.7501 26.7806 24.4001 22.2106 23.5101L21.9686 23.4631L19.2236 7.88506L19.8656 7.41406Z" fill="#D54D37"/>
<path fill-rule="evenodd" clip-rule="evenodd" d="M86.6981 17.6772L86.2301 23.0862L86.0951 23.1742C82.9521 25.2172 80.6881 27.7212 79.1801 30.3952C77.4791 33.4102 76.7391 36.6442 76.7821 39.6732L76.0711 39.6812C76.0271 36.5352 76.7961 33.1772 78.5611 30.0462C80.1021 27.3142 82.2101 24.9812 85.3841 22.8882L85.8941 17.6822L86.6981 17.6772Z" fill="#D54D37"/>
<path fill-rule="evenodd" clip-rule="evenodd" d="M12.4814 39.321C12.4814 40.716 12.7944 42.039 13.3544 43.222C14.8174 46.316 17.9665 48.456 21.6165 48.456C24.1395 48.456 26.4225 47.434 28.0755 45.781L25.5074 43.213C24.5114 44.209 23.1355 44.825 21.6165 44.825C18.5785 44.825 16.1144 42.361 16.1144 39.323C16.1144 37.804 16.7304 36.428 17.7254 35.432L15.1575 32.864C13.5035 34.515 12.4814 36.799 12.4814 39.321Z" fill="black"/>
<path fill-rule="evenodd" clip-rule="evenodd" d="M86.2324 38.966C86.2324 40.443 86.5824 41.838 87.2054 43.073C88.7094 46.055 91.7994 48.101 95.3664 48.101C97.8894 48.101 100.172 47.078 101.826 45.426L99.2584 42.858C98.2624 43.854 96.8864 44.47 95.3674 44.47C92.3294 44.47 89.8654 42.006 89.8654 38.968C89.8654 37.448 90.4814 36.073 91.4774 35.077L88.9094 32.509C87.2544 34.159 86.2324 36.443 86.2324 38.966Z" fill="black"/>
<path fill-rule="evenodd" clip-rule="evenodd" d="M70.0543 13.8332C69.5543 14.0912 69.1423 14.4282 68.8073 14.8292L66.7303 14.3912L67.4743 11.8442C67.5493 11.5872 67.4003 11.3162 67.1433 11.2412L66.8413 11.1532C66.5843 11.0782 66.3133 11.2272 66.2383 11.4832L64.5312 17.3312C64.9762 17.3482 65.4193 17.3642 65.8583 17.3792L66.4703 15.2812L68.2613 15.6582C67.9863 16.1922 67.7973 16.7932 67.6803 17.4382C69.3893 17.4912 71.0453 17.5332 72.6193 17.5662C72.5423 17.2992 72.5083 16.9852 72.5183 16.6152C72.5733 14.5262 73.7933 14.1402 76.4823 14.1402C79.1713 14.1402 81.3513 15.2332 81.3513 16.5822C81.3513 16.5932 81.3512 16.6042 81.3503 16.6152C81.3403 16.9972 81.1553 17.3572 80.8343 17.6782C83.1723 17.6922 84.9383 17.6872 85.8943 17.6822C86.4183 17.6792 86.6993 17.6762 86.6993 17.6762C84.9463 15.8652 83.1163 14.2672 81.2433 12.8562C78.0353 12.3712 73.3853 12.1132 70.0543 13.8332Z" fill="#375561"/>
<path fill-rule="evenodd" clip-rule="evenodd" d="M52.9972 12.4332L53.3733 16.7432C54.9533 16.8542 56.5473 16.9512 58.1373 17.0382L57.6993 12.0232C57.6603 11.5782 57.2633 11.2452 56.8183 11.2842L55.7973 11.3732L55.6673 9.87722L56.0343 9.83022C56.4333 9.77922 56.7513 9.43721 56.6983 9.04021L56.2833 5.98022C56.2293 5.58322 55.8922 5.28222 55.4932 5.31722L54.0083 5.44723C53.6093 5.48223 53.3343 5.83622 53.3443 6.23722L53.4273 9.31722C53.4383 9.71822 53.8162 9.99122 54.2172 9.98022L54.6253 9.96922L54.7562 11.4652L53.7353 11.5542C53.2913 11.5922 52.9582 11.9882 52.9972 12.4332Z" fill="#375561"/>
</svg>
